{
.appVersion = "983";
classes = (
{
automatic = 1;

glyphs = (
{
color = 1;
glyphname = A;
layers = (
{
anchors = (
{
name = bottom;
position = "{292, 0}";
},
{
name = ogonek;
position = "{526, 10}";
},
{
name = top;
position = "{292, 637}";
}
);
layerId = UUID0;
paths = (
{
closed = 1;
nodes = (
"332 -10 OFFCURVE",
"404 0 OFFCURVE",
"481 0 CURVE SMOOTH",
"515 0 OFFCURVE",
"587 -3 OFFCURVE",
"587 -3 CURVE",
"594 38 LINE",
"592 42 LINE",
"534 47 OFFCURVE",
"512 63 OFFCURVE",
"496 113 CURVE SMOOTH",
"421 338 OFFCURVE",
"337 649 OFFCURVE",
"337 649 CURVE",
"329 649 LINE",
"266 632 LINE",
"71 121 LINE",
"49 65 OFFCURVE",
"30 48 OFFCURVE",
"-7 44 CURVE",
"-15 -3 LINE",
"-15 -3 OFFCURVE",
"47 0 OFFCURVE",
"95 0 CURVE SMOOTH",
"161 0 OFFCURVE",
"234 -7 OFFCURVE",
"234 -7 CURVE",
"240 36 LINE",
"238 40 LINE",
"181 40 LINE",
"139 40 OFFCURVE",
"121 52 OFFCURVE",
"121 81 CURVE SMOOTH",
"121 90 OFFCURVE",
"124 102 OFFCURVE",
"130 120 CURVE SMOOTH",
"167 224 LINE",
"190 227 OFFCURVE",
"237 232 OFFCURVE",
"276 232 CURVE SMOOTH",
"304 232 OFFCURVE",
"356 232 OFFCURVE",
"380 231 CURVE",
"413 122 LINE",
"419 103 OFFCURVE",
"422 87 OFFCURVE",
"422 74 CURVE SMOOTH",
"422 50 OFFCURVE",
"402 41 OFFCURVE",
"333 36 CURVE",
"329 -3 LINE",
"332 -10 LINE"
);
},
{
closed = 1;
nodes = (
"280 540 LINE",
"287 540 LINE",
"366 278 LINE",
"343 276 OFFCURVE",
"300 273 OFFCURVE",
"273 273 CURVE SMOOTH",
"185 273 LINE"
);
}
);
width = 584;
},
{
anchors = (
{
name = bottom;
position = "{338, 0}";
},
{
name = ogonek;
position = "{608, 10}";
},
{
name = top;
position = "{338, 647}";
}
);
layerId = UUID1;
paths = (
{
closed = 1;
nodes = (
"341 -6 OFFCURVE",
"437 -1 OFFCURVE",
"532 -1 CURVE SMOOTH",
"587 -1 OFFCURVE",
"673 -3 OFFCURVE",
"673 -3 CURVE",
"681 76 LINE",
"674 86 LINE",
"643 89 OFFCURVE",
"627 108 OFFCURVE",
"615 153 CURVE SMOOTH",
"586 261 OFFCURVE",
"490 646 OFFCURVE",
"490 646 CURVE",
"475 658 LINE",
"212 642 LINE",
"53 140 LINE",
"43 109 OFFCURVE",
"26 91 OFFCURVE",
"2 85 CURVE",
"-5 -2 LINE",
"-5 -2 OFFCURVE",
"66 -1 OFFCURVE",
"128 -1 CURVE SMOOTH",
"189 -1 OFFCURVE",
"282 -4 OFFCURVE",
"282 -4 CURVE",
"290 79 LINE",
"282 89 LINE",
"256 89 LINE",
"229 89 OFFCURVE",
"225 92 OFFCURVE",
"225 109 CURVE SMOOTH",
"225 113 OFFCURVE",
"226 120 OFFCURVE",
"228 131 CURVE SMOOTH",
"238 175 LINE",
"264 177 OFFCURVE",
"295 180 OFFCURVE",
"318 180 CURVE SMOOTH",
"337 180 OFFCURVE",
"368 179 OFFCURVE",
"395 178 CURVE",
"401 139 LINE",
"402 131 OFFCURVE",
"403 125 OFFCURVE",
"403 121 CURVE SMOOTH",
"403 95 OFFCURVE",
"400 94 OFFCURVE",
"339 87 CURVE",
"333 3 LINE",
"341 -6 LINE"
);
},
{
closed = 1;
nodes = (
"317 478 LINE",
"339 478 LINE",
"373 303 LINE",
"355 302 OFFCURVE",
"336 301 OFFCURVE",
"321 301 CURVE SMOOTH",
"270 301 LINE"
);
}
);
width = 676;
}
);
leftKerningGroup = A;
rightKerningGroup = A;
unicode = 0041;
},
{
color = 10;
glyphname = Abreveacute;
layers = (
{
background = {
paths = (
{
closed = 1;
nodes = (
"255 768 OFFCURVE",
"218 785 OFFCURVE",
"201 818 CURVE",
"193 818 LINE",
"177 808 LINE",
"191 759 OFFCURVE",
"228 710 OFFCURVE",
"297 710 CURVE SMOOTH",
"366 710 OFFCURVE",
"403 759 OFFCURVE",
"417 808 CURVE",
"401 818 LINE",
"393 818 LINE",
"376 785 OFFCURVE",
"339 768 OFFCURVE",
"297 768 CURVE SMOOTH"
);
}
);
};
components = (
{
alignment = -1;
name = A;
},
{
alignment = -1;
name = brevecomb_acutecomb;
transform = "{1, 0, 0, 1, 103, 130}";
}
);
layerId = UUID0;
width = 584;
},
{
background = {
paths = (
{
closed = 1;
nodes = (
"292 810 OFFCURVE",
"250 833 OFFCURVE",
"230 880 CURVE",
"203 873 LINE",
"163 811 LINE",
"184 743 OFFCURVE",
"239 675 OFFCURVE",
"341 675 CURVE SMOOTH",
"443 675 OFFCURVE",
"498 743 OFFCURVE",
"519 811 CURVE",
"479 873 LINE",
"452 880 LINE",
"432 833 OFFCURVE",
"390 810 OFFCURVE",
"341 810 CURVE SMOOTH"
);
}
);
};
components = (
{
alignment = -1;
name = A;
},
{
alignment = -1;
name = brevecomb_acutecomb;
transform = "{1, 0, 0, 1, 141, 140}";
}
);
layerId = UUID1;
width = 676;
}
);
leftKerningGroup = A;
rightKerningGroup = A;
unicode = 1EAE;
},
{
color = 10;
glyphname = Abrevegrave;
layers = (
{
background = {
paths = (
{
closed = 1;
nodes = (
"255 768 OFFCURVE",
"218 785 OFFCURVE",
"201 818 CURVE",
"193 818 LINE",
"177 808 LINE",
"191 759 OFFCURVE",
"228 710 OFFCURVE",
"297 710 CURVE SMOOTH",
"366 710 OFFCURVE",
"403 759 OFFCURVE",
"417 808 CURVE",
"401 818 LINE",
"393 818 LINE",
"376 785 OFFCURVE",
"339 768 OFFCURVE",
"297 768 CURVE SMOOTH"
);
}
);
};
components = (
{
alignment = -1;
name = A;
},
{
alignment = -1;
name = brevecomb_gravecomb;
transform = "{1, 0, 0, 1, 103, 130}";
}
);
layerId = UUID0;
width = 584;
},
{
background = {
paths = (
{
closed = 1;
nodes = (
"292 810 OFFCURVE",
"250 833 OFFCURVE",
"230 880 CURVE",
"203 873 LINE",
"163 811 LINE",
"184 743 OFFCURVE",
"239 675 OFFCURVE",
"341 675 CURVE SMOOTH",
"443 675 OFFCURVE",
"498 743 OFFCURVE",
"519 811 CURVE",
"479 873 LINE",
"452 880 LINE",
"432 833 OFFCURVE",
"390 810 OFFCURVE",
"341 810 CURVE SMOOTH"
);
}
);
};
components = (
{
alignment = -1;
name = A;
},
{
alignment = -1;
name = brevecomb_gravecomb;
transform = "{1, 0, 0, 1, 141, 140}";
}
);
layerId = UUID1;
width = 676;
}
);
leftKerningGroup = A;
rightKerningGroup = A;
unicode = 1EB0;
},
{
color = 10;
glyphname = Ahookabove;
layers = (
{
background = {
paths = (
{
closed = 1;
nodes = (
"255 768 OFFCURVE",
"218 785 OFFCURVE",
"201 818 CURVE",
"193 818 LINE",
"177 808 LINE",
"191 759 OFFCURVE",
"228 710 OFFCURVE",
"297 710 CURVE SMOOTH",
"366 710 OFFCURVE",
"403 759 OFFCURVE",
"417 808 CURVE",
"401 818 LINE",
"393 818 LINE",
"376 785 OFFCURVE",
"339 768 OFFCURVE",
"297 768 CURVE SMOOTH"
);
}
);
};
components = (
{
alignment = -1;
name = A;
},
{
alignment = -1;
name = hookabovecomb;
transform = "{1, 0, 0, 1, 103, 130}";
}
);
layerId = UUID0;
width = 584;
},
{
background = {
paths = (
{
closed = 1;
nodes = (
"292 810 OFFCURVE",
"250 833 OFFCURVE",
"230 880 CURVE",
"203 873 LINE",
"163 811 LINE",
"184 743 OFFCURVE",
"239 675 OFFCURVE",
"341 675 CURVE SMOOTH",
"443 675 OFFCURVE",
"498 743 OFFCURVE",
"519 811 CURVE",
"479 873 LINE",
"452 880 LINE",
"432 833 OFFCURVE",
"390 810 OFFCURVE",
"341 810 CURVE SMOOTH"
);
}
);
};
components = (
{
alignment = -1;
name = A;
},
{
alignment = -1;
name = hookabovecomb;
transform = "{1, 0, 0, 1, 141, 140}";
}
);
layerId = UUID1;
width = 676;
}
);
leftKerningGroup = A;
rightKerningGroup = A;
unicode = 1EA2;
},
{
color = 1;
glyphname = AE;
layers = (
{
anchors = (
{
name = top;
position = "{499, 647}";
}
);
layerId = UUID0;
paths = (
{
closed = 1;
nodes = (
"299 -3 LINE",
"301 -10 LINE",
"301 -10 OFFCURVE",
"372 0 OFFCURVE",
"449 0 CURVE SMOOTH",
"483 0 LINE SMOOTH",
"584 0 OFFCURVE",
"752 -8 OFFCURVE",
"752 -7 CURVE",
"757 -1 LINE",
"766 84 OFFCURVE",
"784 167 OFFCURVE",
"784 167 CURVE",
"781 172 LINE",
"737 167 LINE",
"722 57 OFFCURVE",
"704 45 OFFCURVE",
"559 45 CURVE SMOOTH",
"505 45 OFFCURVE",
"483 62 OFFCURVE",
"475 113 CURVE SMOOTH",
"447 282 LINE",
"556 291 LINE",
"642 294 LINE",
"655 347 LINE",
"651 352 LINE",
"559 339 LINE",
"441 328 LINE",
"410 556 LINE",
"411 584 OFFCURVE",
"418 587 OFFCURVE",
"480 587 CURVE SMOOTH",
"623 587 OFFCURVE",
"637 581 OFFCURVE",
"637 516 CURVE SMOOTH",
"637 502 OFFCURVE",
"635 473 OFFCURVE",
"635 473 CURVE",
"683 477 LINE",
"689 569 OFFCURVE",
"706 643 OFFCURVE",
"706 643 CURVE",
"703 649 LINE",
"643 640 OFFCURVE",
"563 637 OFFCURVE",
"405 637 CURVE SMOOTH",
"310 637 OFFCURVE",
"246 641 OFFCURVE",
"246 640 CURVE",
"239 596 LINE",
"241 592 LINE",
"241 592 OFFCURVE",
"263 594 OFFCURVE",
"275 594 CURVE SMOOTH",
"289 594 OFFCURVE",
"297 590 OFFCURVE",
"300 578 CURVE",
"53 121 LINE SMOOTH",
"23 66 OFFCURVE",
"-10 31 OFFCURVE",
"-10 31 CURVE",
"-3 -4 LINE",
"-3 -4 OFFCURVE",
"43 0 OFFCURVE",
"65 0 CURVE SMOOTH",
"129 0 OFFCURVE",
"203 -7 OFFCURVE",
"203 -7 CURVE",
"208 40 LINE",
"151 40 LINE SMOOTH",
"113 40 OFFCURVE",
"96 51 OFFCURVE",
"96 74 CURVE SMOOTH",
"96 85 OFFCURVE",
"100 97 OFFCURVE",
"112 120 CURVE SMOOTH",
"183 258 LINE",
"274 268 LINE",
"373 276 LINE",
"391 153 LINE SMOOTH",
"394 131 OFFCURVE",
"398 109 OFFCURVE",
"398 87 CURVE SMOOTH",
"398 51 OFFCURVE",
"380 42 OFFCURVE",
"301 36 CURVE"
);
},
{
closed = 1;
nodes = (
"210 310 LINE",
"328 539 LINE",
"337 539 LINE",
"367 321 LINE",
"294 315 LINE"
);
}
);
width = 810;
},
{
anchors = (
{
name = top;
position = "{499, 647}";
}
);
layerId = UUID1;
paths = (
{
closed = 1;
nodes = (
"333 3 LINE",
"340 -6 LINE",
"340 -6 OFFCURVE",
"426 -1 OFFCURVE",
"511 0 CURVE SMOOTH",
"553 0 LINE SMOOTH",
"708 0 OFFCURVE",
"874 -7 OFFCURVE",
"874 -7 CURVE",
"889 9 LINE",
"899 118 OFFCURVE",
"917 215 OFFCURVE",
"917 215 CURVE",
"905 230 LINE",
"777 221 LINE",
"765 131 OFFCURVE",
"749 114 OFFCURVE",
"672 114 CURVE SMOOTH",
"642 114 OFFCURVE",
"624 136 OFFCURVE",
"617 181 CURVE SMOOTH",
"606 254 LINE",
"671 266 LINE",
"767 278 LINE",
"779 394 LINE",
"762 411 LINE",
"661 385 LINE",
"588 372 LINE",
"569 503 LINE",
"569 522 OFFCURVE",
"576 527 OFFCURVE",
"603 527 CURVE SMOOTH",
"684 527 OFFCURVE",
"701 517 OFFCURVE",
"701 472 CURVE SMOOTH",
"701 459 OFFCURVE",
"699 435 OFFCURVE",
"699 435 CURVE",
"837 444 LINE",
"842 538 OFFCURVE",
"860 643 OFFCURVE",
"860 643 CURVE",
"847 659 LINE",
"809 654 OFFCURVE",
"649 648 OFFCURVE",
"502 647 CURVE SMOOTH",
"333 647 OFFCURVE",
"170 650 OFFCURVE",
"170 650 CURVE",
"161 571 LINE",
"173 557 LINE",
"173 557 OFFCURVE",
"188 559 OFFCURVE",
"199 559 CURVE SMOOTH",
"215 559 OFFCURVE",
"222 552 OFFCURVE",
"225 531 CURVE",
"59 140 LINE SMOOTH",
"45 109 OFFCURVE",
"27 91 OFFCURVE",
"2 85 CURVE",
"5 -2 LINE",
"5 -2 OFFCURVE",
"42 -1 OFFCURVE",
"85 -1 CURVE SMOOTH",
"133 -1 OFFCURVE",
"280 -3 OFFCURVE",
"282 -4 CURVE",
"289 79 LINE",
"282 89 LINE SMOOTH",
"236 89 OFFCURVE",
"227 88 OFFCURVE",
"227 104 CURVE SMOOTH",
"227 108 OFFCURVE",
"229 117 OFFCURVE",
"233 130 CURVE SMOOTH",
"249 183 LINE",
"326 206 LINE",
"401 219 LINE",
"406 162 LINE SMOOTH",
"407 147 OFFCURVE",
"407 140 OFFCURVE",
"407 130 CURVE SMOOTH",
"407 101 OFFCURVE",
"395 93 OFFCURVE",
"339 87 CURVE"
);
},
{
closed = 1;
nodes = (
"298 324 LINE",
"355 478 LINE",
"377 478 LINE",
"391 337 LINE",
"341 328 LINE"
);
}
);
width = 938;
}
);
leftKerningGroup = A;
rightKerningGroup = E;
unicode = 00C6;
},
{
color = 1;
glyphname = B;
layers = (
{
anchors = (
{
name = bottom;
position = "{330, 0}";
},
{
name = top;
position = "{335, 647}";
}
);
background = {
paths = (
{
closed = 1;
nodes = (
"223 0 OFFCURVE",
"263 -10 OFFCURVE",
"307 -10 CURVE SMOOTH",
"433 -10 OFFCURVE",
"542 79 OFFCURVE",
"542 183 CURVE SMOOTH",
"542 257 OFFCURVE",
"484 314 OFFCURVE",
"387 335 CURVE",
"461 367 OFFCURVE",
"503 423 OFFCURVE",
"503 489 CURVE SMOOTH",
"503 587 OFFCURVE",
"432 641 OFFCURVE",
"306 641 CURVE SMOOTH",
"306 641 OFFCURVE",
"225 637 OFFCURVE",
"188 637 CURVE SMOOTH",
"150 637 OFFCURVE",
"77 640 OFFCURVE",
"77 640 CURVE",
"70 596 LINE",
"72 592 LINE",
"72 592 OFFCURVE",
"94 594 OFFCURVE",
"106 594 CURVE SMOOTH",
"136 594 OFFCURVE",
"143 583 OFFCURVE",
"143 540 CURVE SMOOTH",
"142 120 LINE SMOOTH",
"142 64 OFFCURVE",
"126 46 OFFCURVE",
"64 34 CURVE",
"58 -12 LINE",
"58 -12 OFFCURVE",
"122 0 OFFCURVE",
"172 0 CURVE SMOOTH"
);
},
{
closed = 1;
nodes = (
"321 300 LINE",
"410 284 OFFCURVE",
"456 237 OFFCURVE",
"456 165 CURVE SMOOTH",
"456 89 OFFCURVE",
"407 41 OFFCURVE",
"327 41 CURVE SMOOTH",
"244 41 OFFCURVE",
"213 60 OFFCURVE",
"213 111 CURVE",
"217 298 LINE"
);
},
{
closed = 1;
nodes = (
"221 433 OFFCURVE",
"224 509 OFFCURVE",
"228 575 CURVE SMOOTH",
"229 593 OFFCURVE",
"232 598 OFFCURVE",
"246 598 CURVE SMOOTH",
"366 598 OFFCURVE",
"422 558 OFFCURVE",
"422 472 CURVE SMOOTH",
"422 365 OFFCURVE",
"328 343 OFFCURVE",
"328 343 CURVE",
"313 343 OFFCURVE",
"219 351 OFFCURVE",
"219 351 CURVE"
);
}
);
};
layerId = UUID0;
paths = (
{
closed = 1;
nodes = (
"223 0 OFFCURVE",
"263 -10 OFFCURVE",
"307 -10 CURVE SMOOTH",
"433 -10 OFFCURVE",
"542 79 OFFCURVE",
"542 183 CURVE SMOOTH",
"542 257 OFFCURVE",
"484 314 OFFCURVE",
"387 335 CURVE",
"461 367 OFFCURVE",
"503 423 OFFCURVE",
"503 489 CURVE SMOOTH",
"503 587 OFFCURVE",
"433 641 OFFCURVE",
"306 641 CURVE SMOOTH",
"306 641 OFFCURVE",
"225 637 OFFCURVE",
"188 637 CURVE SMOOTH",
"150 637 OFFCURVE",
"77 640 OFFCURVE",
"77 640 CURVE",
"70 596 LINE",
"72 592 LINE",
"72 592 OFFCURVE",
"94 594 OFFCURVE",
"106 594 CURVE SMOOTH",
"136 594 OFFCURVE",
"143 583 OFFCURVE",
"143 540 CURVE SMOOTH",
"142 120 LINE SMOOTH",
"142 64 OFFCURVE",
"126 46 OFFCURVE",
"64 34 CURVE",
"58 -12 LINE",
"58 -12 OFFCURVE",
"122 0 OFFCURVE",
"172 0 CURVE SMOOTH"
);
},
{
closed = 1;
nodes = (
"321 300 LINE",
"410 284 OFFCURVE",
"456 237 OFFCURVE",
"456 165 CURVE SMOOTH",
"456 89 OFFCURVE",
"407 41 OFFCURVE",
"327 41 CURVE SMOOTH",
"244 41 OFFCURVE",
"213 60 OFFCURVE",
"213 111 CURVE",
"217 298 LINE"
);
},
{
closed = 1;
nodes = (
"221 434 OFFCURVE",
"224 510 OFFCURVE",
"228 575 CURVE SMOOTH",
"229 593 OFFCURVE",
"232 598 OFFCURVE",
"246 598 CURVE SMOOTH",
"366 598 OFFCURVE",
"422 558 OFFCURVE",
"422 472 CURVE SMOOTH",
"422 365 OFFCURVE",
"328 343 OFFCURVE",
"328 343 CURVE",
"313 343 OFFCURVE",
"219 351 OFFCURVE",
"219 351 CURVE"
);
}
);
width = 597;
},
{
anchors = (
{
name = bottom;
position = "{330, 0}";
},
{
name = top;
position = "{335, 647}";
}
);
background = {
paths = (
{
closed = 1;
nodes = (
"220 0 OFFCURVE",
"328 -7 OFFCURVE",
"358 -11 CURVE SMOOTH",
"549 -11 OFFCURVE",
"646 59 OFFCURVE",
"646 198 CURVE SMOOTH",
"646 311 OFFCURVE",
"521 343 OFFCURVE",
"521 343 CURVE",
"521 343 OFFCURVE",
"618 393 OFFCURVE",
"618 496 CURVE SMOOTH",
"618 599 OFFCURVE",
"539 654 OFFCURVE",
"390 654 CURVE SMOOTH",
"390 654 OFFCURVE",
"231 647 OFFCURVE",
"198 647 CURVE SMOOTH",
"166 647 OFFCURVE",
"29 649 OFFCURVE",
"29 649 CURVE",
"17 569 LINE",
"29 557 LINE",
"29 557 OFFCURVE",
"51 559 OFFCURVE",
"63 559 CURVE SMOOTH",
"81 559 OFFCURVE",
"90 544 OFFCURVE",
"90 513 CURVE SMOOTH",
"89 156 LINE SMOOTH",
"89 108 OFFCURVE",
"74 92 OFFCURVE",
"22 83 CURVE",
"13 -7 LINE",
"13 -7 OFFCURVE",
"130 0 OFFCURVE",
"194 0 CURVE SMOOTH"
);
},
{
closed = 1;
nodes = (
"367 260 LINE",
"408 247 OFFCURVE",
"431 221 OFFCURVE",
"431 187 CURVE SMOOTH",
"431 139 OFFCURVE",
"405 114 OFFCURVE",
"356 114 CURVE SMOOTH",
"305 114 OFFCURVE",
"283 128 OFFCURVE",
"283 160 CURVE",
"288 260 LINE"
);
},
{
closed = 1;
nodes = (
"290 389 OFFCURVE",
"293 470 OFFCURVE",
"297 514 CURVE SMOOTH",
"298 525 OFFCURVE",
"302 528 OFFCURVE",
"315 528 CURVE SMOOTH",
"381 528 OFFCURVE",
"412 506 OFFCURVE",
"412 460 CURVE SMOOTH",
"412 405 OFFCURVE",
"370 378 OFFCURVE",
"370 378 CURVE",
"347 378 OFFCURVE",
"290 389 OFFCURVE",
"290 389 CURVE"
);
}
);
};
layerId = UUID1;
paths = (
{
closed = 1;
nodes = (
"220 0 OFFCURVE",
"328 -7 OFFCURVE",
"358 -11 CURVE SMOOTH",
"549 -11 OFFCURVE",
"646 59 OFFCURVE",
"646 198 CURVE SMOOTH",
"646 287 OFFCURVE",
"581 322 OFFCURVE",
"521 343 CURVE",
"572 377 OFFCURVE",
"618 421 OFFCURVE",
"618 496 CURVE SMOOTH",
"618 599 OFFCURVE",
"539 654 OFFCURVE",
"390 654 CURVE SMOOTH",
"390 654 OFFCURVE",
"231 647 OFFCURVE",
"198 647 CURVE SMOOTH",
"166 647 OFFCURVE",
"29 649 OFFCURVE",
"29 649 CURVE",
"17 569 LINE",
"29 557 LINE",
"29 557 OFFCURVE",
"51 559 OFFCURVE",
"63 559 CURVE SMOOTH",
"81 559 OFFCURVE",
"90 544 OFFCURVE",
"90 513 CURVE SMOOTH",
"89 156 LINE SMOOTH",
"89 108 OFFCURVE",
"74 92 OFFCURVE",
"22 83 CURVE",
"13 -7 LINE",
"13 -7 OFFCURVE",
"130 0 OFFCURVE",
"194 0 CURVE SMOOTH"
);
},
{
closed = 1;
nodes = (
"367 260 LINE",
"408 247 OFFCURVE",
"431 221 OFFCURVE",
"431 187 CURVE SMOOTH",
"431 139 OFFCURVE",
"405 114 OFFCURVE",
"356 114 CURVE SMOOTH",
"305 114 OFFCURVE",
"283 128 OFFCURVE",
"283 160 CURVE",
"288 260 LINE"
);
},
{
closed = 1;
nodes = (
"290 389 OFFCURVE",
"293 470 OFFCURVE",
"297 514 CURVE SMOOTH",
"298 525 OFFCURVE",
"302 528 OFFCURVE",
"315 528 CURVE SMOOTH",
"381 528 OFFCURVE",
"412 506 OFFCURVE",
"412 460 CURVE SMOOTH",
"412 405 OFFCURVE",
"370 378 OFFCURVE",
"370 378 CURVE",
"347 378 OFFCURVE",
"290 389 OFFCURVE",
"290 389 CURVE"
);
}
);
width = 663;
}
);
leftKerningGroup = H;
rightKerningGroup = B;
unicode = 0042;
},
{
color = 1;
glyphname = C;
layers = (
{
anchors = (
{
name = bottom;
position = "{314, 0}";
},
{
name = top;
position = "{335, 647}";
}
);
layerId = UUID0;
paths = (
{
closed = 1;
nodes = (
"458 -12 OFFCURVE",
"544 28 OFFCURVE",
"544 28 CURVE",
"550 37 LINE",
"557 109 OFFCURVE",
"577 200 OFFCURVE",
"577 200 CURVE",
"529 196 LINE",
"504 88 OFFCURVE",
"450 38 OFFCURVE",
"359 38 CURVE SMOOTH",
"221 38 OFFCURVE",
"130 154 OFFCURVE",
"130 330 CURVE SMOOTH",
"130 489 OFFCURVE",
"216 590 OFFCURVE",
"350 590 CURVE SMOOTH",
"448 590 OFFCURVE",
"497 559 OFFCURVE",
"497 497 CURVE SMOOTH",
"497 475 OFFCURVE",
"494 448 OFFCURVE",
"494 448 CURVE",
"542 452 LINE",
"548 544 OFFCURVE",
"567 619 OFFCURVE",
"567 619 CURVE",
"563 625 LINE",
"563 625 OFFCURVE",
"472 649 OFFCURVE",
"389 649 CURVE SMOOTH",
"187 649 OFFCURVE",
"40 500 OFFCURVE",
"40 297 CURVE SMOOTH",
"40 108 OFFCURVE",
"157 -12 OFFCURVE",
"339 -12 CURVE SMOOTH"
);
}
);
width = 626;
},
{
anchors = (
{
name = bottom;
position = "{314, 0}";
},
{
name = top;
position = "{335, 647}";
}
);
layerId = UUID1;
paths = (
{
closed = 1;
nodes = (
"439 -11 OFFCURVE",
"547 27 OFFCURVE",
"547 27 CURVE",
"560 43 LINE",
"560 139 OFFCURVE",
"572 256 OFFCURVE",
"572 256 CURVE",
"419 246 LINE",
"412 161 OFFCURVE",
"391 130 OFFCURVE",
"340 130 CURVE SMOOTH",
"273 130 OFFCURVE",
"243 198 OFFCURVE",
"243 347 CURVE SMOOTH",
"243 479 OFFCURVE",
"265 521 OFFCURVE",
"335 521 CURVE SMOOTH",
"385 521 OFFCURVE",
"404 501 OFFCURVE",
"404 447 CURVE SMOOTH",
"404 416 OFFCURVE",
"402 390 OFFCURVE",
"402 390 CURVE",
"556 399 LINE",
"563 521 OFFCURVE",
"584 613 OFFCURVE",
"584 613 CURVE",
"576 633 LINE",
"576 633 OFFCURVE",
"452 659 OFFCURVE",
"366 659 CURVE SMOOTH",
"140 659 OFFCURVE",
"15 535 OFFCURVE",
"15 311 CURVE SMOOTH",
"15 108 OFFCURVE",
"124 -11 OFFCURVE",
"310 -11 CURVE SMOOTH"
);
}
);
width = 603;
}
);
leftKerningGroup = O;
rightKerningGroup = C;
unicode = 0043;
},
{
color = 1;
glyphname = D;
layers = (
{
anchors = (
{
name = bottom;
position = "{338, 0}";
},
{
name = center;
position = "{341, 324}";
},
{
name = top;
position = "{347, 647}";
}
);
layerId = UUID0;
paths = (
{
closed = 1;
nodes = (
"511 -12 OFFCURVE",
"663 143 OFFCURVE",
"663 342 CURVE SMOOTH",
"663 520 OFFCURVE",
"529 641 OFFCURVE",
"334 641 CURVE SMOOTH",
"334 641 OFFCURVE",
"228 637 OFFCURVE",
"182 637 CURVE SMOOTH",
"144 637 OFFCURVE",
"77 640 OFFCURVE",
"77 640 CURVE",
"70 596 LINE",
"72 592 LINE",
"72 592 OFFCURVE",
"94 594 OFFCURVE",
"106 594 CURVE SMOOTH",
"136 594 OFFCURVE",
"143 583 OFFCURVE",
"143 540 CURVE SMOOTH",
"142 120 LINE SMOOTH",
"142 64 OFFCURVE",
"126 46 OFFCURVE",
"64 34 CURVE",
"58 -12 LINE",
"58 -12 OFFCURVE",
"123 0 OFFCURVE",
"173 0 CURVE SMOOTH",
"224 0 OFFCURVE",
"317 -12 OFFCURVE",
"317 -12 CURVE"
);
},
{
closed = 1;
nodes = (
"462 592 OFFCURVE",
"572 494 OFFCURVE",
"572 318 CURVE SMOOTH",
"572 145 OFFCURVE",
"484 39 OFFCURVE",
"340 39 CURVE SMOOTH",
"239 39 OFFCURVE",
"214 58 OFFCURVE",
"214 131 CURVE SMOOTH",
"214 176 OFFCURVE",
"220 339 OFFCURVE",
"229 570 CURVE SMOOTH",
"230 588 OFFCURVE",
"237 592 OFFCURVE",
"265 592 CURVE SMOOTH"
);
}
);
width = 703;
},
{
anchors = (
{
name = bottom;
position = "{318, 0}";
},
{
name = center;
position = "{341, 324}";
},
{
name = top;
position = "{347, 647}";
}
);
layerId = UUID1;
paths = (
{
closed = 1;
nodes = (
"533 -12 OFFCURVE",
"667 128 OFFCURVE",
"667 352 CURVE SMOOTH",
"667 551 OFFCURVE",
"560 653 OFFCURVE",
"350 653 CURVE SMOOTH",
"350 653 OFFCURVE",
"230 647 OFFCURVE",
"184 647 CURVE SMOOTH",
"143 647 OFFCURVE",
"32 650 OFFCURVE",
"32 650 CURVE",
"23 569 LINE",
"33 555 LINE",
"33 555 OFFCURVE",
"50 557 OFFCURVE",
"65 557 CURVE SMOOTH",
"84 557 OFFCURVE",
"90 545 OFFCURVE",
"90 503 CURVE SMOOTH",
"90 168 LINE SMOOTH",
"90 112 OFFCURVE",
"75 93 OFFCURVE",
"25 85 CURVE",
"17 -8 LINE",
"17 -8 OFFCURVE",
"104 0 OFFCURVE",
"160 0 CURVE SMOOTH",
"223 0 OFFCURVE",
"319 -12 OFFCURVE",
"319 -12 CURVE"
);
},
{
closed = 1;
nodes = (
"409 526 OFFCURVE",
"438 477 OFFCURVE",
"438 314 CURVE SMOOTH",
"438 168 OFFCURVE",
"405 113 OFFCURVE",
"319 113 CURVE SMOOTH",
"291 113 OFFCURVE",
"283 123 OFFCURVE",
"283 162 CURVE SMOOTH",
"283 298 OFFCURVE",
"286 399 OFFCURVE",
"293 499 CURVE SMOOTH",
"294 519 OFFCURVE",
"299 526 OFFCURVE",
"314 526 CURVE SMOOTH"
);
}
);
width = 682;
}
);
leftKerningGroup = H;
rightKerningGroup = O;
unicode = 0044;
},
{
color = 1;
glyphname = Eth;
layers = (
{
layerId = UUID0;
paths = (
{
closed = 1;
nodes = (
"518 -12 OFFCURVE",
"670 143 OFFCURVE",
"670 342 CURVE SMOOTH",
"670 516 OFFCURVE",
"533 641 OFFCURVE",
"341 641 CURVE SMOOTH",
"341 641 OFFCURVE",
"235 637 OFFCURVE",
"189 637 CURVE SMOOTH",
"151 637 OFFCURVE",
"84 640 OFFCURVE",
"84 640 CURVE",
"77 596 LINE",
"79 592 LINE",
"79 592 OFFCURVE",
"101 594 OFFCURVE",
"113 594 CURVE SMOOTH",
"143 594 OFFCURVE",
"150 583 OFFCURVE",
"150 540 CURVE SMOOTH",
"149 343 LINE",
"16 343 LINE",
"9 311 LINE",
"16 304 LINE",
"149 304 LINE",
"149 157 LINE SMOOTH",
"149 61 OFFCURVE",
"141 47 OFFCURVE",
"71 34 CURVE",
"65 -12 LINE",
"65 -12 OFFCURVE",
"130 0 OFFCURVE",
"180 0 CURVE SMOOTH",
"231 0 OFFCURVE",
"324 -12 OFFCURVE",
"324 -12 CURVE"
);
},
{
closed = 1;
nodes = (
"236 570 LINE SMOOTH",
"237 588 OFFCURVE",
"244 592 OFFCURVE",
"272 592 CURVE SMOOTH",
"469 592 OFFCURVE",
"579 494 OFFCURVE",
"579 318 CURVE SMOOTH",
"579 145 OFFCURVE",
"491 39 OFFCURVE",
"347 39 CURVE SMOOTH",
"247 39 OFFCURVE",
"221 58 OFFCURVE",
"221 131 CURVE SMOOTH",
"226 304 LINE",
"396 304 LINE",
"402 336 LINE",
"397 343 LINE",
"227 343 LINE"
);
}
);
width = 713;
},
{
layerId = UUID1;
paths = (
{
closed = 1;
nodes = (
"556 -12 OFFCURVE",
"690 128 OFFCURVE",
"690 352 CURVE SMOOTH",
"690 551 OFFCURVE",
"583 653 OFFCURVE",
"373 653 CURVE SMOOTH",
"373 653 OFFCURVE",
"241 647 OFFCURVE",
"207 647 CURVE SMOOTH",
"166 647 OFFCURVE",
"55 650 OFFCURVE",
"55 650 CURVE",
"46 569 LINE",
"56 555 LINE",
"56 555 OFFCURVE",
"73 557 OFFCURVE",
"88 557 CURVE SMOOTH",
"107 557 OFFCURVE",
"113 545 OFFCURVE",
"113 503 CURVE SMOOTH",
"113 363 LINE",
"20 363 LINE",
"7 274 LINE",
"17 266 LINE",
"113 266 LINE",
"113 168 LINE SMOOTH",
"113 112 OFFCURVE",
"98 93 OFFCURVE",
"48 85 CURVE",
"40 -8 LINE",
"40 -8 OFFCURVE",
"127 0 OFFCURVE",
"183 0 CURVE SMOOTH",
"246 0 OFFCURVE",
"342 -12 OFFCURVE",
"342 -12 CURVE"
);
},
{
closed = 1;
nodes = (
"316 499 LINE SMOOTH",
"317 519 OFFCURVE",
"322 526 OFFCURVE",
"337 526 CURVE SMOOTH",
"432 526 OFFCURVE",
"461 477 OFFCURVE",
"461 314 CURVE SMOOTH",
"461 168 OFFCURVE",
"428 113 OFFCURVE",
"342 113 CURVE SMOOTH",
"314 113 OFFCURVE",
"306 123 OFFCURVE",
"306 162 CURVE SMOOTH",
"306 267 LINE",
"385 267 LINE",
"392 357 LINE",
"384 367 LINE",
"309 364 LINE"
);
}
);
width = 704;
}
);
leftKerningGroup = H;
rightKerningGroup = O;
unicode = 00D0;
},
{
color = 1;
glyphname = Dcroat;
layers = (
{
layerId = UUID0;
paths = (
{
closed = 1;
nodes = (
"518 -12 OFFCURVE",
"670 143 OFFCURVE",
"670 342 CURVE SMOOTH",
"670 516 OFFCURVE",
"533 641 OFFCURVE",
"341 641 CURVE SMOOTH",
"341 641 OFFCURVE",
"235 637 OFFCURVE",
"189 637 CURVE SMOOTH",
"151 637 OFFCURVE",
"84 640 OFFCURVE",
"84 640 CURVE",
"77 596 LINE",
"79 592 LINE",
"79 592 OFFCURVE",
"101 594 OFFCURVE",
"113 594 CURVE SMOOTH",
"143 594 OFFCURVE",
"150 583 OFFCURVE",
"150 540 CURVE SMOOTH",
"149 343 LINE",
"16 343 LINE",
"9 311 LINE",
"16 304 LINE",
"149 304 LINE",
"149 157 LINE SMOOTH",
"149 61 OFFCURVE",
"141 47 OFFCURVE",
"71 34 CURVE",
"65 -12 LINE",
"65 -12 OFFCURVE",
"130 0 OFFCURVE",
"180 0 CURVE SMOOTH",
"231 0 OFFCURVE",
"324 -12 OFFCURVE",
"324 -12 CURVE"
);
},
{
closed = 1;
nodes = (
"236 570 LINE SMOOTH",
"237 588 OFFCURVE",
"244 592 OFFCURVE",
"272 592 CURVE SMOOTH",
"469 592 OFFCURVE",
"579 494 OFFCURVE",
"579 318 CURVE SMOOTH",
"579 145 OFFCURVE",
"491 39 OFFCURVE",
"347 39 CURVE SMOOTH",
"247 39 OFFCURVE",
"221 58 OFFCURVE",
"221 131 CURVE SMOOTH",
"226 304 LINE",
"396 304 LINE",
"402 336 LINE",
"397 343 LINE",
"227 343 LINE"
);
}
);
width = 713;
},
{
layerId = UUID1;
paths = (
{
closed = 1;
nodes = (
"556 -12 OFFCURVE",
"690 128 OFFCURVE",
"690 352 CURVE SMOOTH",
"690 551 OFFCURVE",
"583 653 OFFCURVE",
"373 653 CURVE SMOOTH",
"373 653 OFFCURVE",
"241 647 OFFCURVE",
"207 647 CURVE SMOOTH",
"166 647 OFFCURVE",
"55 650 OFFCURVE",
"55 650 CURVE",
"46 569 LINE",
"56 555 LINE",
"56 555 OFFCURVE",
"73 557 OFFCURVE",
"88 557 CURVE SMOOTH",
"107 557 OFFCURVE",
"113 545 OFFCURVE",
"113 503 CURVE SMOOTH",
"113 363 LINE",
"20 363 LINE",
"7 274 LINE",
"17 266 LINE",
"113 266 LINE",
"113 168 LINE SMOOTH",
"113 112 OFFCURVE",
"98 93 OFFCURVE",
"48 85 CURVE",
"40 -8 LINE",
"40 -8 OFFCURVE",
"127 0 OFFCURVE",
"183 0 CURVE SMOOTH",
"246 0 OFFCURVE",
"342 -12 OFFCURVE",
"342 -12 CURVE"
);
},
{
closed = 1;
nodes = (
"316 499 LINE SMOOTH",
"317 519 OFFCURVE",
"322 526 OFFCURVE",
"337 526 CURVE SMOOTH",
"432 526 OFFCURVE",
"461 477 OFFCURVE",
"461 314 CURVE SMOOTH",
"461 168 OFFCURVE",
"428 113 OFFCURVE",
"342 113 CURVE SMOOTH",
"314 113 OFFCURVE",
"306 123 OFFCURVE",
"306 162 CURVE SMOOTH",
"306 267 LINE",
"385 267 LINE",
"392 357 LINE",
"384 367 LINE",
"309 364 LINE"
);
}
);
width = 704;
}
);
leftKerningGroup = D;
rightKerningGroup = O;
unicode = 0110;
},
{
color = 1;
glyphname = E;
layers = (
{
anchors = (
{
name = bottom;
position = "{318, 0}";
},
{
name = ogonek;
position = "{524, 40}";
},
{
name = top;
position = "{326, 647}";
}
);
background = {
paths = (
{
closed = 1;
nodes = (
"217 296 LINE",
"234 299 OFFCURVE",
"264 303 OFFCURVE",
"294 303 CURVE SMOOTH",
"348 303 OFFCURVE",
"434 300 OFFCURVE",
"434 300 CURVE",
"448 359 LINE",
"444 364 LINE",
"444 364 OFFCURVE",
"358 353 OFFCURVE",
"322 353 CURVE SMOOTH",
"292 353 OFFCURVE",
"241 354 OFFCURVE",
"219 354 CURVE",
"227 548 LINE",
"228 585 OFFCURVE",
"232 587 OFFCURVE",
"297 587 CURVE SMOOTH",
"438 587 OFFCURVE",
"450 581 OFFCURVE",
"450 516 CURVE SMOOTH",
"450 502 OFFCURVE",
"448 473 OFFCURVE",
"448 473 CURVE",
"496 477 LINE",
"502 569 OFFCURVE",
"519 643 OFFCURVE",
"519 643 CURVE",
"516 649 LINE",
"450 640 OFFCURVE",
"375 637 OFFCURVE",
"216 637 CURVE SMOOTH",
"156 637 OFFCURVE",
"77 640 OFFCURVE",
"77 640 CURVE",
"70 596 LINE",
"72 592 LINE",
"72 592 OFFCURVE",
"94 594 OFFCURVE",
"106 594 CURVE SMOOTH",
"136 594 OFFCURVE",
"143 583 OFFCURVE",
"143 540 CURVE SMOOTH",
"142 120 LINE SMOOTH",
"142 63 OFFCURVE",
"124 44 OFFCURVE",
"64 36 CURVE",
"58 -10 LINE",
"58 -10 OFFCURVE",
"121 0 OFFCURVE",
"197 0 CURVE SMOOTH",
"292 0 OFFCURVE",
"500 -7 OFFCURVE",
"500 -7 CURVE",
"505 -1 LINE",
"514 84 OFFCURVE",
"532 167 OFFCURVE",
"532 167 CURVE",
"529 172 LINE",
"485 167 LINE",
"469 57 OFFCURVE",
"450 45 OFFCURVE",
"292 45 CURVE SMOOTH",
"220 45 OFFCURVE",
"213 51 OFFCURVE",
"213 105 CURVE"
);
}
);
};
layerId = UUID0;
paths = (
{
closed = 1;
nodes = (
"97 -4 OFFCURVE",
"155 0 OFFCURVE",
"197 0 CURVE SMOOTH",
"252 0 OFFCURVE",
"380 -3 OFFCURVE",
"500 -7 CURVE",
"505 -1 LINE",
"511 53 OFFCURVE",
"523 125 OFFCURVE",
"532 167 CURVE",
"529 172 LINE",
"485 167 LINE",
"469 57 OFFCURVE",
"450 45 OFFCURVE",
"292 45 CURVE SMOOTH",
"220 45 OFFCURVE",
"213 51 OFFCURVE",
"213 105 CURVE",
"217 315 LINE",
"227 548 LINE",
"228 585 OFFCURVE",
"232 587 OFFCURVE",
"297 587 CURVE SMOOTH",
"438 587 OFFCURVE",
"450 581 OFFCURVE",
"450 516 CURVE SMOOTH",
"450 506 OFFCURVE",
"449 485 OFFCURVE",
"448 473 CURVE",
"496 477 LINE",
"499 527 OFFCURVE",
"508 594 OFFCURVE",
"519 643 CURVE",
"516 649 LINE",
"450 640 OFFCURVE",
"375 637 OFFCURVE",
"216 637 CURVE SMOOTH",
"172 637 OFFCURVE",
"111 639 OFFCURVE",
"77 640 CURVE",
"70 596 LINE",
"72 592 LINE",
"82 593 OFFCURVE",
"98 594 OFFCURVE",
"106 594 CURVE SMOOTH",
"136 594 OFFCURVE",
"143 583 OFFCURVE",
"143 540 CURVE SMOOTH",
"142 120 LINE SMOOTH",
"142 63 OFFCURVE",
"124 44 OFFCURVE",
"64 36 CURVE",
"58 -10 LINE"
);
},
{
closed = 1;
nodes = (
"231 299 OFFCURVE",
"269 303 OFFCURVE",
"294 303 CURVE SMOOTH",
"333 303 OFFCURVE",
"397 301 OFFCURVE",
"434 300 CURVE",
"448 359 LINE",
"444 364 LINE",
"399 358 OFFCURVE",
"344 353 OFFCURVE",
"322 353 CURVE SMOOTH",
"288 353 OFFCURVE",
"226 354 OFFCURVE",
"212 354 CURVE",
"203 294 LINE"
);
}
);
width = 591;
},
{
anchors = (
{
name = bottom;
position = "{318, 0}";
},
{
name = ogonek;
position = "{524, 40}";
},
{
name = top;
position = "{326, 647}";
}
);
background = {
paths = (
{
closed = 1;
nodes = (
"285 260 LINE",
"303 262 OFFCURVE",
"331 266 OFFCURVE",
"360 266 CURVE SMOOTH",
"394 266 OFFCURVE",
"448 264 OFFCURVE",
"480 263 CURVE",
"494 378 LINE",
"482 392 LINE",
"447 389 OFFCURVE",
"393 386 OFFCURVE",
"372 386 CURVE SMOOTH",
"344 386 OFFCURVE",
"309 387 OFFCURVE",
"290 387 CURVE",
"296 500 LINE",
"296 522 OFFCURVE",
"302 527 OFFCURVE",
"330 527 CURVE SMOOTH",
"411 527 OFFCURVE",
"428 517 OFFCURVE",
"428 472 CURVE SMOOTH",
"428 463 OFFCURVE",
"427 445 OFFCURVE",
"426 435 CURVE",
"564 444 LINE",
"567 503 OFFCURVE",
"577 589 OFFCURVE",
"587 643 CURVE",
"574 659 LINE",
"518 652 OFFCURVE",
"390 647 OFFCURVE",
"265 647 CURVE SMOOTH",
"199 647 OFFCURVE",
"93 649 OFFCURVE",
"32 650 CURVE",
"23 571 LINE",
"35 557 LINE",
"41 558 OFFCURVE",
"54 559 OFFCURVE",
"61 559 CURVE SMOOTH",
"83 559 OFFCURVE",
"88 549 OFFCURVE",
"88 505 CURVE SMOOTH",
"87 170 LINE SMOOTH",
"87 110 OFFCURVE",
"72 90 OFFCURVE",
"22 82 CURVE",
"13 -10 LINE",
"81 -4 OFFCURVE",
"167 0 OFFCURVE",
"224 0 CURVE SMOOTH",
"314 0 OFFCURVE",
"449 -3 OFFCURVE",
"545 -7 CURVE",
"560 9 LINE",
"566 73 OFFCURVE",
"577 158 OFFCURVE",
"588 215 CURVE",
"576 230 LINE",
"448 221 LINE",
"436 131 OFFCURVE",
"418 115 OFFCURVE",
"332 115 CURVE SMOOTH",
"290 115 OFFCURVE",
"284 123 OFFCURVE",
"284 175 CURVE"
);
}
);
};
layerId = UUID1;
paths = (
{
closed = 1;
nodes = (
"81 -4 OFFCURVE",
"167 0 OFFCURVE",
"224 0 CURVE SMOOTH",
"314 0 OFFCURVE",
"449 -3 OFFCURVE",
"545 -7 CURVE",
"560 9 LINE",
"566 73 OFFCURVE",
"577 158 OFFCURVE",
"588 215 CURVE",
"576 230 LINE",
"448 221 LINE",
"436 131 OFFCURVE",
"418 115 OFFCURVE",
"332 115 CURVE SMOOTH",
"290 115 OFFCURVE",
"284 123 OFFCURVE",
"284 175 CURVE",
"285 302 LINE",
"296 500 LINE",
"296 522 OFFCURVE",
"302 527 OFFCURVE",
"330 527 CURVE SMOOTH",
"411 527 OFFCURVE",
"428 517 OFFCURVE",
"428 472 CURVE SMOOTH",
"428 463 OFFCURVE",
"427 445 OFFCURVE",
"426 435 CURVE",
"564 444 LINE",
"567 503 OFFCURVE",
"577 589 OFFCURVE",
"587 643 CURVE",
"574 659 LINE",
"518 652 OFFCURVE",
"390 647 OFFCURVE",
"265 647 CURVE SMOOTH",
"199 647 OFFCURVE",
"93 649 OFFCURVE",
"32 650 CURVE",
"23 571 LINE",
"35 557 LINE",
"41 558 OFFCURVE",
"54 559 OFFCURVE",
"61 559 CURVE SMOOTH",
"83 559 OFFCURVE",
"88 549 OFFCURVE",
"88 505 CURVE SMOOTH",
"87 170 LINE SMOOTH",
"87 110 OFFCURVE",
"72 90 OFFCURVE",
"22 82 CURVE",
"13 -10 LINE"
);
},
{
closed = 1;
nodes = (
"291 260 OFFCURVE",
"325 266 OFFCURVE",
"360 266 CURVE SMOOTH",
"394 266 OFFCURVE",
"448 264 OFFCURVE",
"480 263 CURVE",
"494 378 LINE",
"482 392 LINE",
"447 389 OFFCURVE",
"393 386 OFFCURVE",
"372 386 CURVE SMOOTH",
"339 386 OFFCURVE",
"295 387 OFFCURVE",
"281 387 CURVE",
"275 259 LINE"
);
}
);
width = 603;
}
);
leftKerningGroup = H;
rightKerningGroup = E;
unicode = 0045;
},
{
color = 1;
glyphname = F;
layers = (
{
anchors = (
{
name = bottom;
position = "{182, 0}";
},
{
name = top;
position = "{318, 647}";
}
);
layerId = UUID0;
paths = (
{
closed = 1;
nodes = (
"58 -12 OFFCURVE",
"122 0 OFFCURVE",
"172 0 CURVE SMOOTH",
"226 0 OFFCURVE",
"321 -4 OFFCURVE",
"321 -4 CURVE",
"330 43 LINE",
"328 47 LINE",
"328 47 OFFCURVE",
"277 44 OFFCURVE",
"257 44 CURVE SMOOTH",
"222 44 OFFCURVE",
"213 58 OFFCURVE",
"213 112 CURVE",
"217 278 LINE",
"234 281 OFFCURVE",
"264 285 OFFCURVE",
"294 285 CURVE SMOOTH",
"341 285 OFFCURVE",
"417 282 OFFCURVE",
"417 282 CURVE",
"431 342 LINE",
"427 347 LINE",
"427 347 OFFCURVE",
"353 336 OFFCURVE",
"322 336 CURVE SMOOTH",
"219 337 LINE",
"227 548 LINE",
"228 585 OFFCURVE",
"232 587 OFFCURVE",
"297 587 CURVE SMOOTH",
"419 587 OFFCURVE",
"431 581 OFFCURVE",
"431 516 CURVE SMOOTH",
"431 502 OFFCURVE",
"429 470 OFFCURVE",
"429 470 CURVE",
"477 474 LINE",
"483 566 OFFCURVE",
"500 643 OFFCURVE",
"500 643 CURVE",
"497 649 LINE",
"434 640 OFFCURVE",
"353 637 OFFCURVE",
"216 637 CURVE SMOOTH",
"156 637 OFFCURVE",
"77 640 OFFCURVE",
"77 640 CURVE",
"70 596 LINE",
"72 592 LINE",
"72 592 OFFCURVE",
"94 594 OFFCURVE",
"106 594 CURVE SMOOTH",
"136 594 OFFCURVE",
"143 583 OFFCURVE",
"143 540 CURVE SMOOTH",
"142 120 LINE SMOOTH",
"142 64 OFFCURVE",
"126 46 OFFCURVE",
"64 34 CURVE",
"58 -12 LINE"
);
}
);
width = 512;
},
{
anchors = (
{
name = bottom;
position = "{182, 0}";
},
{
name = top;
position = "{318, 647}";
}
);
layerId = UUID1;
paths = (
{
closed = 1;
nodes = (
"13 -10 OFFCURVE",
"121 0 OFFCURVE",
"224 0 CURVE SMOOTH",
"271 0 OFFCURVE",
"387 -3 OFFCURVE",
"387 -3 CURVE",
"400 105 LINE",
"384 123 LINE",
"384 123 OFFCURVE",
"356 115 OFFCURVE",
"326 115 CURVE SMOOTH",
"292 115 OFFCURVE",
"284 127 OFFCURVE",
"284 175 CURVE",
"285 243 LINE",
"302 245 OFFCURVE",
"331 249 OFFCURVE",
"360 249 CURVE SMOOTH",
"404 249 OFFCURVE",
"475 246 OFFCURVE",
"475 246 CURVE",
"489 361 LINE",
"477 375 LINE",
"477 375 OFFCURVE",
"401 369 OFFCURVE",
"372 369 CURVE SMOOTH",
"289 370 LINE",
"296 500 LINE",
"296 522 OFFCURVE",
"302 527 OFFCURVE",
"330 527 CURVE SMOOTH",
"389 527 OFFCURVE",
"405 515 OFFCURVE",
"405 472 CURVE SMOOTH",
"405 460 OFFCURVE",
"403 436 OFFCURVE",
"403 436 CURVE",
"541 444 LINE",
"545 536 OFFCURVE",
"559 643 OFFCURVE",
"559 643 CURVE",
"546 659 LINE",
"495 652 OFFCURVE",
"379 647 OFFCURVE",
"265 647 CURVE SMOOTH",
"174 647 OFFCURVE",
"32 650 OFFCURVE",
"32 650 CURVE",
"23 571 LINE",
"35 557 LINE",
"35 557 OFFCURVE",
"50 559 OFFCURVE",
"61 559 CURVE SMOOTH",
"83 559 OFFCURVE",
"88 548 OFFCURVE",
"88 505 CURVE SMOOTH",
"87 170 LINE SMOOTH",
"87 110 OFFCURVE",
"72 90 OFFCURVE",
"22 82 CURVE",
"13 -10 LINE"
);
}
);
width = 554;
}
);
leftKerningGroup = H;
rightKerningGroup = F;
unicode = 0046;
},
{
color = 1;
glyphname = G;
layers = (
{
anchors = (
{
name = bottom;
position = "{334, 0}";
},
{
name = top;
position = "{373, 637}";
}
);
layerId = UUID0;
paths = (
{
closed = 1;
nodes = (
"459 -12 OFFCURVE",
"562 34 OFFCURVE",
"562 34 CURVE",
"568 43 LINE",
"564 60 OFFCURVE",
"561 96 OFFCURVE",
"561 131 CURVE SMOOTH",
"561 230 OFFCURVE",
"568 265 OFFCURVE",
"592 285 CURVE",
"588 307 LINE",
"588 307 OFFCURVE",
"545 302 OFFCURVE",
"502 302 CURVE SMOOTH",
"443 302 OFFCURVE",
"375 306 OFFCURVE",
"375 306 CURVE",
"366 256 LINE",
"368 252 LINE",
"368 252 OFFCURVE",
"414 252 OFFCURVE",
"437 252 CURVE SMOOTH",
"482 252 OFFCURVE",
"492 243 OFFCURVE",
"492 198 CURVE SMOOTH",
"492 76 LINE",
"492 76 OFFCURVE",
"435 38 OFFCURVE",
"355 38 CURVE SMOOTH",
"217 38 OFFCURVE",
"127 153 OFFCURVE",
"127 329 CURVE SMOOTH",
"127 495 OFFCURVE",
"216 590 OFFCURVE",
"368 590 CURVE SMOOTH",
"474 590 OFFCURVE",
"519 564 OFFCURVE",
"519 502 CURVE SMOOTH",
"519 475 OFFCURVE",
"516 448 OFFCURVE",
"516 448 CURVE",
"563 452 LINE",
"569 544 OFFCURVE",
"589 619 OFFCURVE",
"589 619 CURVE",
"585 625 LINE",
"585 625 OFFCURVE",
"474 649 OFFCURVE",
"391 649 CURVE SMOOTH",
"182 649 OFFCURVE",
"40 506 OFFCURVE",
"40 297 CURVE SMOOTH",
"40 108 OFFCURVE",
"154 -12 OFFCURVE",
"332 -12 CURVE SMOOTH"
);
}
);
width = 667;
},
{
anchors = (
{
name = bottom;
position = "{320, 0}";
},
{
name = top;
position = "{370, 647}";
}
);
layerId = UUID1;
paths = (
{
closed = 1;
nodes = (
"482 -11 OFFCURVE",
"562 22 OFFCURVE",
"562 22 CURVE",
"574 38 LINE",
"569 59 OFFCURVE",
"567 83 OFFCURVE",
"567 124 CURVE SMOOTH",
"567 255 OFFCURVE",
"573 275 OFFCURVE",
"619 301 CURVE",
"609 359 LINE",
"609 358 OFFCURVE",
"547 354 OFFCURVE",
"490 354 CURVE SMOOTH",
"439 354 OFFCURVE",
"388 354 OFFCURVE",
"337 354 CURVE",
"325 259 LINE",
"334 245 LINE",
"334 245 OFFCURVE",
"351 246 OFFCURVE",
"367 246 CURVE SMOOTH",
"392 246 OFFCURVE",
"399 237 OFFCURVE",
"399 205 CURVE SMOOTH",
"399 142 LINE",
"399 142 OFFCURVE",
"383 130 OFFCURVE",
"347 130 CURVE SMOOTH",
"274 130 OFFCURVE",
"243 195 OFFCURVE",
"243 347 CURVE SMOOTH",
"243 479 OFFCURVE",
"269 521 OFFCURVE",
"351 521 CURVE SMOOTH",
"397 521 OFFCURVE",
"410 506 OFFCURVE",
"410 457 CURVE SMOOTH",
"410 425 OFFCURVE",
"408 402 OFFCURVE",
"408 402 CURVE",
"562 411 LINE",
"568 528 OFFCURVE",
"590 613 OFFCURVE",
"590 613 CURVE",
"579 633 LINE",
"579 633 OFFCURVE",
"470 659 OFFCURVE",
"376 659 CURVE SMOOTH",
"141 659 OFFCURVE",
"15 538 OFFCURVE",
"15 311 CURVE SMOOTH",
"15 108 OFFCURVE",
"128 -11 OFFCURVE",
"320 -11 CURVE SMOOTH"
);
}
);
width = 639;
}
);
leftKerningGroup = O;
rightKerningGroup = G;
unicode = 0047;
},
{
color = 1;
glyphname = H;
layers = (
{
anchors = (
{
name = bottom;
position = "{377, 0}";
},
{
name = bottomright;
position = "{606, 106}";
},
{
name = center;
position = "{377, 319}";
},
{
name = top;
position = "{377, 637}";
},
{
name = topleft;
position = "{20, 637}";
}
);
background = {
paths = (
{
closed = 1;
nodes = (
"545 450 OFFCURVE",
"555 459 OFFCURVE",
"596 464 CURVE",
"599 505 LINE",
"599 505 OFFCURVE",
"534 498 OFFCURVE",
"495 498 CURVE SMOOTH",
"467 498 OFFCURVE",
"409 499 OFFCURVE",
"409 500 CURVE",
"403 462 LINE",
"405 458 LINE",
"405 458 OFFCURVE",
"423 459 OFFCURVE",
"433 459 CURVE SMOOTH",
"457 459 OFFCURVE",
"463 451 OFFCURVE",
"463 417 CURVE SMOOTH",
"462 283 LINE",
"418 278 OFFCURVE",
"387 276 OFFCURVE",
"347 276 CURVE",
"217 277 LINE",
"222 398 LINE SMOOTH",
"225 449 OFFCURVE",
"229 457 OFFCURVE",
"275 464 CURVE",
"279 505 LINE",
"279 505 OFFCURVE",
"219 498 OFFCURVE",
"182 498 CURVE SMOOTH",
"150 498 OFFCURVE",
"89 500 OFFCURVE",
"89 500 CURVE",
"83 462 LINE",
"86 458 LINE",
"86 458 OFFCURVE",
"103 459 OFFCURVE",
"113 459 CURVE SMOOTH",
"137 459 OFFCURVE",
"143 451 OFFCURVE",
"143 417 CURVE SMOOTH",
"142 99 LINE SMOOTH",
"142 55 OFFCURVE",
"129 41 OFFCURVE",
"79 32 CURVE",
"74 -9 LINE",
"76 -5 OFFCURVE",
"152 0 OFFCURVE",
"200 0 CURVE SMOOTH",
"230 0 OFFCURVE",
"278 -2 OFFCURVE",
"278 -2 CURVE",
"285 38 LINE",
"283 42 LINE",
"283 42 OFFCURVE",
"264 39 OFFCURVE",
"248 39 CURVE SMOOTH",
"220 39 OFFCURVE",
"213 50 OFFCURVE",
"213 93 CURVE SMOOTH",
"216 223 LINE",
"216 223 OFFCURVE",
"321 231 OFFCURVE",
"347 231 CURVE SMOOTH",
"382 231 OFFCURVE",
"462 230 OFFCURVE",
"462 230 CURVE",
"462 118 LINE SMOOTH",
"462 54 OFFCURVE",
"451 39 OFFCURVE",
"401 39 CURVE",
"393 -1 LINE",
"393 -1 OFFCURVE",
"463 0 OFFCURVE",
"493 0 CURVE SMOOTH",
"533 0 OFFCURVE",
"598 -2 OFFCURVE",
"598 -2 CURVE",
"606 38 LINE",
"603 42 LINE",
"603 42 OFFCURVE",
"584 40 OFFCURVE",
"568 40 CURVE SMOOTH",
"540 40 OFFCURVE",
"533 51 OFFCURVE",
"533 93 CURVE SMOOTH",
"533 163 OFFCURVE",
"538 314 OFFCURVE",
"544 420 CURVE SMOOTH"
);
}
);
};
layerId = UUID0;
paths = (
{
closed = 1;
nodes = (
"60 -7 OFFCURVE",
"149 0 OFFCURVE",
"210 0 CURVE SMOOTH",
"240 0 OFFCURVE",
"295 -2 OFFCURVE",
"295 -3 CURVE",
"304 43 LINE",
"302 47 LINE",
"291 46 OFFCURVE",
"272 44 OFFCURVE",
"257 44 CURVE SMOOTH",
"222 44 OFFCURVE",
"213 58 OFFCURVE",
"213 112 CURVE SMOOTH",
"217 291 LINE",
"284 297 OFFCURVE",
"363 302 OFFCURVE",
"383 302 CURVE SMOOTH",
"417 302 OFFCURVE",
"489 301 OFFCURVE",
"535 301 CURVE",
"535 150 LINE SMOOTH",
"535 62 OFFCURVE",
"522 44 OFFCURVE",
"459 43 CURVE",
"450 -2 LINE",
"486 -1 OFFCURVE",
"540 0 OFFCURVE",
"565 0 CURVE SMOOTH",
"597 0 OFFCURVE",
"654 -2 OFFCURVE",
"688 -3 CURVE",
"697 43 LINE",
"695 47 LINE",
"684 46 OFFCURVE",
"665 44 OFFCURVE",
"650 44 CURVE SMOOTH",
"615 44 OFFCURVE",
"606 57 OFFCURVE",
"606 106 CURVE SMOOTH",
"606 191 OFFCURVE",
"612 389 OFFCURVE",
"620 544 CURVE SMOOTH",
"622 583 OFFCURVE",
"635 594 OFFCURVE",
"684 601 CURVE",
"688 646 LINE",
"648 641 OFFCURVE",
"597 637 OFFCURVE",
"568 637 CURVE SMOOTH",
"536 637 OFFCURVE",
"470 639 OFFCURVE",
"470 640 CURVE",
"463 596 LINE",
"465 592 LINE",
"475 593 OFFCURVE",
"490 594 OFFCURVE",
"499 594 CURVE SMOOTH",
"529 594 OFFCURVE",
"536 583 OFFCURVE",
"536 540 CURVE SMOOTH",
"535 358 LINE",
"467 350 OFFCURVE",
"431 348 OFFCURVE",
"387 348 CURVE",
"219 349 LINE",
"225 511 LINE SMOOTH",
"228 583 OFFCURVE",
"235 592 OFFCURVE",
"291 601 CURVE",
"295 646 LINE",
"259 641 OFFCURVE",
"213 637 OFFCURVE",
"188 637 CURVE SMOOTH",
"160 637 OFFCURVE",
"108 639 OFFCURVE",
"77 640 CURVE",
"70 596 LINE",
"72 592 LINE",
"82 593 OFFCURVE",
"98 594 OFFCURVE",
"106 594 CURVE SMOOTH",
"136 594 OFFCURVE",
"143 583 OFFCURVE",
"143 540 CURVE SMOOTH",
"142 120 LINE SMOOTH",
"142 64 OFFCURVE",
"126 46 OFFCURVE",
"64 34 CURVE",
"58 -12 LINE"
);
}
);
width = 754;
},
{
anchors = (
{
name = bottom;
position = "{370, 0}";
},
{
name = bottomright;
position = "{654, 172}";
},
{
name = center;
position = "{370, 324}";
},
{
name = top;
position = "{370, 647}";
},
{
name = topleft;
position = "{20, 647}";
}
);
layerId = UUID1;
paths = (
{
closed = 1;
nodes = (
"85 -2 OFFCURVE",
"148 0 OFFCURVE",
"181 0 CURVE SMOOTH",
"211 0 OFFCURVE",
"290 -2 OFFCURVE",
"343 -4 CURVE",
"352 80 LINE",
"344 90 LINE",
"337 88 OFFCURVE",
"326 87 OFFCURVE",
"317 87 CURVE SMOOTH",
"291 87 OFFCURVE",
"285 100 OFFCURVE",
"285 156 CURVE SMOOTH",
"285 256 LINE",
"332 261 OFFCURVE",
"384 265 OFFCURVE",
"398 265 CURVE SMOOTH",
"416 265 OFFCURVE",
"442 264 OFFCURVE",
"457 264 CURVE",
"457 162 LINE SMOOTH",
"457 108 OFFCURVE",
"439 87 OFFCURVE",
"391 86 CURVE",
"383 -1 LINE",
"435 -1 OFFCURVE",
"515 0 OFFCURVE",
"549 0 CURVE SMOOTH",
"603 0 OFFCURVE",
"677 -1 OFFCURVE",
"720 -2 CURVE",
"729 81 LINE",
"721 92 LINE",
"715 91 OFFCURVE",
"704 89 OFFCURVE",
"693 89 CURVE SMOOTH",
"663 89 OFFCURVE",
"654 108 OFFCURVE",
"654 172 CURVE SMOOTH",
"654 293 OFFCURVE",
"658 434 OFFCURVE",
"664 510 CURVE SMOOTH",
"666 547 OFFCURVE",
"676 556 OFFCURVE",
"724 564 CURVE",
"731 652 LINE",
"637 649 OFFCURVE",
"577 647 OFFCURVE",
"555 647 CURVE SMOOTH",
"516 647 OFFCURVE",
"440 647 OFFCURVE",
"394 647 CURVE",
"386 572 LINE",
"395 558 LINE",
"402 558 OFFCURVE",
"414 559 OFFCURVE",
"422 559 CURVE SMOOTH",
"450 559 OFFCURVE",
"457 548 OFFCURVE",
"457 508 CURVE SMOOTH",
"457 389 LINE",
"434 387 OFFCURVE",
"411 386 OFFCURVE",
"373 386 CURVE",
"288 389 LINE",
"294 510 LINE SMOOTH",
"296 546 OFFCURVE",
"304 554 OFFCURVE",
"347 562 CURVE",
"354 652 LINE",
"258 649 OFFCURVE",
"186 647 OFFCURVE",
"155 647 CURVE SMOOTH",
"124 647 OFFCURVE",
"63 647 OFFCURVE",
"26 647 CURVE",
"18 572 LINE",
"27 558 LINE",
"33 558 OFFCURVE",
"45 559 OFFCURVE",
"53 559 CURVE SMOOTH",
"81 559 OFFCURVE",
"88 549 OFFCURVE",
"88 508 CURVE SMOOTH",
"88 162 LINE SMOOTH",
"88 106 OFFCURVE",
"76 91 OFFCURVE",
"23 80 CURVE",
"15 -5 LINE"
);
}
);
width = 739;
}
);
leftKerningGroup = H;
rightKerningGroup = H;
unicode = 0048;
},
{
color = 0;
glyphname = Hbar;
layers = (
{
anchors = (
{
name = bottom;
position = "{376, 0}";
},
{
name = center;
position = "{368, 324}";
},
{
name = top;
position = "{371, 647}";
}
);
components = (
{
alignment = 1;
name = H;
transform = "{1, 0, 0, 1, -2, 0}";
}
);
layerId = UUID0;
paths = (
{
closed = 1;
nodes = (
"51 448 OFFCURVE",
"233 449 OFFCURVE",
"374 449 CURVE SMOOTH",
"703 450 LINE",
"707 487 LINE",
"694 500 LINE",
"694 500 OFFCURVE",
"516 495 OFFCURVE",
"396 495 CURVE SMOOTH",
"256 495 OFFCURVE",
"49 496 OFFCURVE",
"49 496 CURVE",
"42 457 LINE",
"51 448 LINE"
);
}
);
width = 750;
},
{
anchors = (
{
name = bottom;
position = "{378, 0}";
},
{
name = center;
position = "{370, 324}";
},
{
name = top;
position = "{373, 647}";
}
);
components = (
{
alignment = 1;
name = H;
}
);
layerId = UUID1;
paths = (
{
closed = 1;
nodes = (
"6 436 OFFCURVE",
"210 437 OFFCURVE",
"376 437 CURVE SMOOTH",
"743 438 LINE",
"748 493 LINE",
"733 508 LINE",
"733 508 OFFCURVE",
"543 503 OFFCURVE",
"402 503 CURVE SMOOTH",
"237 503 OFFCURVE",
"3 504 OFFCURVE",
"3 504 CURVE",
"-5 446 LINE",
"6 436 LINE"
);
}
);
width = 739;
}
);
leftKerningGroup = H;
rightKerningGroup = H;
unicode = 0126;
},
{
color = 1;
glyphname = I;
layers = (
{
anchors = (
{
name = bottom;
position = "{181, 0}";
},
{
name = ogonek;
position = "{244, 40}";
},
{
name = top;
position = "{181, 637}";
},
{
name = topleft;
position = "{20, 637}";
}
);
layerId = UUID0;
paths = (
{
closed = 1;
nodes = (
"95 -5 OFFCURVE",
"143 0 OFFCURVE",
"172 0 CURVE SMOOTH",
"206 0 OFFCURVE",
"267 -2 OFFCURVE",
"303 -3 CURVE",
"312 43 LINE",
"310 47 LINE",
"298 46 OFFCURVE",
"275 44 OFFCURVE",
"257 44 CURVE SMOOTH",
"222 44 OFFCURVE",
"213 58 OFFCURVE",
"213 112 CURVE SMOOTH",
"213 195 OFFCURVE",
"220 398 OFFCURVE",
"227 544 CURVE SMOOTH",
"229 582 OFFCURVE",
"244 594 OFFCURVE",
"299 601 CURVE",
"303 646 LINE",
"264 641 OFFCURVE",
"216 637 OFFCURVE",
"188 637 CURVE SMOOTH",
"158 637 OFFCURVE",
"103 639 OFFCURVE",
"69 640 CURVE",
"62 596 LINE",
"64 592 LINE",
"77 593 OFFCURVE",
"96 594 OFFCURVE",
"106 594 CURVE SMOOTH",
"135 594 OFFCURVE",
"143 583 OFFCURVE",
"143 540 CURVE SMOOTH",
"142 120 LINE SMOOTH",
"142 64 OFFCURVE",
"125 46 OFFCURVE",
"62 34 CURVE",
"56 -12 LINE"
);
}
);
width = 361;
},
{
anchors = (
{
name = bottom;
position = "{185, 0}";
},
{
name = ogonek;
position = "{281, 40}";
},
{
name = top;
position = "{185, 647}";
},
{
name = topleft;
position = "{20, 647}";
}
);
layerId = UUID1;
paths = (
{
closed = 1;
nodes = (
"82 -2 OFFCURVE",
"147 0 OFFCURVE",
"181 0 CURVE SMOOTH",
"211 0 OFFCURVE",
"293 -2 OFFCURVE",
"348 -4 CURVE",
"357 80 LINE",
"349 90 LINE",
"340 88 OFFCURVE",
"327 87 OFFCURVE",
"317 87 CURVE SMOOTH",
"291 87 OFFCURVE",
"285 100 OFFCURVE",
"285 156 CURVE SMOOTH",
"285 275 OFFCURVE",
"289 406 OFFCURVE",
"295 510 CURVE SMOOTH",
"298 547 OFFCURVE",
"306 555 OFFCURVE",
"352 562 CURVE",
"359 652 LINE",
"270 649 OFFCURVE",
"209 647 OFFCURVE",
"187 647 CURVE SMOOTH",
"133 647 OFFCURVE",
"80 647 OFFCURVE",
"26 647 CURVE",
"18 572 LINE",
"27 558 LINE",
"33 558 OFFCURVE",
"45 559 OFFCURVE",
"53 559 CURVE SMOOTH",
"81 559 OFFCURVE",
"88 549 OFFCURVE",
"88 508 CURVE SMOOTH",
"88 162 LINE SMOOTH",
"88 107 OFFCURVE",
"77 92 OFFCURVE",
"23 80 CURVE",
"15 -5 LINE"
);
}
);
width = 370;
}
);
leftKerningGroup = H;
rightKerningGroup = H;
unicode = 0049;
},
{
color = 1;
glyphname = J;
layers = (
{
anchors = (
{
name = bottom;
position = "{143, 0}";
},
{
name = top;
position = "{168, 647}";
}
);
layerId = UUID0;
paths = (
{
closed = 1;
nodes = (
"153 -98 OFFCURVE",
"202 -20 OFFCURVE",
"203 116 CURVE SMOOTH",
"204 198 OFFCURVE",
"212 455 OFFCURVE",
"216 544 CURVE SMOOTH",
"218 586 OFFCURVE",
"226 594 OFFCURVE",
"273 601 CURVE",
"277 646 LINE",
"277 646 OFFCURVE",
"204 637 OFFCURVE",
"161 637 CURVE SMOOTH",
"53 637 LINE",
"46 593 LINE",
"48 589 LINE",
"48 589 OFFCURVE",
"83 593 OFFCURVE",
"95 593 CURVE SMOOTH",
"125 593 OFFCURVE",
"132 583 OFFCURVE",
"132 540 CURVE SMOOTH",
"131 115 LINE SMOOTH",
"131 -5 OFFCURVE",
"107 -54 OFFCURVE",
"26 -103 CURVE",
"23 -111 LINE",
"40 -144 LINE"
);
}
);
width = 327;
},
{
anchors = (
{
name = bottom;
position = "{143, 0}";
},
{
name = top;
position = "{168, 647}";
}
);
layerId = UUID1;
paths = (
{
closed = 1;
nodes = (
"202 -120 OFFCURVE",
"275 -43 OFFCURVE",
"275 85 CURVE SMOOTH",
"275 222 OFFCURVE",
"281 418 OFFCURVE",
"287 510 CURVE SMOOTH",
"290 547 OFFCURVE",
"295 553 OFFCURVE",
"334 562 CURVE",
"342 655 LINE",
"342 655 OFFCURVE",
"249 649 OFFCURVE",
"152 648 CURVE SMOOTH",
"11 647 LINE",
"3 571 LINE",
"12 557 LINE",
"12 557 OFFCURVE",
"33 559 OFFCURVE",
"48 559 CURVE SMOOTH",
"74 559 OFFCURVE",
"80 549 OFFCURVE",
"80 508 CURVE SMOOTH",
"80 132 LINE SMOOTH",
"80 2 OFFCURVE",
"65 -39 OFFCURVE",
"-3 -101 CURVE",
"-5 -116 LINE",
"35 -164 LINE"
);
}
);
width = 339;
}
);
leftKerningGroup = J;
rightKerningGroup = J;
unicode = 004A;
},
{
color = 1;
glyphname = K;
layers = (
{
anchors = (
{
name = bottom;
position = "{372, 0}";
},
{
name = top;
position = "{373, 647}";
}
);
layerId = UUID0;
paths = (
{
closed = 1;
nodes = (
"242 315 LINE",
"417 72 LINE SMOOTH",
"456 18 OFFCURVE",
"496 -14 OFFCURVE",
"529 -14 CURVE SMOOTH",
"540 -14 OFFCURVE",
"612 -2 OFFCURVE",
"612 -2 CURVE",
"618 32 LINE",
"614 36 LINE",
"567 36 OFFCURVE",
"534 59 OFFCURVE",
"486 121 CURVE SMOOTH",
"318 340 LINE",
"479 509 LINE SMOOTH",
"539 571 OFFCURVE",
"559 586 OFFCURVE",
"594 593 CURVE",
"601 634 LINE",
"597 641 LINE",
"597 641 OFFCURVE",
"544 637 OFFCURVE",
"505 637 CURVE SMOOTH",
"468 637 OFFCURVE",
"395 644 OFFCURVE",
"395 644 CURVE",
"388 601 LINE",
"390 597 LINE",
"433 594 OFFCURVE",
"453 584 OFFCURVE",
"453 567 CURVE SMOOTH",
"453 553 OFFCURVE",
"443 536 OFFCURVE",
"422 515 CURVE SMOOTH",
"243 329 LINE"
);
},
{
closed = 1;
nodes = (
"142 120 LINE SMOOTH",
"142 63 OFFCURVE",
"129 50 OFFCURVE",
"67 44 CURVE",
"57 -1 LINE",
"57 -1 OFFCURVE",
"122 0 OFFCURVE",
"172 0 CURVE SMOOTH",
"216 0 OFFCURVE",
"295 -3 OFFCURVE",
"295 -3 CURVE",
"304 43 LINE",
"302 47 LINE",
"302 47 OFFCURVE",
"277 44 OFFCURVE",
"257 44 CURVE SMOOTH",
"222 44 OFFCURVE",
"211 58 OFFCURVE",
"213 112 CURVE SMOOTH",
"225 541 LINE SMOOTH",
"226 579 OFFCURVE",
"241 593 OFFCURVE",
"291 601 CURVE",
"295 646 LINE",
"295 646 OFFCURVE",
"231 637 OFFCURVE",
"188 637 CURVE SMOOTH",
"150 637 OFFCURVE",
"77 640 OFFCURVE",
"77 640 CURVE",
"70 596 LINE",
"72 592 LINE",
"72 592 OFFCURVE",
"94 594 OFFCURVE",
"106 594 CURVE SMOOTH",
"136 594 OFFCURVE",
"143 583 OFFCURVE",
"143 540 CURVE SMOOTH"
);
}
);
width = 628;
},
{
anchors = (
{
name = bottom;
position = "{372, 0}";
},
{
name = top;
position = "{373, 647}";
}
);
layerId = UUID1;
paths = (
{
closed = 1;
nodes = (
"294 317 LINE",
"420 65 LINE SMOOTH",
"451 4 OFFCURVE",
"478 -16 OFFCURVE",
"530 -16 CURVE SMOOTH",
"555 -16 OFFCURVE",
"683 -5 OFFCURVE",
"683 -5 CURVE",
"694 69 LINE",
"684 84 LINE",
"642 90 OFFCURVE",
"616 116 OFFCURVE",
"586 174 CURVE SMOOTH",
"492 356 LINE",
"534 415 LINE SMOOTH",
"587 489 OFFCURVE",
"632 534 OFFCURVE",
"681 562 CURVE",
"690 637 LINE",
"681 652 LINE",
"681 652 OFFCURVE",
"573 647 OFFCURVE",
"537 647 CURVE SMOOTH",
"491 647 OFFCURVE",
"394 650 OFFCURVE",
"394 650 CURVE",
"385 568 LINE",
"391 558 LINE",
"422 556 OFFCURVE",
"432 548 OFFCURVE",
"432 526 CURVE SMOOTH",
"432 511 OFFCURVE",
"424 493 OFFCURVE",
"411 480 CURVE SMOOTH",
"299 347 LINE"
);
},
{
closed = 1;
nodes = (
"88 162 LINE SMOOTH",
"88 106 OFFCURVE",
"76 91 OFFCURVE",
"23 80 CURVE",
"15 -5 LINE",
"15 -5 OFFCURVE",
"118 0 OFFCURVE",
"181 0 CURVE SMOOTH",
"223 0 OFFCURVE",
"348 -4 OFFCURVE",
"348 -4 CURVE",
"357 80 LINE",
"349 90 LINE",
"349 90 OFFCURVE",
"338 87 OFFCURVE",
"317 87 CURVE SMOOTH",
"291 87 OFFCURVE",
"284 100 OFFCURVE",
"285 156 CURVE SMOOTH",
"292 506 LINE SMOOTH",
"293 541 OFFCURVE",
"303 550 OFFCURVE",
"352 562 CURVE",
"359 652 LINE",
"359 652 OFFCURVE",
"230 647 OFFCURVE",
"187 647 CURVE SMOOTH",
"169 647 OFFCURVE",
"27 648 OFFCURVE",
"27 648 CURVE",
"18 572 LINE",
"27 558 LINE",
"27 558 OFFCURVE",
"42 559 OFFCURVE",
"53 559 CURVE SMOOTH",
"81 559 OFFCURVE",
"88 549 OFFCURVE",
"88 508 CURVE SMOOTH"
);
}
);
width = 693;
}
);
leftKerningGroup = H;
rightKerningGroup = X;
unicode = 004B;
},
{
color = 1;
glyphname = L;
layers = (
{
anchors = (
{
name = bottom;
position = "{287, 0}";
},
{
name = top;
position = "{190, 647}";
}
);
layerId = UUID0;
paths = (
{
closed = 1;
nodes = (
"68 -10 OFFCURVE",
"127 0 OFFCURVE",
"202 0 CURVE SMOOTH",
"297 0 OFFCURVE",
"471 -9 OFFCURVE",
"471 -9 CURVE",
"476 -3 LINE",
"487 96 OFFCURVE",
"505 187 OFFCURVE",
"505 187 CURVE",
"502 192 LINE",
"458 187 LINE",
"436 64 OFFCURVE",
"415 45 OFFCURVE",
"299 45 CURVE SMOOTH",
"224 45 OFFCURVE",
"214 54 OFFCURVE",
"214 122 CURVE SMOOTH",
"214 213 OFFCURVE",
"217 383 OFFCURVE",
"226 508 CURVE SMOOTH",
"231 575 OFFCURVE",
"225 592 OFFCURVE",
"292 601 CURVE",
"296 646 LINE",
"296 646 OFFCURVE",
"232 637 OFFCURVE",
"189 637 CURVE SMOOTH",
"151 637 OFFCURVE",
"77 640 OFFCURVE",
"77 640 CURVE",
"70 596 LINE",
"72 592 LINE",
"72 592 OFFCURVE",
"94 594 OFFCURVE",
"106 594 CURVE SMOOTH",
"136 594 OFFCURVE",
"143 583 OFFCURVE",
"143 540 CURVE SMOOTH",
"142 120 LINE SMOOTH",
"142 63 OFFCURVE",
"126 44 OFFCURVE",
"74 36 CURVE",
"68 -10 LINE"
);
}
);
width = 507;
},
{
anchors = (
{
name = bottom;
position = "{287, 0}";
},
{
name = top;
position = "{190, 647}";
}
);
layerId = UUID1;
paths = (
{
closed = 1;
nodes = (
"13 -10 OFFCURVE",
"121 0 OFFCURVE",
"224 0 CURVE SMOOTH",
"367 0 OFFCURVE",
"518 -7 OFFCURVE",
"518 -7 CURVE",
"533 9 LINE",
"542 148 OFFCURVE",
"557 276 OFFCURVE",
"557 276 CURVE",
"545 291 LINE",
"417 278 LINE",
"410 144 OFFCURVE",
"392 115 OFFCURVE",
"321 115 CURVE SMOOTH",
"294 115 OFFCURVE",
"284 127 OFFCURVE",
"284 158 CURVE SMOOTH",
"284 310 OFFCURVE",
"288 412 OFFCURVE",
"294 502 CURVE SMOOTH",
"296 537 OFFCURVE",
"313 547 OFFCURVE",
"382 554 CURVE",
"393 652 LINE",
"393 652 OFFCURVE",
"234 647 OFFCURVE",
"186 647 CURVE SMOOTH",
"132 647 OFFCURVE",
"79 647 OFFCURVE",
"25 647 CURVE",
"17 572 LINE",
"26 558 LINE",
"26 558 OFFCURVE",
"41 559 OFFCURVE",
"52 559 CURVE SMOOTH",
"80 559 OFFCURVE",
"87 549 OFFCURVE",
"87 508 CURVE SMOOTH",
"87 170 LINE SMOOTH",
"87 110 OFFCURVE",
"72 90 OFFCURVE",
"22 82 CURVE",
"13 -10 LINE"
);
}
);
width = 557;
}
);
leftKerningGroup = H;
rightKerningGroup = L;
unicode = 004C;
},
{
color = 0;
glyphname = Lcaron;
layers = (
{
components = (
{
alignment = -1;
name = L;
}
);
layerId = UUID0;
paths = (
{
closed = 1;
nodes = (
"452 413 LINE",
"473 515 OFFCURVE",
"487 625 OFFCURVE",
"487 625 CURVE",
"480 633 LINE",
"410 619 LINE",
"410 619 OFFCURVE",
"420 511 OFFCURVE",
"416 401 CURVE",
"427 399 LINE"
);
}
);
width = 507;
},
{
components = (
{
alignment = -1;
name = L;
}
);
layerId = UUID1;
paths = (
{
closed = 1;
nodes = (
"532 414 LINE",
"558 526 OFFCURVE",
"574 635 OFFCURVE",
"574 635 CURVE",
"565 647 LINE",
"431 633 LINE",
"431 633 OFFCURVE",
"442 515 OFFCURVE",
"440 395 CURVE",
"459 389 LINE"
);
}
);
width = 570;
}
);
leftKerningGroup = H;
rightKerningGroup = L;
unicode = 013D;
},
{
color = 0;
glyphname = Lslash;
layers = (
{
components = (
{
alignment = -1;
name = L;
}
);
layerId = UUID0;
paths = (
{
closed = 1;
nodes = (
"190 315 LINE",
"190 309 LINE",
"411 418 LINE",
"406 449 LINE",
"398 454 LINE",
"190 351 LINE",
"190 357 LINE",
"61 293 LINE",
"66 261 LINE",
"75 258 LINE"
);
}
);
width = 551;
},
{
components = (
{
alignment = -1;
name = L;
transform = "{1, 0, 0, 1, 25, 0}";
}
);
layerId = UUID1;
paths = (
{
closed = 1;
nodes = (
"217 290 LINE",
"217 268 LINE",
"437 378 LINE",
"406 471 LINE",
"397 475 LINE",
"217 385 LINE",
"217 407 LINE",
"15 306 LINE",
"46 212 LINE",
"56 210 LINE"
);
}
);
width = 582;
}
);
leftKerningGroup = H;
rightKerningGroup = L;
unicode = 0141;
},
{
color = 1;
glyphname = M;
layers = (
{
anchors = (
{
name = bottom;
position = "{402, 0}";
},
{
name = top;
position = "{418, 647}";
}
);
background = {
paths = (
{
closed = 1;
nodes = (
"421 -12 LINE",
"485 165 OFFCURVE",
"550 343 OFFCURVE",
"614 520 CURVE",
"619 520 LINE",
"619 520 OFFCURVE",
"653 122 OFFCURVE",
"653 88 CURVE SMOOTH",
"653 58 OFFCURVE",
"635 43 OFFCURVE",
"594 38 CURVE",
"590 -8 LINE",
"590 -8 OFFCURVE",
"651 0 OFFCURVE",
"694 0 CURVE SMOOTH",
"730 0 OFFCURVE",
"789 -3 OFFCURVE",
"789 -3 CURVE",
"798 42 LINE",
"796 46 LINE",
"796 46 OFFCURVE",
"780 44 OFFCURVE",
"768 44 CURVE SMOOTH",
"736 44 OFFCURVE",
"728 61 OFFCURVE",
"719 139 CURVE",
"708 279 OFFCURVE",
"693 518 OFFCURVE",
"693 547 CURVE SMOOTH",
"693 580 OFFCURVE",
"714 595 OFFCURVE",
"772 602 CURVE",
"777 639 LINE",
"775 643 LINE",
"775 643 OFFCURVE",
"697 637 OFFCURVE",
"667 637 CURVE SMOOTH",
"647 637 OFFCURVE",
"601 640 OFFCURVE",
"601 639 CURVE",
"506 352 OFFCURVE",
"428 145 OFFCURVE",
"428 145 CURVE",
"423 145 LINE",
"423 145 OFFCURVE",
"344 350 OFFCURVE",
"254 641 CURVE",
"254 641 OFFCURVE",
"215 637 OFFCURVE",
"186 637 CURVE SMOOTH",
"154 637 OFFCURVE",
"77 642 OFFCURVE",
"77 642 CURVE",
"69 607 LINE",
"72 602 LINE",
"133 598 OFFCURVE",
"159 582 OFFCURVE",
"159 547 CURVE SMOOTH",
"159 517 OFFCURVE",
"123 188 OFFCURVE",
"115 115 CURVE SMOOTH",
"109 61 OFFCURVE",
"93 43 OFFCURVE",
"51 38 CURVE",
"46 -8 LINE",
"46 -8 OFFCURVE",
"92 0 OFFCURVE",
"132 0 CURVE SMOOTH",
"165 0 OFFCURVE",
"229 -4 OFFCURVE",
"229 -4 CURVE",
"238 41 LINE",
"236 45 LINE",
"236 45 OFFCURVE",
"205 44 OFFCURVE",
"195 44 CURVE SMOOTH",
"174 44 OFFCURVE",
"164 54 OFFCURVE",
"164 75 CURVE SMOOTH",
"164 101 OFFCURVE",
"198 520 OFFCURVE",
"198 520 CURVE",
"203 520 LINE",
"268 340 OFFCURVE",
"332 161 OFFCURVE",
"397 -19 CURVE"
);
}
);
};
layerId = UUID0;
paths = (
{
closed = 1;
nodes = (
"421 -12 LINE",
"485 165 OFFCURVE",
"550 343 OFFCURVE",
"614 520 CURVE",
"619 520 LINE",
"619 520 OFFCURVE",
"653 122 OFFCURVE",
"653 88 CURVE SMOOTH",
"653 58 OFFCURVE",
"635 43 OFFCURVE",
"594 38 CURVE",
"590 -8 LINE",
"590 -8 OFFCURVE",
"651 0 OFFCURVE",
"694 0 CURVE SMOOTH",
"730 0 OFFCURVE",
"789 -3 OFFCURVE",
"789 -3 CURVE",
"798 42 LINE",
"796 46 LINE",
"796 46 OFFCURVE",
"780 44 OFFCURVE",
"768 44 CURVE SMOOTH",
"736 44 OFFCURVE",
"728 61 OFFCURVE",
"719 139 CURVE",
"708 279 OFFCURVE",
"693 518 OFFCURVE",
"693 547 CURVE SMOOTH",
"693 580 OFFCURVE",
"714 595 OFFCURVE",
"772 602 CURVE",
"777 639 LINE",
"775 643 LINE",
"775 643 OFFCURVE",
"697 637 OFFCURVE",
"667 637 CURVE SMOOTH",
"647 637 OFFCURVE",
"601 640 OFFCURVE",
"601 639 CURVE",
"506 352 OFFCURVE",
"428 145 OFFCURVE",
"428 145 CURVE",
"423 145 LINE",
"423 145 OFFCURVE",
"344 350 OFFCURVE",
"254 641 CURVE",
"254 641 OFFCURVE",
"215 637 OFFCURVE",
"186 637 CURVE SMOOTH",
"154 637 OFFCURVE",
"77 642 OFFCURVE",
"77 642 CURVE",
"69 607 LINE",
"72 602 LINE",
"132 598 OFFCURVE",
"158 582 OFFCURVE",
"158 547 CURVE SMOOTH",
"158 517 OFFCURVE",
"123 188 OFFCURVE",
"115 115 CURVE SMOOTH",
"109 61 OFFCURVE",
"93 43 OFFCURVE",
"51 38 CURVE",
"46 -8 LINE",
"46 -8 OFFCURVE",
"92 0 OFFCURVE",
"132 0 CURVE SMOOTH",
"165 0 OFFCURVE",
"229 -4 OFFCURVE",
"229 -4 CURVE",
"238 41 LINE",
"236 45 LINE",
"236 45 OFFCURVE",
"205 44 OFFCURVE",
"195 44 CURVE SMOOTH",
"174 44 OFFCURVE",
"164 54 OFFCURVE",
"164 75 CURVE SMOOTH",
"164 101 OFFCURVE",
"200 520 OFFCURVE",
"200 520 CURVE",
"205 520 LINE",
"269 340 OFFCURVE",
"333 161 OFFCURVE",
"397 -19 CURVE"
);
}
);
width = 847;
},
{
anchors = (
{
name = bottom;
position = "{402, 0}";
},
{
name = top;
position = "{418, 647}";
}
);
background = {
paths = (
{
closed = 1;
nodes = (
"460 -2 LINE",
"514 194 OFFCURVE",
"570 362 OFFCURVE",
"572 369 CURVE",
"585 369 LINE",
"589 219 OFFCURVE",
"590 153 OFFCURVE",
"590 130 CURVE SMOOTH",
"590 98 OFFCURVE",
"576 85 OFFCURVE",
"539 81 CURVE",
"527 -8 LINE",
"536 -6 OFFCURVE",
"671 0 OFFCURVE",
"716 0 CURVE SMOOTH",
"750 0 OFFCURVE",
"798 -2 OFFCURVE",
"825 -3 CURVE",
"834 81 LINE",
"827 89 LINE",
"820 88 OFFCURVE",
"808 87 OFFCURVE",
"798 87 CURVE SMOOTH",
"768 87 OFFCURVE",
"757 107 OFFCURVE",
"751 175 CURVE",
"741 269 OFFCURVE",
"729 452 OFFCURVE",
"729 511 CURVE SMOOTH",
"729 551 OFFCURVE",
"741 560 OFFCURVE",
"796 563 CURVE",
"804 649 LINE",
"797 653 LINE",
"777 652 OFFCURVE",
"737 649 OFFCURVE",
"703 647 CURVE SMOOTH",
"642 643 OFFCURVE",
"582 647 OFFCURVE",
"522 647 CURVE",
"500 557 OFFCURVE",
"462 420 OFFCURVE",
"434 326 CURVE",
"422 326 LINE",
"395 423 OFFCURVE",
"362 560 OFFCURVE",
"344 651 CURVE",
"299 649 OFFCURVE",
"229 647 OFFCURVE",
"193 647 CURVE SMOOTH",
"171 647 OFFCURVE",
"122 649 OFFCURVE",
"48 652 CURVE",
"38 568 LINE",
"46 560 LINE",
"106 553 OFFCURVE",
"109 551 OFFCURVE",
"109 514 CURVE SMOOTH",
"109 499 OFFCURVE",
"75 155 OFFCURVE",
"73 147 CURVE SMOOTH",
"62 98 OFFCURVE",
"50 84 OFFCURVE",
"16 80 CURVE",
"8 -8 LINE",
"8 -6 OFFCURVE",
"96 0 OFFCURVE",
"124 0 CURVE SMOOTH",
"148 0 OFFCURVE",
"219 -2 OFFCURVE",
"265 -4 CURVE",
"277 80 LINE",
"268 88 LINE",
"260 87 OFFCURVE",
"247 86 OFFCURVE",
"242 86 CURVE SMOOTH",
"219 86 OFFCURVE",
"209 97 OFFCURVE",
"209 120 CURVE SMOOTH",
"209 141 OFFCURVE",
"213 290 OFFCURVE",
"215 369 CURVE",
"228 369 LINE",
"230 362 OFFCURVE",
"282 198 OFFCURVE",
"339 -12 CURVE"
);
}
);
};
layerId = UUID1;
paths = (
{
closed = 1;
nodes = (
"460 -2 LINE",
"514 194 OFFCURVE",
"570 362 OFFCURVE",
"572 369 CURVE",
"585 369 LINE",
"589 219 OFFCURVE",
"590 153 OFFCURVE",
"590 130 CURVE SMOOTH",
"590 98 OFFCURVE",
"576 85 OFFCURVE",
"539 81 CURVE",
"527 -8 LINE",
"536 -6 OFFCURVE",
"671 0 OFFCURVE",
"716 0 CURVE SMOOTH",
"750 0 OFFCURVE",
"798 -2 OFFCURVE",
"825 -3 CURVE",
"834 81 LINE",
"827 89 LINE",
"820 88 OFFCURVE",
"808 87 OFFCURVE",
"798 87 CURVE SMOOTH",
"768 87 OFFCURVE",
"757 107 OFFCURVE",
"751 175 CURVE",
"741 269 OFFCURVE",
"729 452 OFFCURVE",
"729 511 CURVE SMOOTH",
"729 551 OFFCURVE",
"741 560 OFFCURVE",
"796 563 CURVE",
"804 649 LINE",
"797 653 LINE",
"777 652 OFFCURVE",
"737 649 OFFCURVE",
"703 647 CURVE SMOOTH",
"642 643 OFFCURVE",
"582 647 OFFCURVE",
"522 647 CURVE",
"500 557 OFFCURVE",
"462 420 OFFCURVE",
"434 326 CURVE",
"422 326 LINE",
"395 423 OFFCURVE",
"362 560 OFFCURVE",
"344 651 CURVE",
"299 649 OFFCURVE",
"229 647 OFFCURVE",
"193 647 CURVE SMOOTH",
"171 647 OFFCURVE",
"122 649 OFFCURVE",
"48 652 CURVE",
"38 568 LINE",
"46 560 LINE",
"106 553 OFFCURVE",
"109 551 OFFCURVE",
"109 514 CURVE SMOOTH",
"109 499 OFFCURVE",
"75 155 OFFCURVE",
"73 147 CURVE SMOOTH",
"62 98 OFFCURVE",
"50 84 OFFCURVE",
"16 80 CURVE",
"8 -8 LINE",
"8 -6 OFFCURVE",
"96 0 OFFCURVE",
"124 0 CURVE SMOOTH",
"148 0 OFFCURVE",
"219 -2 OFFCURVE",
"265 -4 CURVE",
"277 80 LINE",
"268 88 LINE",
"260 87 OFFCURVE",
"247 86 OFFCURVE",
"242 86 CURVE SMOOTH",
"219 86 OFFCURVE",
"209 97 OFFCURVE",
"209 120 CURVE SMOOTH",
"209 141 OFFCURVE",
"213 290 OFFCURVE",
"215 369 CURVE",
"228 369 LINE",
"230 362 OFFCURVE",
"282 198 OFFCURVE",
"339 -12 CURVE"
);
}
);
width = 834;
}
);
leftKerningGroup = M;
rightKerningGroup = M;
unicode = 004D;
},
{
color = 1;
glyphname = N;
layers = (
{
anchors = (
{
name = bottom;
position = "{360, 0}";
},
{
name = top;
position = "{360, 637}";
}
);
background = {
paths = (
{
closed = 1;
nodes = (
"473 136 LINE",
"473 136 OFFCURVE",
"340 311 OFFCURVE",
"211 501 CURVE",
"211 501 OFFCURVE",
"179 498 OFFCURVE",
"150 498 CURVE SMOOTH",
"123 498 OFFCURVE",
"74 502 OFFCURVE",
"74 502 CURVE",
"67 468 LINE",
"71 463 LINE",
"125 457 OFFCURVE",
"141 447 OFFCURVE",
"141 414 CURVE",
"130 84 LINE SMOOTH",
"129 52 OFFCURVE",
"113 39 OFFCURVE",
"80 35 CURVE",
"75 -6 LINE",
"75 -6 OFFCURVE",
"122 0 OFFCURVE",
"158 0 CURVE SMOOTH",
"193 0 OFFCURVE",
"249 -3 OFFCURVE",
"249 -3 CURVE",
"257 37 LINE",
"254 40 LINE",
"254 40 OFFCURVE",
"223 39 OFFCURVE",
"214 39 CURVE SMOOTH",
"195 39 OFFCURVE",
"188 47 OFFCURVE",
"188 72 CURVE SMOOTH",
"191 375 LINE",
"196 375 LINE",
"196 375 OFFCURVE",
"333 195 OFFCURVE",
"485 -28 CURVE",
"524 -17 LINE",
"536 413 LINE SMOOTH",
"537 444 OFFCURVE",
"553 458 OFFCURVE",
"591 463 CURVE",
"595 504 LINE",
"595 504 OFFCURVE",
"545 498 OFFCURVE",
"510 498 CURVE SMOOTH",
"480 498 OFFCURVE",
"425 501 OFFCURVE",
"425 501 CURVE",
"418 462 LINE",
"420 458 LINE",
"421 458 OFFCURVE",
"436 458 OFFCURVE",
"450 458 CURVE SMOOTH",
"468 458 OFFCURVE",
"477 448 OFFCURVE",
"477 425 CURVE SMOOTH",
"478 136 LINE"
);
}
);
};
layerId = UUID0;
paths = (
{
closed = 1;
nodes = (
"599 -26 LINE",
"613 536 LINE SMOOTH",
"614 575 OFFCURVE",
"635 593 OFFCURVE",
"681 599 CURVE",
"686 645 LINE",
"686 645 OFFCURVE",
"629 637 OFFCURVE",
"587 637 CURVE SMOOTH",
"553 637 OFFCURVE",
"492 641 OFFCURVE",
"492 641 CURVE",
"483 596 LINE",
"485 592 LINE",
"485 592 OFFCURVE",
"505 593 OFFCURVE",
"523 593 CURVE SMOOTH",
"545 593 OFFCURVE",
"556 579 OFFCURVE",
"556 550 CURVE SMOOTH",
"556 145 LINE",
"551 145 LINE",
"551 145 OFFCURVE",
"381 383 OFFCURVE",
"215 641 CURVE",
"215 641 OFFCURVE",
"181 637 OFFCURVE",
"148 637 CURVE SMOOTH",
"120 637 OFFCURVE",
"62 642 OFFCURVE",
"62 642 CURVE",
"54 605 LINE",
"57 600 LINE",
"124 593 OFFCURVE",
"144 579 OFFCURVE",
"144 538 CURVE",
"131 101 LINE SMOOTH",
"130 60 OFFCURVE",
"110 43 OFFCURVE",
"69 38 CURVE",
"64 -8 LINE",
"64 -8 OFFCURVE",
"117 0 OFFCURVE",
"157 0 CURVE SMOOTH",
"200 0 OFFCURVE",
"263 -4 OFFCURVE",
"263 -4 CURVE",
"272 41 LINE",
"270 45 LINE",
"270 45 OFFCURVE",
"229 44 OFFCURVE",
"219 44 CURVE SMOOTH",
"196 44 OFFCURVE",
"188 54 OFFCURVE",
"188 84 CURVE SMOOTH",
"193 511 LINE",
"198 511 LINE",
"198 511 OFFCURVE",
"375 264 OFFCURVE",
"570 -40 CURVE"
);
}
);
width = 719;
},
{
anchors = (
{
name = bottom;
position = "{370, 0}";
},
{
name = top;
position = "{370, 647}";
}
);
background = {
paths = (
{
closed = 1;
nodes = (
"487 333 LINE",
"487 333 OFFCURVE",
"385 489 OFFCURVE",
"295 651 CURVE",
"295 651 OFFCURVE",
"221 647 OFFCURVE",
"167 647 CURVE SMOOTH",
"94 647 OFFCURVE",
"19 652 OFFCURVE",
"19 652 CURVE",
"13 571 LINE",
"25 557 LINE",
"88 550 OFFCURVE",
"101 539 OFFCURVE",
"100 494 CURVE SMOOTH",
"88 145 LINE SMOOTH",
"87 105 OFFCURVE",
"70 87 OFFCURVE",
"31 82 CURVE",
"21 -8 LINE",
"21 -8 OFFCURVE",
"106 0 OFFCURVE",
"175 0 CURVE SMOOTH",
"218 0 OFFCURVE",
"329 -4 OFFCURVE",
"329 -4 CURVE",
"340 81 LINE",
"331 90 LINE",
"331 90 OFFCURVE",
"309 86 OFFCURVE",
"297 86 CURVE SMOOTH",
"268 86 OFFCURVE",
"259 99 OFFCURVE",
"258 137 CURVE SMOOTH",
"255 315 LINE",
"270 315 LINE",
"270 315 OFFCURVE",
"363 174 OFFCURVE",
"475 -12 CURVE",
"663 0 LINE",
"676 497 LINE SMOOTH",
"677 538 OFFCURVE",
"691 554 OFFCURVE",
"734 560 CURVE",
"739 650 LINE",
"739 649 OFFCURVE",
"656 647 OFFCURVE",
"600 647 CURVE SMOOTH",
"544 647 OFFCURVE",
"434 651 OFFCURVE",
"434 651 CURVE",
"429 570 LINE",
"434 559 LINE",
"444 559 OFFCURVE",
"455 559 OFFCURVE",
"465 559 CURVE SMOOTH",
"489 559 OFFCURVE",
"496 550 OFFCURVE",
"498 516 CURVE",
"502 333 LINE",
"487 333 LINE"
);
}
);
};
layerId = UUID1;
paths = (
{
closed = 1;
nodes = (
"663 0 LINE",
"676 497 LINE SMOOTH",
"677 538 OFFCURVE",
"691 554 OFFCURVE",
"734 560 CURVE",
"739 650 LINE",
"739 649 OFFCURVE",
"656 647 OFFCURVE",
"600 647 CURVE SMOOTH",
"544 647 OFFCURVE",
"434 651 OFFCURVE",
"434 651 CURVE",
"429 570 LINE",
"434 559 LINE",
"444 559 OFFCURVE",
"455 559 OFFCURVE",
"465 559 CURVE SMOOTH",
"489 559 OFFCURVE",
"496 550 OFFCURVE",
"498 516 CURVE SMOOTH",
"502 333 LINE",
"487 333 LINE",
"487 333 OFFCURVE",
"385 489 OFFCURVE",
"295 651 CURVE",
"295 651 OFFCURVE",
"221 647 OFFCURVE",
"167 647 CURVE SMOOTH",
"94 647 OFFCURVE",
"19 652 OFFCURVE",
"19 652 CURVE",
"13 571 LINE",
"25 557 LINE",
"88 550 OFFCURVE",
"100 540 OFFCURVE",
"100 494 CURVE",
"88 145 LINE SMOOTH",
"87 105 OFFCURVE",
"70 87 OFFCURVE",
"31 82 CURVE",
"21 -8 LINE",
"21 -8 OFFCURVE",
"106 0 OFFCURVE",
"175 0 CURVE SMOOTH",
"218 0 OFFCURVE",
"329 -4 OFFCURVE",
"329 -4 CURVE",
"340 81 LINE",
"331 90 LINE",
"331 90 OFFCURVE",
"309 86 OFFCURVE",
"297 86 CURVE SMOOTH",
"268 86 OFFCURVE",
"259 99 OFFCURVE",
"258 137 CURVE SMOOTH",
"255 315 LINE",
"270 315 LINE",
"270 315 OFFCURVE",
"363 174 OFFCURVE",
"475 -12 CURVE"
);
}
);
width = 739;
}
);
leftKerningGroup = H;
rightKerningGroup = H;
unicode = 004E;
},
{
color = 1;
glyphname = Eng;
layers = (
{
background = {
paths = (
{
closed = 1;
nodes = (
"122 637 OFFCURVE",
"62 642 OFFCURVE",
"62 642 CURVE",
"54 605 LINE",
"57 600 LINE",
"127 590 OFFCURVE",
"144 577 OFFCURVE",
"144 538 CURVE SMOOTH",
"132 124 LINE SMOOTH",
"129 60 OFFCURVE",
"115 42 OFFCURVE",
"69 38 CURVE",
"64 -8 LINE",
"64 -8 OFFCURVE",
"111 0 OFFCURVE",
"151 0 CURVE SMOOTH",
"198 0 OFFCURVE",
"263 -4 OFFCURVE",
"263 -4 CURVE",
"272 42 LINE",
"269 46 LINE",
"269 46 OFFCURVE",
"229 44 OFFCURVE",
"219 44 CURVE SMOOTH",
"196 44 OFFCURVE",
"188 54 OFFCURVE",
"188 84 CURVE SMOOTH",
"193 511 LINE",
"198 511 LINE",
"198 511 OFFCURVE",
"356 289 OFFCURVE",
"539 8 CURVE",
"525 -47 OFFCURVE",
"492 -84 OFFCURVE",
"427 -113 CURVE",
"424 -121 LINE",
"441 -154 LINE",
"554 -112 OFFCURVE",
"600 -43 OFFCURVE",
"604 86 CURVE SMOOTH",
"613 536 LINE SMOOTH",
"614 575 OFFCURVE",
"633 593 OFFCURVE",
"681 599 CURVE",
"686 645 LINE",
"686 645 OFFCURVE",
"629 637 OFFCURVE",
"587 637 CURVE SMOOTH",
"554 637 OFFCURVE",
"492 641 OFFCURVE",
"492 641 CURVE",
"483 596 LINE",
"485 592 LINE",
"485 592 OFFCURVE",
"505 593 OFFCURVE",
"523 593 CURVE SMOOTH",
"545 593 OFFCURVE",
"556 579 OFFCURVE",
"556 550 CURVE SMOOTH",
"556 145 LINE",
"551 145 LINE SMOOTH",
"551 145 OFFCURVE",
"356 419 OFFCURVE",
"215 641 CURVE",
"215 641 OFFCURVE",
"157 637 OFFCURVE",
"143 637 CURVE SMOOTH"
);
}
);
};
layerId = UUID0;
paths = (
{
closed = 1;
nodes = (
"554 -112 OFFCURVE",
"600 -43 OFFCURVE",
"604 86 CURVE SMOOTH",
"613 536 LINE SMOOTH",
"614 575 OFFCURVE",
"633 593 OFFCURVE",
"681 599 CURVE",
"686 645 LINE",
"686 645 OFFCURVE",
"629 637 OFFCURVE",
"587 637 CURVE SMOOTH",
"554 637 OFFCURVE",
"492 641 OFFCURVE",
"492 641 CURVE",
"483 596 LINE",
"485 592 LINE",
"485 592 OFFCURVE",
"505 593 OFFCURVE",
"523 593 CURVE SMOOTH",
"545 593 OFFCURVE",
"556 579 OFFCURVE",
"556 550 CURVE SMOOTH",
"556 145 LINE",
"551 145 LINE SMOOTH",
"551 145 OFFCURVE",
"356 419 OFFCURVE",
"215 641 CURVE",
"215 641 OFFCURVE",
"157 637 OFFCURVE",
"143 637 CURVE SMOOTH",
"122 637 OFFCURVE",
"62 642 OFFCURVE",
"62 642 CURVE",
"54 605 LINE",
"57 600 LINE",
"127 590 OFFCURVE",
"144 577 OFFCURVE",
"144 538 CURVE SMOOTH",
"132 124 LINE SMOOTH",
"129 60 OFFCURVE",
"115 42 OFFCURVE",
"69 38 CURVE",
"64 -8 LINE",
"64 -8 OFFCURVE",
"111 0 OFFCURVE",
"151 0 CURVE SMOOTH",
"198 0 OFFCURVE",
"263 -4 OFFCURVE",
"263 -4 CURVE",
"272 42 LINE",
"269 46 LINE",
"269 46 OFFCURVE",
"229 44 OFFCURVE",
"219 44 CURVE SMOOTH",
"196 44 OFFCURVE",
"188 54 OFFCURVE",
"188 84 CURVE SMOOTH",
"193 511 LINE",
"198 511 LINE",
"198 511 OFFCURVE",
"356 289 OFFCURVE",
"539 8 CURVE",
"525 -47 OFFCURVE",
"492 -84 OFFCURVE",
"427 -113 CURVE",
"424 -121 LINE",
"441 -154 LINE"
);
}
);
width = 719;
},
{
background = {
paths = (
{
closed = 1;
nodes = (
"112 647 OFFCURVE",
"19 652 OFFCURVE",
"19 652 CURVE",
"13 571 LINE",
"25 557 LINE",
"89 550 OFFCURVE",
"100 537 OFFCURVE",
"100 494 CURVE SMOOTH",
"88 145 LINE SMOOTH",
"87 105 OFFCURVE",
"70 87 OFFCURVE",
"31 82 CURVE",
"21 -8 LINE",
"21 -8 OFFCURVE",
"104 0 OFFCURVE",
"144 0 CURVE SMOOTH",
"225 0 OFFCURVE",
"329 -4 OFFCURVE",
"329 -4 CURVE",
"340 81 LINE",
"331 90 LINE",
"331 90 OFFCURVE",
"309 86 OFFCURVE",
"297 86 CURVE SMOOTH",
"268 86 OFFCURVE",
"259 99 OFFCURVE",
"258 137 CURVE SMOOTH",
"255 315 LINE",
"270 315 LINE",
"270 315 OFFCURVE",
"359 179 OFFCURVE",
"468 -1 CURVE",
"456 -42 OFFCURVE",
"435 -71 OFFCURVE",
"387 -111 CURVE",
"385 -126 LINE",
"425 -174 LINE",
"591 -128 OFFCURVE",
"661 -49 OFFCURVE",
"665 85 CURVE SMOOTH",
"676 497 LINE SMOOTH",
"677 538 OFFCURVE",
"691 554 OFFCURVE",
"734 560 CURVE",
"739 650 LINE",
"739 650 OFFCURVE",
"650 648 OFFCURVE",
"604 647 CURVE SMOOTH",
"574 647 OFFCURVE",
"434 651 OFFCURVE",
"434 651 CURVE",
"429 569 LINE",
"434 558 LINE",
"434 558 OFFCURVE",
"458 559 OFFCURVE",
"465 559 CURVE SMOOTH",
"489 559 OFFCURVE",
"497 550 OFFCURVE",
"498 516 CURVE SMOOTH",
"502 333 LINE",
"487 333 LINE SMOOTH",
"487 333 OFFCURVE",
"385 489 OFFCURVE",
"295 651 CURVE",
"295 651 OFFCURVE",
"223 647 OFFCURVE",
"169 647 CURVE SMOOTH"
);
}
);
};
layerId = UUID1;
paths = (
{
closed = 1;
nodes = (
"589 -127 OFFCURVE",
"657 -49 OFFCURVE",
"661 85 CURVE SMOOTH",
"672 501 LINE SMOOTH",
"673 542 OFFCURVE",
"687 558 OFFCURVE",
"731 564 CURVE",
"736 651 LINE",
"736 651 OFFCURVE",
"649 648 OFFCURVE",
"603 647 CURVE SMOOTH",
"573 647 OFFCURVE",
"439 651 OFFCURVE",
"439 651 CURVE",
"434 572 LINE",
"439 562 LINE",
"439 562 OFFCURVE",
"463 563 OFFCURVE",
"470 563 CURVE SMOOTH",
"494 563 OFFCURVE",
"503 553 OFFCURVE",
"503 520 CURVE SMOOTH",
"507 318 LINE",
"493 318 LINE SMOOTH",
"493 318 OFFCURVE",
"383 484 OFFCURVE",
"289 651 CURVE",
"289 651 OFFCURVE",
"219 647 OFFCURVE",
"168 647 CURVE SMOOTH",
"114 647 OFFCURVE",
"23 652 OFFCURVE",
"23 652 CURVE",
"17 575 LINE",
"28 561 LINE",
"93 554 OFFCURVE",
"104 541 OFFCURVE",
"104 499 CURVE SMOOTH",
"92 143 LINE SMOOTH",
"91 101 OFFCURVE",
"74 83 OFFCURVE",
"35 78 CURVE",
"25 -8 LINE",
"25 -8 OFFCURVE",
"105 0 OFFCURVE",
"145 0 CURVE SMOOTH",
"224 0 OFFCURVE",
"325 -4 OFFCURVE",
"325 -4 CURVE",
"335 78 LINE",
"327 86 LINE",
"327 86 OFFCURVE",
"303 83 OFFCURVE",
"292 83 CURVE SMOOTH",
"263 83 OFFCURVE",
"254 95 OFFCURVE",
"253 133 CURVE SMOOTH",
"251 331 LINE",
"265 331 LINE",
"265 331 OFFCURVE",
"360 188 OFFCURVE",
"474 0 CURVE",
"462 -42 OFFCURVE",
"440 -72 OFFCURVE",
"391 -111 CURVE",
"389 -126 LINE",
"427 -172 LINE"
);
}
);
width = 736;
}
);
leftKerningGroup = H;
unicode = 014A;
},
{
color = 1;
glyphname = O;
layers = (
{
anchors = (
{
name = bottom;
position = "{346, 0}";
},
{
name = center;
position = "{346, 319}";
},
{
name = ogonek;
position = "{623, 10}";
},
{
name = top;
position = "{346, 637}";
},
{
name = topleft;
position = "{20, 637}";
},
{
name = topright;
position = "{672, 637}";
}
);
layerId = UUID0;
paths = (
{
closed = 1;
nodes = (
"506 -12 OFFCURVE",
"652 142 OFFCURVE",
"652 341 CURVE SMOOTH",
"652 523 OFFCURVE",
"536 649 OFFCURVE",
"369 649 CURVE SMOOTH",
"184 649 OFFCURVE",
"40 495 OFFCURVE",
"40 297 CURVE SMOOTH",
"40 114 OFFCURVE",
"153 -12 OFFCURVE",
"317 -12 CURVE SMOOTH"
);
},
{
closed = 1;
nodes = (
"217 39 OFFCURVE",
"126 158 OFFCURVE",
"126 329 CURVE SMOOTH",
"126 483 OFFCURVE",
"211 589 OFFCURVE",
"335 589 CURVE SMOOTH",
"470 589 OFFCURVE",
"563 470 OFFCURVE",
"563 299 CURVE SMOOTH",
"563 145 OFFCURVE",
"475 39 OFFCURVE",
"348 39 CURVE SMOOTH"
);
}
);
width = 692;
},
{
anchors = (
{
name = bottom;
position = "{328, 0}";
},
{
name = center;
position = "{328, 324}";
},
{
name = ogonek;
position = "{589, 10}";
},
{
name = top;
position = "{328, 647}";
},
{
name = topleft;
position = "{20, 647}";
},
{
name = topright;
position = "{635, 647}";
}
);
layerId = UUID1;
paths = (
{
closed = 1;
nodes = (
"522 -12 OFFCURVE",
"640 115 OFFCURVE",
"640 340 CURVE SMOOTH",
"640 551 OFFCURVE",
"540 659 OFFCURVE",
"342 659 CURVE SMOOTH",
"130 659 OFFCURVE",
"15 536 OFFCURVE",
"15 312 CURVE SMOOTH",
"15 103 OFFCURVE",
"120 -12 OFFCURVE",
"313 -12 CURVE SMOOTH"
);
},
{
closed = 1;
nodes = (
"267 114 OFFCURVE",
"244 179 OFFCURVE",
"244 361 CURVE SMOOTH",
"244 478 OFFCURVE",
"265 522 OFFCURVE",
"321 522 CURVE SMOOTH",
"388 522 OFFCURVE",
"411 459 OFFCURVE",
"411 277 CURVE SMOOTH",
"411 159 OFFCURVE",
"389 114 OFFCURVE",
"332 114 CURVE SMOOTH"
);
}
);
width = 655;
}
);
leftKerningGroup = O;
rightKerningGroup = O;
unicode = 004F;
},
{
color = 1;
glyphname = Ohorn;
layers = (
{
anchors = (
{
name = bottom;
position = "{315, 0}";
},
{
name = top;
position = "{324, 647}";
}
);
background = {
paths = (
{
closed = 1;
nodes = (
"217 39 OFFCURVE",
"126 158 OFFCURVE",
"126 329 CURVE SMOOTH",
"126 483 OFFCURVE",
"211 589 OFFCURVE",
"335 589 CURVE SMOOTH",
"470 589 OFFCURVE",
"563 470 OFFCURVE",
"563 299 CURVE SMOOTH",
"563 145 OFFCURVE",
"475 39 OFFCURVE",
"348 39 CURVE SMOOTH"
);
},
{
closed = 1;
nodes = (
"506 -12 OFFCURVE",
"652 142 OFFCURVE",
"652 341 CURVE SMOOTH",
"652 523 OFFCURVE",
"536 649 OFFCURVE",
"369 649 CURVE SMOOTH",
"184 649 OFFCURVE",
"40 495 OFFCURVE",
"40 297 CURVE SMOOTH",
"40 114 OFFCURVE",
"153 -12 OFFCURVE",
"317 -12 CURVE SMOOTH"
);
},
{
closed = 1;
nodes = (
"581 734 LINE",
"598 718 OFFCURVE",
"613 692 OFFCURVE",
"613 664 CURVE SMOOTH",
"613 621 OFFCURVE",
"579 574 OFFCURVE",
"534 543 CURVE",
"534 533 LINE",
"552 518 LINE",
"612 553 OFFCURVE",
"692 619 OFFCURVE",
"692 696 CURVE SMOOTH",
"692 747 OFFCURVE",
"669 774 OFFCURVE",
"641 774 CURVE SMOOTH",
"619 774 OFFCURVE",
"596 758 OFFCURVE",
"583 748 CURVE"
);
}
);
};
layerId = UUID0;
paths = (
{
closed = 1;
nodes = (
"506 -12 OFFCURVE",
"652 142 OFFCURVE",
"652 341 CURVE SMOOTH",
"652 442 OFFCURVE",
"616 526 OFFCURVE",
"555 580 CURVE",
"627 577 OFFCURVE",
"692 627 OFFCURVE",
"692 696 CURVE SMOOTH",
"692 743 OFFCURVE",
"672 774 OFFCURVE",
"641 774 CURVE SMOOTH",
"624 774 OFFCURVE",
"603 765 OFFCURVE",
"583 748 CURVE",
"581 734 LINE",
"601 715 OFFCURVE",
"613 688 OFFCURVE",
"613 664 CURVE SMOOTH",
"613 633 OFFCURVE",
"583 615 OFFCURVE",
"543 615 CURVE SMOOTH",
"490 615 OFFCURVE",
"461 649 OFFCURVE",
"369 649 CURVE SMOOTH",
"184 649 OFFCURVE",
"40 495 OFFCURVE",
"40 297 CURVE SMOOTH",
"40 114 OFFCURVE",
"153 -12 OFFCURVE",
"317 -12 CURVE SMOOTH"
);
},
{
closed = 1;
nodes = (
"217 39 OFFCURVE",
"126 158 OFFCURVE",
"126 329 CURVE SMOOTH",
"126 483 OFFCURVE",
"211 589 OFFCURVE",
"335 589 CURVE SMOOTH",
"470 589 OFFCURVE",
"563 470 OFFCURVE",
"563 299 CURVE SMOOTH",
"563 145 OFFCURVE",
"475 39 OFFCURVE",
"348 39 CURVE SMOOTH"
);
}
);
width = 703;
},
{
anchors = (
{
name = bottom;
position = "{315, 0}";
},
{
name = top;
position = "{324, 647}";
}
);
background = {
paths = (
{
closed = 1;
nodes = (
"267 114 OFFCURVE",
"244 179 OFFCURVE",
"244 361 CURVE SMOOTH",
"244 478 OFFCURVE",
"265 522 OFFCURVE",
"321 522 CURVE SMOOTH",
"388 522 OFFCURVE",
"411 459 OFFCURVE",
"411 277 CURVE SMOOTH",
"411 159 OFFCURVE",
"389 114 OFFCURVE",
"332 114 CURVE SMOOTH"
);
},
{
closed = 1;
nodes = (
"522 -12 OFFCURVE",
"640 115 OFFCURVE",
"640 340 CURVE SMOOTH",
"640 551 OFFCURVE",
"540 659 OFFCURVE",
"342 659 CURVE SMOOTH",
"130 659 OFFCURVE",
"15 536 OFFCURVE",
"15 312 CURVE SMOOTH",
"15 103 OFFCURVE",
"120 -12 OFFCURVE",
"313 -12 CURVE SMOOTH"
);
},
{
closed = 1;
nodes = (
"527 741 LINE",
"544 722 OFFCURVE",
"556 692 OFFCURVE",
"556 665 CURVE SMOOTH",
"556 635 OFFCURVE",
"531 601 OFFCURVE",
"492 579 CURVE",
"492 554 LINE",
"550 508 LINE",
"653 561 OFFCURVE",
"717 634 OFFCURVE",
"717 698 CURVE SMOOTH",
"717 759 OFFCURVE",
"683 799 OFFCURVE",
"632 799 CURVE SMOOTH",
"604 799 OFFCURVE",
"566 783 OFFCURVE",
"530 755 CURVE"
);
}
);
};
layerId = UUID1;
paths = (
{
closed = 1;
nodes = (
"522 -12 OFFCURVE",
"640 115 OFFCURVE",
"640 340 CURVE SMOOTH",
"640 433 OFFCURVE",
"619 507 OFFCURVE",
"578 562 CURVE",
"639 562 OFFCURVE",
"707 634 OFFCURVE",
"707 698 CURVE SMOOTH",
"707 753 OFFCURVE",
"673 789 OFFCURVE",
"622 789 CURVE SMOOTH",
"596 789 OFFCURVE",
"561 772 OFFCURVE",
"530 745 CURVE",
"527 731 LINE",
"545 716 OFFCURVE",
"556 694 OFFCURVE",
"556 675 CURVE SMOOTH",
"556 649 OFFCURVE",
"541 631 OFFCURVE",
"515 631 CURVE SMOOTH",
"481 631 OFFCURVE",
"443 659 OFFCURVE",
"342 659 CURVE SMOOTH",
"130 659 OFFCURVE",
"15 536 OFFCURVE",
"15 312 CURVE SMOOTH",
"15 103 OFFCURVE",
"120 -12 OFFCURVE",
"313 -12 CURVE SMOOTH"
);
},
{
closed = 1;
nodes = (
"267 114 OFFCURVE",
"244 179 OFFCURVE",
"244 361 CURVE SMOOTH",
"244 478 OFFCURVE",
"265 522 OFFCURVE",
"321 522 CURVE SMOOTH",
"388 522 OFFCURVE",
"411 459 OFFCURVE",
"411 277 CURVE SMOOTH",
"411 159 OFFCURVE",
"389 114 OFFCURVE",
"332 114 CURVE SMOOTH"
);
}
);
width = 685;
}
);
leftKerningGroup = O;
rightKerningGroup = O;
unicode = 01A0;
},
{
color = 11;
glyphname = Oslash;
layers = (
{
anchors = (
{
name = top;
position = "{328, 647}";
}
);
components = (
{
name = O;
}
);
layerId = UUID0;
paths = (
{
closed = 1;
nodes = (
"489 572 LINE",
"456 586 LINE",
"186 70 LINE",
"218 56 LINE"
);
},
{
closed = 1;
nodes = (
"218 56 LINE",
"186 70 LINE",
"107 -82 LINE",
"109 -92 LINE",
"136 -98 LINE"
);
},
{
closed = 1;
nodes = (
"552 689 LINE",
"549 701 LINE",
"520 708 LINE",
"456 586 LINE",
"489 572 LINE"
);
}
);
width = 692;
},
{
anchors = (
{
name = top;
position = "{328, 647}";
}
);
components = (
{
name = O;
}
);
layerId = UUID1;
paths = (
{
closed = 1;
nodes = (
"516 488 LINE",
"421 559 LINE",
"171 182 LINE",
"264 112 LINE"
);
},
{
closed = 1;
nodes = (
"264 112 LINE",
"171 182 LINE",
"16 -52 LINE",
"20 -62 LINE",
"115 -117 LINE"
);
},
{
closed = 1;
nodes = (
"649 685 LINE",
"647 698 LINE",
"550 752 LINE",
"421 559 LINE",
"516 488 LINE"
);
}
);
width = 655;
},
{
anchors = (
{
name = top;
position = "{328, 647}";
}
);
associatedMasterId = UUID0;
components = (
{
name = O;
}
);
layerId = "B2B2DECB-EDA3-4420-88B6-34DB6DE51F24";
name = "Regular [130]";
paths = (
{
closed = 1;
nodes = (
"552 689 LINE",
"549 701 LINE",
"520 708 LINE",
"456 586 LINE",
"489 572 LINE"
);
},
{
closed = 1;
nodes = (
"107 -82 LINE",
"109 -92 LINE",
"136 -98 LINE",
"218 56 LINE",
"186 70 LINE"
);
}
);
width = 692;
},
{
anchors = (
{
name = top;
position = "{328, 647}";
}
);
associatedMasterId = UUID1;
components = (
{
name = O;
}
);
layerId = "9EAAF7E5-6FB9-4D34-9632-AC93CC8B7FC8";
name = "Bold [130]";
paths = (
{
closed = 1;
nodes = (
"649 685 LINE",
"647 698 LINE",
"550 752 LINE",
"421 559 LINE",
"516 488 LINE"
);
},
{
closed = 1;
nodes = (
"16 -52 LINE",
"20 -62 LINE",
"115 -117 LINE",
"264 112 LINE",
"171 182 LINE"
);
}
);
width = 655;
}
);
leftKerningGroup = O;
rightKerningGroup = O;
unicode = 00D8;
},
{
color = 10;
glyphname = Oslashacute;
layers = (
{
background = {
components = (
{
name = O;
},
{
name = acutecomb.case;
transform = "{1, 0, 0, 1, 130, 0}";
}
);
paths = (
{
closed = 1;
nodes = (
"552 689 LINE",
"549 701 LINE",
"520 708 LINE",
"456 586 LINE",
"489 572 LINE"
);
},
{
closed = 1;
nodes = (
"489 572 LINE",
"456 586 LINE",
"186 70 LINE",
"218 56 LINE"
);
},
{
closed = 1;
nodes = (
"107 -82 LINE",
"109 -92 LINE",
"136 -98 LINE",
"218 56 LINE",
"186 70 LINE"
);
}
);
};
components = (
{
alignment = -1;
name = Oslash;
},
{
alignment = -1;
name = acutecomb.case;
transform = "{1, 0, 0, 1, 131, -1}";
}
);
layerId = UUID0;
width = 692;
},
{
background = {
components = (
{
name = O;
},
{
name = acutecomb.case;
transform = "{1, 0, 0, 1, 127, 13}";
}
);
paths = (
{
closed = 1;
nodes = (
"649 685 LINE",
"647 698 LINE",
"550 752 LINE",
"421 559 LINE",
"516 488 LINE"
);
},
{
closed = 1;
nodes = (
"516 488 LINE",
"421 559 LINE",
"171 182 LINE",
"264 112 LINE"
);
},
{
closed = 1;
nodes = (
"16 -52 LINE",
"20 -62 LINE",
"115 -117 LINE",
"264 112 LINE",
"171 182 LINE"
);
}
);
};
components = (
{
alignment = -1;
name = Oslash;
},
{
alignment = -1;
name = acutecomb.case;
transform = "{1, 0, 0, 1, 128, 12}";
}
);
layerId = UUID1;
width = 655;
}
);
leftKerningGroup = O;
rightKerningGroup = O;
unicode = 01FE;
},
{
color = 1;
glyphname = OE;
layers = (
{
anchors = (
{
name = top;
position = "{508, 647}";
}
);
layerId = UUID0;
paths = (
{
closed = 1;
nodes = (
"382 -12 OFFCURVE",
"462 1 OFFCURVE",
"565 1 CURVE SMOOTH",
"660 1 OFFCURVE",
"870 -7 OFFCURVE",
"870 -7 CURVE",
"875 -1 LINE",
"884 84 OFFCURVE",
"902 167 OFFCURVE",
"902 167 CURVE",
"899 172 LINE",
"855 167 LINE",
"839 57 OFFCURVE",
"820 45 OFFCURVE",
"662 45 CURVE SMOOTH",
"590 45 OFFCURVE",
"583 51 OFFCURVE",
"583 105 CURVE SMOOTH",
"586 296 LINE",
"664 303 LINE SMOOTH",
"718 303 OFFCURVE",
"804 300 OFFCURVE",
"804 300 CURVE",
"818 359 LINE",
"814 364 LINE",
"814 364 OFFCURVE",
"728 353 OFFCURVE",
"692 353 CURVE SMOOTH",
"588 354 LINE",
"596 548 LINE SMOOTH",
"598 585 OFFCURVE",
"601 587 OFFCURVE",
"666 587 CURVE SMOOTH",
"807 587 OFFCURVE",
"820 581 OFFCURVE",
"820 516 CURVE SMOOTH",
"820 502 OFFCURVE",
"818 473 OFFCURVE",
"818 473 CURVE",
"866 477 LINE",
"872 569 OFFCURVE",
"889 643 OFFCURVE",
"889 643 CURVE",
"886 649 LINE",
"814 639 OFFCURVE",
"724 635 OFFCURVE",
"582 635 CURVE SMOOTH",
"500 635 OFFCURVE",
"431 649 OFFCURVE",
"363 649 CURVE SMOOTH",
"182 649 OFFCURVE",
"41 495 OFFCURVE",
"41 297 CURVE SMOOTH",
"41 115 OFFCURVE",
"152 -12 OFFCURVE",
"311 -12 CURVE SMOOTH"
);
},
{
closed = 1;
nodes = (
"214 40 OFFCURVE",
"127 158 OFFCURVE",
"127 330 CURVE SMOOTH",
"127 484 OFFCURVE",
"214 591 OFFCURVE",
"339 591 CURVE SMOOTH",
"483 591 OFFCURVE",
"521 566 OFFCURVE",
"521 467 CURVE SMOOTH",
"520 208 LINE",
"518 85 OFFCURVE",
"471 40 OFFCURVE",
"342 40 CURVE SMOOTH"
);
}
);
width = 963;
},
{
anchors = (
{
name = top;
position = "{508, 647}";
}
);
layerId = UUID1;
paths = (
{
closed = 1;
nodes = (
"373 -10 OFFCURVE",
"458 3 OFFCURVE",
"533 3 CURVE SMOOTH",
"688 3 OFFCURVE",
"857 -7 OFFCURVE",
"857 -7 CURVE",
"872 9 LINE",
"882 118 OFFCURVE",
"900 215 OFFCURVE",
"900 215 CURVE",
"888 230 LINE",
"760 221 LINE",
"749 132 OFFCURVE",
"731 115 OFFCURVE",
"644 115 CURVE SMOOTH",
"602 115 OFFCURVE",
"596 123 OFFCURVE",
"596 175 CURVE SMOOTH",
"597 260 LINE",
"672 266 LINE SMOOTH",
"718 266 OFFCURVE",
"792 263 OFFCURVE",
"792 263 CURVE",
"806 378 LINE",
"794 392 LINE",
"794 392 OFFCURVE",
"714 386 OFFCURVE",
"684 386 CURVE SMOOTH",
"602 387 LINE",
"608 500 LINE SMOOTH",
"608 522 OFFCURVE",
"614 527 OFFCURVE",
"642 527 CURVE SMOOTH",
"723 527 OFFCURVE",
"740 517 OFFCURVE",
"740 472 CURVE SMOOTH",
"740 459 OFFCURVE",
"738 435 OFFCURVE",
"738 435 CURVE",
"876 444 LINE",
"881 538 OFFCURVE",
"899 643 OFFCURVE",
"899 643 CURVE",
"886 659 LINE",
"830 652 OFFCURVE",
"692 638 OFFCURVE",
"566 638 CURVE SMOOTH",
"475 638 OFFCURVE",
"402 650 OFFCURVE",
"337 650 CURVE SMOOTH",
"125 650 OFFCURVE",
"15 536 OFFCURVE",
"15 312 CURVE SMOOTH",
"15 103 OFFCURVE",
"125 -10 OFFCURVE",
"318 -10 CURVE SMOOTH"
);
},
{
closed = 1;
nodes = (
"265 108 OFFCURVE",
"242 175 OFFCURVE",
"242 362 CURVE SMOOTH",
"242 483 OFFCURVE",
"263 528 OFFCURVE",
"322 528 CURVE SMOOTH",
"372 528 OFFCURVE",
"405 506 OFFCURVE",
"405 439 CURVE SMOOTH",
"404 196 LINE",
"404 135 OFFCURVE",
"378 108 OFFCURVE",
"332 108 CURVE SMOOTH"
);
}
);
width = 915;
}
);
leftKerningGroup = O;
rightKerningGroup = E;
unicode = 0152;
},
{
color = 1;
glyphname = P;
layers = (
{
anchors = (
{
name = bottom;
position = "{200, 0}";
},
{
name = top;
position = "{317, 647}";
}
);
layerId = UUID0;
paths = (
{
closed = 1;
nodes = (
"65 -5 OFFCURVE",
"158 0 OFFCURVE",
"212 0 CURVE SMOOTH",
"246 0 OFFCURVE",
"304 -2 OFFCURVE",
"304 -3 CURVE",
"313 43 LINE",
"311 47 LINE",
"311 47 OFFCURVE",
"277 44 OFFCURVE",
"257 44 CURVE SMOOTH",
"218 44 OFFCURVE",
"213 55 OFFCURVE",
"213 146 CURVE",
"215 244 LINE",
"299 244 LINE SMOOTH",
"418 244 OFFCURVE",
"528 349 OFFCURVE",
"528 463 CURVE SMOOTH",
"528 578 OFFCURVE",
"452 641 OFFCURVE",
"314 641 CURVE SMOOTH",
"314 641 OFFCURVE",
"215 637 OFFCURVE",
"188 637 CURVE SMOOTH",
"150 637 OFFCURVE",
"77 640 OFFCURVE",
"77 640 CURVE",
"70 596 LINE",
"72 592 LINE",
"72 592 OFFCURVE",
"94 594 OFFCURVE",
"106 594 CURVE SMOOTH",
"135 594 OFFCURVE",
"143 583 OFFCURVE",
"143 540 CURVE SMOOTH",
"142 120 LINE SMOOTH",
"142 63 OFFCURVE",
"128 48 OFFCURVE",
"70 38 CURVE",
"63 -8 LINE"
);
},
{
closed = 1;
nodes = (
"217 303 LINE",
"219 389 OFFCURVE",
"223 489 OFFCURVE",
"229 578 CURVE SMOOTH",
"230 592 OFFCURVE",
"232 592 OFFCURVE",
"256 592 CURVE SMOOTH",
"386 592 OFFCURVE",
"444 546 OFFCURVE",
"444 444 CURVE SMOOTH",
"444 354 OFFCURVE",
"403 301 OFFCURVE",
"323 288 CURVE"
);
}
);
width = 551;
},
{
anchors = (
{
name = bottom;
position = "{200, 0}";
},
{
name = top;
position = "{317, 647}";
}
);
layerId = UUID1;
paths = (
{
closed = 1;
nodes = (
"14 -9 OFFCURVE",
"154 0 OFFCURVE",
"200 0 CURVE SMOOTH",
"242 0 OFFCURVE",
"363 -4 OFFCURVE",
"363 -4 CURVE",
"373 82 LINE",
"368 90 LINE",
"368 90 OFFCURVE",
"349 88 OFFCURVE",
"335 88 CURVE SMOOTH",
"294 88 OFFCURVE",
"285 106 OFFCURVE",
"285 160 CURVE",
"285 208 LINE",
"371 208 LINE SMOOTH",
"505 208 OFFCURVE",
"621 318 OFFCURVE",
"621 445 CURVE SMOOTH",
"621 523 OFFCURVE",
"589 653 OFFCURVE",
"350 653 CURVE SMOOTH",
"350 653 OFFCURVE",
"215 647 OFFCURVE",
"170 647 CURVE SMOOTH",
"121 647 OFFCURVE",
"75 647 OFFCURVE",
"27 647 CURVE",
"17 569 LINE",
"27 557 LINE",
"27 557 OFFCURVE",
"47 559 OFFCURVE",
"62 559 CURVE SMOOTH",
"82 559 OFFCURVE",
"88 546 OFFCURVE",
"88 505 CURVE SMOOTH",
"88 168 LINE SMOOTH",
"88 112 OFFCURVE",
"72 91 OFFCURVE",
"23 83 CURVE",
"14 -9 LINE"
);
},
{
closed = 1;
nodes = (
"287 331 LINE",
"289 394 OFFCURVE",
"292 455 OFFCURVE",
"295 506 CURVE SMOOTH",
"296 525 OFFCURVE",
"298 528 OFFCURVE",
"312 528 CURVE SMOOTH",
"383 528 OFFCURVE",
"415 500 OFFCURVE",
"415 435 CURVE SMOOTH",
"415 371 OFFCURVE",
"396 335 OFFCURVE",
"356 321 CURVE"
);
}
);
width = 606;
}
);
leftKerningGroup = H;
rightKerningGroup = P;
unicode = 0050;
},
{
color = 1;
glyphname = Thorn;
layers = (
{
layerId = UUID0;
paths = (
{
closed = 1;
nodes = (
"56 -12 OFFCURVE",
"121 0 OFFCURVE",
"172 0 CURVE SMOOTH",
"219 0 OFFCURVE",
"303 -3 OFFCURVE",
"303 -3 CURVE",
"312 43 LINE",
"310 47 LINE",
"310 47 OFFCURVE",
"281 44 OFFCURVE",
"257 44 CURVE SMOOTH",
"222 44 OFFCURVE",
"213 58 OFFCURVE",
"213 112 CURVE SMOOTH",
"213 148 LINE",
"284 148 LINE SMOOTH",
"410 148 OFFCURVE",
"521 237 OFFCURVE",
"521 340 CURVE SMOOTH",
"521 445 OFFCURVE",
"445 503 OFFCURVE",
"307 503 CURVE SMOOTH",
"225 503 LINE",
"224 513 OFFCURVE",
"226 523 OFFCURVE",
"227 544 CURVE",
"229 582 OFFCURVE",
"243 594 OFFCURVE",
"299 601 CURVE",
"303 646 LINE",
"303 646 OFFCURVE",
"234 637 OFFCURVE",
"188 637 CURVE SMOOTH",
"147 637 OFFCURVE",
"69 640 OFFCURVE",
"69 640 CURVE",
"62 596 LINE",
"64 592 LINE",
"64 592 OFFCURVE",
"91 594 OFFCURVE",
"106 594 CURVE SMOOTH",
"136 594 OFFCURVE",
"143 582 OFFCURVE",
"143 540 CURVE SMOOTH",
"142 120 LINE SMOOTH",
"142 64 OFFCURVE",
"125 46 OFFCURVE",
"62 34 CURVE",
"56 -12 LINE"
);
},
{
closed = 1;
nodes = (
"287 193 OFFCURVE",
"238 201 OFFCURVE",
"214 209 CURVE",
"215 260 OFFCURVE",
"217 331 OFFCURVE",
"222 446 CURVE SMOOTH",
"224 453 OFFCURVE",
"226 454 OFFCURVE",
"249 454 CURVE SMOOTH",
"379 454 OFFCURVE",
"437 413 OFFCURVE",
"437 321 CURVE SMOOTH",
"437 246 OFFCURVE",
"396 202 OFFCURVE",
"316 192 CURVE"
);
}
);
width = 543;
},
{
layerId = UUID1;
paths = (
{
closed = 1;
nodes = (
"15 -5 OFFCURVE",
"119 0 OFFCURVE",
"181 0 CURVE SMOOTH",
"226 0 OFFCURVE",
"358 -4 OFFCURVE",
"358 -4 CURVE",
"367 80 LINE",
"359 90 LINE",
"359 90 OFFCURVE",
"345 87 OFFCURVE",
"317 87 CURVE SMOOTH",
"291 87 OFFCURVE",
"285 92 OFFCURVE",
"285 116 CURVE SMOOTH",
"285 139 LINE",
"356 139 LINE SMOOTH",
"504 139 OFFCURVE",
"605 217 OFFCURVE",
"605 331 CURVE SMOOTH",
"605 461 OFFCURVE",
"528 522 OFFCURVE",
"363 522 CURVE SMOOTH",
"294 522 LINE",
"294 523 OFFCURVE",
"295 525 OFFCURVE",
"295 527 CURVE",
"298 549 OFFCURVE",
"303 552 OFFCURVE",
"352 562 CURVE",
"359 652 LINE",
"359 652 OFFCURVE",
"230 647 OFFCURVE",
"187 647 CURVE SMOOTH",
"133 647 OFFCURVE",
"80 647 OFFCURVE",
"26 647 CURVE",
"18 572 LINE",
"27 558 LINE",
"27 558 OFFCURVE",
"42 559 OFFCURVE",
"53 559 CURVE SMOOTH",
"81 559 OFFCURVE",
"88 549 OFFCURVE",
"88 508 CURVE SMOOTH",
"88 162 LINE SMOOTH",
"88 106 OFFCURVE",
"76 91 OFFCURVE",
"23 80 CURVE",
"15 -5 LINE"
);
},
{
closed = 1;
nodes = (
"339 246 OFFCURVE",
"313 250 OFFCURVE",
"286 256 CURVE",
"286 290 OFFCURVE",
"288 358 OFFCURVE",
"288 385 CURVE SMOOTH",
"288 401 OFFCURVE",
"294 407 OFFCURVE",
"308 407 CURVE SMOOTH",
"371 407 OFFCURVE",
"399 384 OFFCURVE",
"399 331 CURVE SMOOTH",
"399 283 OFFCURVE",
"383 255 OFFCURVE",
"350 246 CURVE"
);
}
);
width = 605;
}
);
leftKerningGroup = H;
rightKerningGroup = P;
unicode = 00DE;
},
{
color = 1;
glyphname = Q;
layers = (
{
anchors = (
{
name = bottom;
position = "{423, 0}";
},
{
name = top;
position = "{333, 647}";
}
);
layerId = UUID0;
paths = (
{
closed = 1;
nodes = (
"729 -216 OFFCURVE",
"804 -148 OFFCURVE",
"804 -148 CURVE",
"798 -130 LINE",
"794 -127 LINE",
"794 -127 OFFCURVE",
"761 -137 OFFCURVE",
"714 -137 CURVE SMOOTH",
"634 -137 OFFCURVE",
"549 -101 OFFCURVE",
"407 -5 CURVE",
"407 0 LINE",
"550 40 OFFCURVE",
"652 175 OFFCURVE",
"652 341 CURVE SMOOTH",
"652 523 OFFCURVE",
"536 649 OFFCURVE",
"369 649 CURVE SMOOTH",
"184 649 OFFCURVE",
"40 495 OFFCURVE",
"40 297 CURVE SMOOTH",
"40 114 OFFCURVE",
"153 -12 OFFCURVE",
"317 -12 CURVE",
"554 -185 OFFCURVE",
"614 -216 OFFCURVE",
"709 -216 CURVE SMOOTH"
);
},
{
closed = 1;
nodes = (
"217 39 OFFCURVE",
"126 158 OFFCURVE",
"126 329 CURVE SMOOTH",
"126 483 OFFCURVE",
"211 589 OFFCURVE",
"335 589 CURVE SMOOTH",
"470 589 OFFCURVE",
"563 470 OFFCURVE",
"563 299 CURVE SMOOTH",
"563 145 OFFCURVE",
"475 39 OFFCURVE",
"348 39 CURVE SMOOTH"
);
}
);
width = 697;
},
{
anchors = (
{
name = bottom;
position = "{423, 0}";
},
{
name = top;
position = "{333, 647}";
}
);
layerId = UUID1;
paths = (
{
closed = 1;
nodes = (
"690 -242 OFFCURVE",
"829 -141 OFFCURVE",
"829 -141 CURVE",
"812 -73 LINE",
"800 -62 LINE",
"800 -62 OFFCURVE",
"754 -72 OFFCURVE",
"709 -72 CURVE SMOOTH",
"644 -72 OFFCURVE",
"557 -37 OFFCURVE",
"485 18 CURVE",
"485 32 LINE",
"581 90 OFFCURVE",
"640 199 OFFCURVE",
"640 340 CURVE SMOOTH",
"640 551 OFFCURVE",
"540 659 OFFCURVE",
"342 659 CURVE SMOOTH",
"130 659 OFFCURVE",
"15 536 OFFCURVE",
"15 312 CURVE SMOOTH",
"15 103 OFFCURVE",
"120 -12 OFFCURVE",
"313 -12 CURVE",
"519 -207 OFFCURVE",
"571 -242 OFFCURVE",
"653 -242 CURVE SMOOTH"
);
},
{
closed = 1;
nodes = (
"267 114 OFFCURVE",
"244 179 OFFCURVE",
"244 361 CURVE SMOOTH",
"244 478 OFFCURVE",
"265 522 OFFCURVE",
"321 522 CURVE SMOOTH",
"388 522 OFFCURVE",
"411 459 OFFCURVE",
"411 277 CURVE SMOOTH",
"411 159 OFFCURVE",
"389 114 OFFCURVE",
"332 114 CURVE SMOOTH"
);
}
);
width = 659;
}
);
leftKerningGroup = O;
rightKerningGroup = O;
unicode = 0051;
},
{
color = 1;
glyphname = R;
layers = (
{
anchors = (
{
name = bottom;
position = "{306, 0}";
},
{
name = top;
position = "{296, 637}";
}
);
layerId = UUID0;
paths = (
{
closed = 1;
nodes = (
"597 -5 LINE",
"603 29 LINE",
"599 33 LINE",
"545 33 OFFCURVE",
"514 55 OFFCURVE",
"475 118 CURVE SMOOTH",
"365 292 LINE",
"458 334 OFFCURVE",
"512 404 OFFCURVE",
"512 484 CURVE SMOOTH",
"512 581 OFFCURVE",
"435 641 OFFCURVE",
"311 641 CURVE SMOOTH",
"311 641 OFFCURVE",
"222 637 OFFCURVE",
"188 637 CURVE SMOOTH",
"150 637 OFFCURVE",
"77 640 OFFCURVE",
"77 640 CURVE",
"70 596 LINE",
"72 592 LINE",
"72 592 OFFCURVE",
"94 594 OFFCURVE",
"106 594 CURVE SMOOTH",
"135 594 OFFCURVE",
"143 583 OFFCURVE",
"143 540 CURVE SMOOTH",
"142 120 LINE SMOOTH",
"142 62 OFFCURVE",
"128 48 OFFCURVE",
"66 41 CURVE",
"57 -4 LINE",
"57 -4 OFFCURVE",
"122 0 OFFCURVE",
"172 -1 CURVE SMOOTH",
"219 -2 OFFCURVE",
"278 -3 OFFCURVE",
"278 -4 CURVE",
"287 38 LINE",
"285 42 LINE",
"221 42 OFFCURVE",
"213 52 OFFCURVE",
"213 124 CURVE SMOOTH",
"216 273 LINE",
"299 273 LINE",
"406 79 LINE SMOOTH",
"438 21 OFFCURVE",
"479 -16 OFFCURVE",
"512 -16 CURVE"
);
},
{
closed = 1;
nodes = (
"218 329 LINE",
"219 399 OFFCURVE",
"222 469 OFFCURVE",
"228 575 CURVE SMOOTH",
"229 593 OFFCURVE",
"232 598 OFFCURVE",
"246 598 CURVE SMOOTH",
"368 598 OFFCURVE",
"429 554 OFFCURVE",
"429 466 CURVE SMOOTH",
"429 348 OFFCURVE",
"321 319 OFFCURVE",
"321 319 CURVE"
);
}
);
width = 611;
},
{
anchors = (
{
name = bottom;
position = "{339, 0}";
},
{
name = top;
position = "{329, 647}";
}
);
layerId = UUID1;
paths = (
{
closed = 1;
nodes = (
"672 -5 LINE",
"681 68 LINE",
"670 84 LINE",
"641 84 OFFCURVE",
"607 115 OFFCURVE",
"573 172 CURVE SMOOTH",
"511 276 LINE",
"590 323 OFFCURVE",
"631 387 OFFCURVE",
"631 465 CURVE SMOOTH",
"631 591 OFFCURVE",
"539 653 OFFCURVE",
"355 653 CURVE SMOOTH",
"355 653 OFFCURVE",
"218 647 OFFCURVE",
"170 647 CURVE SMOOTH",
"129 647 OFFCURVE",
"28 648 OFFCURVE",
"28 648 CURVE",
"17 569 LINE",
"27 557 LINE",
"27 557 OFFCURVE",
"47 559 OFFCURVE",
"62 559 CURVE SMOOTH",
"82 559 OFFCURVE",
"88 548 OFFCURVE",
"88 515 CURVE SMOOTH",
"88 168 LINE SMOOTH",
"88 112 OFFCURVE",
"72 91 OFFCURVE",
"23 83 CURVE",
"14 -9 LINE",
"14 -9 OFFCURVE",
"113 0 OFFCURVE",
"187 0 CURVE SMOOTH",
"229 0 OFFCURVE",
"351 -4 OFFCURVE",
"351 -4 CURVE",
"361 80 LINE",
"356 88 LINE",
"292 91 OFFCURVE",
"285 98 OFFCURVE",
"285 160 CURVE SMOOTH",
"285 228 LINE",
"341 228 LINE",
"403 75 LINE SMOOTH",
"429 9 OFFCURVE",
"461 -16 OFFCURVE",
"517 -16 CURVE"
);
},
{
closed = 1;
nodes = (
"288 354 LINE",
"289 405 OFFCURVE",
"291 455 OFFCURVE",
"295 506 CURVE SMOOTH",
"296 525 OFFCURVE",
"298 528 OFFCURVE",
"312 528 CURVE SMOOTH",
"390 528 OFFCURVE",
"425 502 OFFCURVE",
"425 445 CURVE SMOOTH",
"425 388 OFFCURVE",
"409 363 OFFCURVE",
"364 344 CURVE"
);
}
);
width = 678;
}
);
leftKerningGroup = H;
rightKerningGroup = R;
unicode = 0052;
},
{
color = 1;
glyphname = S;
layers = (
{
anchors = (
{
name = bottom;
position = "{245, 0}";
},
{
name = top;
position = "{275, 637}";
}
);
background = {
paths = (
{
closed = 1;
nodes = (
"464 643 LINE",
"464 643 OFFCURVE",
"36 -4 OFFCURVE",
"36 -4 CURVE"
);
}
);
};
layerId = UUID0;
paths = (
{
closed = 1;
nodes = (
"364 -12 OFFCURVE",
"466 69 OFFCURVE",
"466 183 CURVE SMOOTH",
"466 274 OFFCURVE",
"368 320 OFFCURVE",
"281 365 CURVE SMOOTH",
"210 402 OFFCURVE",
"145 439 OFFCURVE",
"145 499 CURVE SMOOTH",
"145 554 OFFCURVE",
"198 595 OFFCURVE",
"271 595 CURVE SMOOTH",
"361 595 OFFCURVE",
"390 572 OFFCURVE",
"390 502 CURVE SMOOTH",
"390 471 OFFCURVE",
"387 450 OFFCURVE",
"387 450 CURVE",
"393 445 LINE",
"432 449 LINE",
"438 541 OFFCURVE",
"454 618 OFFCURVE",
"454 618 CURVE",
"451 624 LINE",
"451 624 OFFCURVE",
"387 649 OFFCURVE",
"298 649 CURVE SMOOTH",
"168 649 OFFCURVE",
"68 568 OFFCURVE",
"68 463 CURVE SMOOTH",
"68 376 OFFCURVE",
"151 330 OFFCURVE",
"231 288 CURVE SMOOTH",
"308 248 OFFCURVE",
"383 212 OFFCURVE",
"383 147 CURVE SMOOTH",
"383 79 OFFCURVE",
"327 37 OFFCURVE",
"244 37 CURVE SMOOTH",
"136 37 OFFCURVE",
"114 67 OFFCURVE",
"114 211 CURVE",
"69 206 LINE",
"69 109 OFFCURVE",
"57 32 OFFCURVE",
"57 32 CURVE",
"62 22 LINE",
"62 22 OFFCURVE",
"125 -12 OFFCURVE",
"219 -12 CURVE SMOOTH"
);
}
);
width = 530;
},
{
anchors = (
{
name = bottom;
position = "{254, 0}";
},
{
name = top;
position = "{286, 647}";
}
);
background = {
paths = (
{
closed = 1;
nodes = (
"464 643 LINE",
"464 643 OFFCURVE",
"36 -4 OFFCURVE",
"36 -4 CURVE"
);
}
);
};
layerId = UUID1;
paths = (
{
closed = 1;
nodes = (
"416 -12 OFFCURVE",
"535 67 OFFCURVE",
"535 197 CURVE SMOOTH",
"535 308 OFFCURVE",
"445 353 OFFCURVE",
"364 387 CURVE SMOOTH",
"298 415 OFFCURVE",
"238 435 OFFCURVE",
"238 476 CURVE SMOOTH",
"238 503 OFFCURVE",
"264 521 OFFCURVE",
"301 521 CURVE SMOOTH",
"348 521 OFFCURVE",
"374 498 OFFCURVE",
"374 451 CURVE SMOOTH",
"374 446 OFFCURVE",
"374 435 OFFCURVE",
"374 435 CURVE",
"386 427 LINE",
"502 435 LINE",
"510 525 OFFCURVE",
"529 609 OFFCURVE",
"529 609 CURVE",
"517 631 LINE",
"517 631 OFFCURVE",
"436 659 OFFCURVE",
"326 659 CURVE SMOOTH",
"141 659 OFFCURVE",
"18 574 OFFCURVE",
"18 445 CURVE SMOOTH",
"18 341 OFFCURVE",
"95 293 OFFCURVE",
"171 259 CURVE SMOOTH",
"243 226 OFFCURVE",
"314 206 OFFCURVE",
"314 162 CURVE SMOOTH",
"314 137 OFFCURVE",
"289 121 OFFCURVE",
"248 121 CURVE SMOOTH",
"191 121 OFFCURVE",
"160 151 OFFCURVE",
"160 223 CURVE",
"34 214 LINE",
"31 148 OFFCURVE",
"13 49 OFFCURVE",
"13 49 CURVE",
"25 31 LINE",
"25 31 OFFCURVE",
"105 -12 OFFCURVE",
"222 -12 CURVE SMOOTH"
);
}
);
width = 551;
}
);
leftKerningGroup = S;
rightKerningGroup = S;
unicode = 0053;
},
{
color = 1;
glyphname = Saltillo;
layers = (
{
background = {
paths = (
{
closed = 1;
nodes = (
"180 648 LINE",
"104 633 LINE",
"102 575 OFFCURVE",
"92 461 OFFCURVE",
"73 362 CURVE",
"84 360 LINE",
"114 375 LINE",
"143 468 OFFCURVE",
"173 581 OFFCURVE",
"187 639 CURVE"
);
}
);
};
layerId = UUID0;
paths = (
{
closed = 1;
nodes = (
"89 349 LINE",
"112 456 OFFCURVE",
"130 586 OFFCURVE",
"138 653 CURVE",
"130 662 LINE",
"54 647 LINE",
"59 580 OFFCURVE",
"62 450 OFFCURVE",
"50 336 CURVE",
"61 334 LINE"
);
}
);
width = 177;
},
{
background = {
paths = (
{
closed = 1;
nodes = (
"76 601 LINE",
"94 581 OFFCURVE",
"105 551 OFFCURVE",
"105 525 CURVE SMOOTH",
"105 488 OFFCURVE",
"80 446 OFFCURVE",
"41 419 CURVE",
"41 394 LINE",
"99 348 LINE",
"201 406 OFFCURVE",
"266 487 OFFCURVE",
"266 558 CURVE SMOOTH",
"266 619 OFFCURVE",
"232 659 OFFCURVE",
"181 659 CURVE SMOOTH",
"152 659 OFFCURVE",
"114 642 OFFCURVE",
"79 615 CURVE"
);
}
);
};
layerId = UUID1;
paths = (
{
closed = 1;
nodes = (
"156 345 LINE",
"177 457 OFFCURVE",
"197 583 OFFCURVE",
"204 647 CURVE",
"195 659 LINE",
"62 645 LINE",
"66 577 OFFCURVE",
"71 444 OFFCURVE",
"63 326 CURVE",
"82 320 LINE"
);
}
);
width = 249;
}
);
leftKerningGroup = asterisk;
rightKerningGroup = asterisk;
unicode = A78B;
},
{
color = 1;
glyphname = Germandbls;
layers = (
{
layerId = UUID0;
paths = (
{
closed = 1;
nodes = (
"622 -12 OFFCURVE",
"718 79 OFFCURVE",
"718 203 CURVE SMOOTH",
"718 305 OFFCURVE",
"630 380 OFFCURVE",
"506 384 CURVE SMOOTH",
"470 385 LINE",
"646 623 LINE",
"633 643 LINE",
"633 643 OFFCURVE",
"409 637 OFFCURVE",
"264 637 CURVE SMOOTH",
"204 637 OFFCURVE",
"77 640 OFFCURVE",
"77 640 CURVE",
"70 596 LINE",
"72 592 LINE",
"72 592 OFFCURVE",
"94 594 OFFCURVE",
"106 594 CURVE SMOOTH",
"136 594 OFFCURVE",
"143 583 OFFCURVE",
"143 540 CURVE SMOOTH",
"142 120 LINE SMOOTH",
"142 64 OFFCURVE",
"126 46 OFFCURVE",
"64 34 CURVE",
"58 -12 LINE",
"58 -12 OFFCURVE",
"122 0 OFFCURVE",
"172 0 CURVE SMOOTH",
"218 0 OFFCURVE",
"291 -4 OFFCURVE",
"291 -4 CURVE",
"300 43 LINE",
"298 47 LINE",
"298 47 OFFCURVE",
"271 44 OFFCURVE",
"257 44 CURVE SMOOTH",
"222 44 OFFCURVE",
"213 58 OFFCURVE",
"213 112 CURVE",
"227 548 LINE SMOOTH",
"228 585 OFFCURVE",
"232 587 OFFCURVE",
"297 587 CURVE SMOOTH",
"543 587 LINE",
"362 335 LINE",
"380 304 LINE",
"380 304 OFFCURVE",
"422 311 OFFCURVE",
"461 311 CURVE SMOOTH",
"575 311 OFFCURVE",
"635 261 OFFCURVE",
"635 167 CURVE SMOOTH",
"635 91 OFFCURVE",
"586 37 OFFCURVE",
"516 37 CURVE SMOOTH",
"408 37 OFFCURVE",
"386 65 OFFCURVE",
"386 201 CURVE",
"341 196 LINE",
"338 110 OFFCURVE",
"329 32 OFFCURVE",
"329 32 CURVE",
"334 22 LINE",
"334 22 OFFCURVE",
"397 -12 OFFCURVE",
"491 -12 CURVE SMOOTH"
);
}
);
width = 748;
},
{
layerId = UUID1;
paths = (
{
closed = 1;
nodes = (
"735 -12 OFFCURVE",
"843 81 OFFCURVE",
"843 225 CURVE SMOOTH",
"843 337 OFFCURVE",
"765 422 OFFCURVE",
"659 422 CURVE SMOOTH",
"640 422 LINE",
"804 602 LINE",
"777 655 LINE",
"777 655 OFFCURVE",
"488 647 OFFCURVE",
"359 647 CURVE SMOOTH",
"268 647 OFFCURVE",
"32 650 OFFCURVE",
"32 650 CURVE",
"23 571 LINE",
"35 557 LINE",
"35 557 OFFCURVE",
"50 559 OFFCURVE",
"61 559 CURVE SMOOTH",
"83 559 OFFCURVE",
"88 548 OFFCURVE",
"88 505 CURVE SMOOTH",
"87 170 LINE SMOOTH",
"87 110 OFFCURVE",
"72 90 OFFCURVE",
"22 82 CURVE",
"13 -10 LINE",
"13 -10 OFFCURVE",
"121 0 OFFCURVE",
"224 0 CURVE SMOOTH",
"258 0 OFFCURVE",
"340 -3 OFFCURVE",
"340 -3 CURVE",
"352 98 LINE",
"336 116 LINE",
"336 116 OFFCURVE",
"326 115 OFFCURVE",
"312 115 CURVE SMOOTH",
"289 115 OFFCURVE",
"284 127 OFFCURVE",
"284 175 CURVE",
"296 500 LINE SMOOTH",
"297 522 OFFCURVE",
"303 527 OFFCURVE",
"330 527 CURVE SMOOTH",
"546 527 LINE",
"383 335 LINE",
"424 276 LINE",
"424 276 OFFCURVE",
"479 290 OFFCURVE",
"524 290 CURVE SMOOTH",
"594 290 OFFCURVE",
"632 259 OFFCURVE",
"632 203 CURVE SMOOTH",
"632 150 OFFCURVE",
"610 121 OFFCURVE",
"570 121 CURVE SMOOTH",
"528 121 OFFCURVE",
"508 151 OFFCURVE",
"508 213 CURVE",
"392 204 LINE",
"388 142 OFFCURVE",
"371 49 OFFCURVE",
"371 49 CURVE",
"383 31 LINE",
"383 31 OFFCURVE",
"459 -12 OFFCURVE",
"570 -12 CURVE SMOOTH"
);
}
);
width = 853;
}
);
leftKerningGroup = H;
rightKerningGroup = Germandbls;
unicode = 1E9E;
},
{
color = 1;
glyphname = Schwa;
layers = (
{
anchors = (
{
name = bottom;
position = "{326, 0}";
},
{
name = top;
position = "{326, 637}";
}
);
background = {
paths = (
{
closed = 1;
nodes = (
"21 289 LINE",
"32 256 LINE",
"584 263 LINE",
"584 306 LINE",
"32 306 LINE"
);
},
{
closed = 1;
nodes = (
"543 299 LINE",
"543 145 OFFCURVE",
"455 39 OFFCURVE",
"328 39 CURVE SMOOTH",
"211 39 OFFCURVE",
"126 134 OFFCURVE",
"109 278 CURVE",
"21 289 LINE",
"24 110 OFFCURVE",
"134 -12 OFFCURVE",
"297 -12 CURVE SMOOTH",
"486 -12 OFFCURVE",
"632 142 OFFCURVE",
"632 341 CURVE"
);
},
{
closed = 0;
nodes = (
"632 341 LINE",
"632 521 OFFCURVE",
"500 647 OFFCURVE",
"310 647 CURVE SMOOTH",
"230 647 OFFCURVE",
"92 556 OFFCURVE",
"92 556 CURVE",
"104 525 LINE",
"112 524 LINE",
"112 524 OFFCURVE",
"207 567 OFFCURVE",
"301 567 CURVE SMOOTH",
"447 567 OFFCURVE",
"543 452 OFFCURVE",
"543 284 CURVE SMOOTH"
);
}
);
};
layerId = UUID0;
paths = (
{
closed = 1;
nodes = (
"484 -12 OFFCURVE",
"632 145 OFFCURVE",
"632 333 CURVE SMOOTH",
"632 512 OFFCURVE",
"499 647 OFFCURVE",
"331 647 CURVE SMOOTH",
"260 647 OFFCURVE",
"199 623 OFFCURVE",
"92 556 CURVE",
"104 525 LINE",
"112 524 LINE",
"171 550 OFFCURVE",
"247 567 OFFCURVE",
"302 567 CURVE SMOOTH",
"443 567 OFFCURVE",
"543 455 OFFCURVE",
"543 296 CURVE SMOOTH",
"543 146 OFFCURVE",
"454 39 OFFCURVE",
"329 39 CURVE SMOOTH",
"212 39 OFFCURVE",
"127 132 OFFCURVE",
"109 278 CURVE",
"21 289 LINE",
"24 108 OFFCURVE",
"135 -12 OFFCURVE",
"298 -12 CURVE SMOOTH"
);
},
{
closed = 1;
nodes = (
"584 263 LINE",
"584 306 LINE",
"32 306 LINE",
"21 289 LINE",
"32 256 LINE"
);
}
);
width = 672;
},
{
anchors = (
{
name = bottom;
position = "{317, 0}";
},
{
name = top;
position = "{317, 647}";
}
);
background = {
paths = (
{
closed = 1;
nodes = (
"511 -12 OFFCURVE",
"629 115 OFFCURVE",
"629 340 CURVE SMOOTH",
"629 539 OFFCURVE",
"501 659 OFFCURVE",
"288 659 CURVE SMOOTH",
"208 659 OFFCURVE",
"95 600 OFFCURVE",
"31 555 CURVE",
"55 477 LINE",
"67 472 LINE",
"104 489 OFFCURVE",
"177 512 OFFCURVE",
"246 512 CURVE SMOOTH",
"358 512 OFFCURVE",
"402 459 OFFCURVE",
"402 306 CURVE SMOOTH",
"402 159 OFFCURVE",
"378 114 OFFCURVE",
"321 114 CURVE SMOOTH",
"264 114 OFFCURVE",
"240 163 OFFCURVE",
"234 297 CURVE",
"4 297 LINE",
"9 97 OFFCURVE",
"114 -12 OFFCURVE",
"302 -12 CURVE SMOOTH"
);
},
{
closed = 1;
nodes = (
"503 246 LINE",
"503 326 LINE",
"11 326 LINE",
"4 297 LINE",
"11 226 LINE"
);
}
);
};
layerId = UUID1;
paths = (
{
closed = 1;
nodes = (
"505 -12 OFFCURVE",
"629 116 OFFCURVE",
"629 325 CURVE SMOOTH",
"629 529 OFFCURVE",
"506 659 OFFCURVE",
"312 659 CURVE SMOOTH",
"219 659 OFFCURVE",
"145 632 OFFCURVE",
"31 555 CURVE",
"55 477 LINE",
"67 472 LINE",
"119 496 OFFCURVE",
"192 512 OFFCURVE",
"249 512 CURVE SMOOTH",
"363 512 OFFCURVE",
"402 457 OFFCURVE",
"402 294 CURVE SMOOTH",
"402 167 OFFCURVE",
"378 114 OFFCURVE",
"321 114 CURVE SMOOTH",
"262 114 OFFCURVE",
"237 169 OFFCURVE",
"234 307 CURVE",
"4 314 LINE",
"6 100 OFFCURVE",
"108 -12 OFFCURVE",
"301 -12 CURVE SMOOTH"
);
},
{
closed = 1;
nodes = (
"503 256 LINE",
"503 336 LINE",
"15 336 LINE",
"4 314 LINE",
"46 237 LINE"
);
}
);
width = 642;
}
);
leftKerningGroup = O;
rightKerningGroup = O;
unicode = 018F;
},
{
color = 1;
glyphname = T;
layers = (
{
anchors = (
{
name = bottom;
position = "{273, 0}";
},
{
name = center;
position = "{273, 324}";
},
{
name = top;
position = "{273, 637}";
}
);
background = {
paths = (
{
closed = 1;
nodes = (
"233 162 LINE SMOOTH",
"233 60 OFFCURVE",
"229 48 OFFCURVE",
"133 39 CURVE",
"125 -4 LINE",
"125 -4 OFFCURVE",
"213 0 OFFCURVE",
"262 0 CURVE SMOOTH",
"309 0 OFFCURVE",
"409 -3 OFFCURVE",
"409 -3 CURVE",
"418 43 LINE",
"415 47 LINE",
"415 47 OFFCURVE",
"395 44 OFFCURVE",
"360 44 CURVE SMOOTH",
"319 44 OFFCURVE",
"303 63 OFFCURVE",
"303 112 CURVE SMOOTH",
"303 274 OFFCURVE",
"311 518 OFFCURVE",
"319 598 CURVE",
"451 592 OFFCURVE",
"467 599 OFFCURVE",
"488 468 CURVE",
"535 472 LINE",
"535 472 OFFCURVE",
"523 556 OFFCURVE",
"520 641 CURVE",
"511 649 LINE",
"426 638 LINE",
"116 638 LINE",
"33 649 LINE",
"24 641 LINE",
"21 556 OFFCURVE",
"9 468 OFFCURVE",
"9 468 CURVE",
"56 472 LINE",
"75 600 OFFCURVE",
"91 592 OFFCURVE",
"233 598 CURVE"
);
}
);
};
layerId = UUID0;
paths = (
{
closed = 1;
nodes = (
"166 -2 OFFCURVE",
"229 0 OFFCURVE",
"262 0 CURVE SMOOTH",
"296 0 OFFCURVE",
"366 -2 OFFCURVE",
"409 -3 CURVE",
"418 43 LINE",
"415 47 LINE",
"398 45 OFFCURVE",
"378 44 OFFCURVE",
"360 44 CURVE SMOOTH",
"319 44 OFFCURVE",
"303 63 OFFCURVE",
"303 112 CURVE SMOOTH",
"303 275 OFFCURVE",
"311 518 OFFCURVE",
"319 598 CURVE",
"464 591 OFFCURVE",
"468 588 OFFCURVE",
"488 468 CURVE",
"535 472 LINE",
"528 525 OFFCURVE",
"522 594 OFFCURVE",
"520 641 CURVE",
"511 649 LINE",
"426 638 LINE",
"116 638 LINE",
"33 649 LINE",
"24 641 LINE",
"22 594 OFFCURVE",
"16 525 OFFCURVE",
"9 468 CURVE",
"56 472 LINE",
"73 590 OFFCURVE",
"77 593 OFFCURVE",
"233 598 CURVE",
"233 162 LINE SMOOTH",
"233 56 OFFCURVE",
"226 47 OFFCURVE",
"133 39 CURVE",
"125 -4 LINE"
);
}
);
width = 546;
},
{
anchors = (
{
name = bottom;
position = "{297, 0}";
},
{
name = center;
position = "{297, 274}";
},
{
name = top;
position = "{297, 647}";
}
);
background = {
paths = (
{
closed = 1;
nodes = (
"197 168 LINE SMOOTH",
"197 106 OFFCURVE",
"180 90 OFFCURVE",
"98 83 CURVE",
"90 -9 LINE",
"90 -9 OFFCURVE",
"227 0 OFFCURVE",
"291 0 CURVE SMOOTH",
"348 0 OFFCURVE",
"494 -6 OFFCURVE",
"494 -6 CURVE",
"503 88 LINE",
"498 94 LINE",
"498 94 OFFCURVE",
"472 91 OFFCURVE",
"447 91 CURVE SMOOTH",
"409 91 OFFCURVE",
"395 109 OFFCURVE",
"395 160 CURVE SMOOTH",
"395 292 OFFCURVE",
"397 427 OFFCURVE",
"400 526 CURVE",
"454 526 OFFCURVE",
"459 506 OFFCURVE",
"469 382 CURVE",
"593 390 LINE",
"593 390 OFFCURVE",
"589 527 OFFCURVE",
"588 644 CURVE",
"575 658 LINE",
"454 647 LINE",
"140 647 LINE",
"21 658 LINE",
"8 644 LINE",
"7 530 OFFCURVE",
"0 382 OFFCURVE",
"0 382 CURVE",
"124 390 LINE",
"133 501 OFFCURVE",
"142 526 OFFCURVE",
"197 526 CURVE"
);
}
);
};
layerId = UUID1;
paths = (
{
closed = 1;
nodes = (
"165 -4 OFFCURVE",
"252 0 OFFCURVE",
"291 0 CURVE SMOOTH",
"331 0 OFFCURVE",
"428 -3 OFFCURVE",
"494 -6 CURVE",
"503 88 LINE",
"498 94 LINE",
"476 92 OFFCURVE",
"459 91 OFFCURVE",
"447 91 CURVE SMOOTH",
"409 91 OFFCURVE",
"395 109 OFFCURVE",
"395 160 CURVE SMOOTH",
"395 281 OFFCURVE",
"397 417 OFFCURVE",
"400 526 CURVE",
"452 526 OFFCURVE",
"459 512 OFFCURVE",
"469 382 CURVE",
"593 390 LINE",
"591 443 OFFCURVE",
"589 549 OFFCURVE",
"588 644 CURVE",
"575 658 LINE",
"454 647 LINE",
"140 647 LINE",
"21 658 LINE",
"8 644 LINE",
"7 574 OFFCURVE",
"4 461 OFFCURVE",
"0 382 CURVE",
"124 390 LINE",
"133 506 OFFCURVE",
"144 526 OFFCURVE",
"197 526 CURVE",
"197 168 LINE SMOOTH",
"197 105 OFFCURVE",
"179 90 OFFCURVE",
"98 83 CURVE",
"90 -9 LINE"
);
}
);
width = 593;
}
);
leftKerningGroup = T;
rightKerningGroup = T;
unicode = 0054;
},
{
color = 0;
glyphname = Tbar;
layers = (
{
background = {
components = (
{
alignment = -1;
name = T;
}
);
paths = (
{
closed = 1;
nodes = (
"126 297 OFFCURVE",
"201 298 OFFCURVE",
"253 298 CURVE SMOOTH",
"406 299 LINE",
"410 337 LINE",
"397 351 LINE",
"397 351 OFFCURVE",
"330 346 OFFCURVE",
"275 346 CURVE SMOOTH",
"219 346 OFFCURVE",
"124 347 OFFCURVE",
"124 347 CURVE",
"117 306 LINE",
"126 297 LINE"
);
}
);
};
components = (
{
name = T;
},
{
name = strokeshortcomb;
transform = "{1, 0, 0, 1, 39, 81}";
}
);
layerId = UUID0;
width = 546;
},
{
background = {
components = (
{
alignment = -1;
name = T;
}
);
paths = (
{
closed = 1;
nodes = (
"108 241 OFFCURVE",
"222 242 OFFCURVE",
"298 242 CURVE SMOOTH",
"485 242 LINE",
"490 297 LINE",
"475 312 LINE",
"475 312 OFFCURVE",
"380 308 OFFCURVE",
"324 308 CURVE SMOOTH",
"241 308 OFFCURVE",
"105 309 OFFCURVE",
"105 309 CURVE",
"97 251 LINE",
"108 241 LINE"
);
}
);
};
components = (
{
name = T;
},
{
name = strokeshortcomb;
transform = "{1, 0, 0, 1, 49, 17}";
}
);
layerId = UUID1;
width = 593;
}
);
leftKerningGroup = T;
rightKerningGroup = T;
unicode = 0166;
},
{
color = 1;
glyphname = U;
layers = (
{
anchors = (
{
name = bottom;
position = "{341, 0}";
},
{
name = ogonek;
position = "{613, 10}";
},
{
name = top;
position = "{341, 637}";
},
{
name = topright;
position = "{661, 637}";
}
);
layerId = UUID0;
paths = (
{
closed = 1;
nodes = (
"484 -12 OFFCURVE",
"575 68 OFFCURVE",
"575 208 CURVE SMOOTH",
"575 544 LINE SMOOTH",
"575 585 OFFCURVE",
"586 593 OFFCURVE",
"644 601 CURVE",
"648 646 LINE",
"648 646 OFFCURVE",
"594 637 OFFCURVE",
"551 637 CURVE SMOOTH",
"513 637 OFFCURVE",
"438 640 OFFCURVE",
"438 640 CURVE",
"431 596 LINE",
"433 592 LINE",
"433 592 OFFCURVE",
"464 594 OFFCURVE",
"476 594 CURVE SMOOTH",
"505 594 OFFCURVE",
"510 586 OFFCURVE",
"513 540 CURVE SMOOTH",
"513 540 OFFCURVE",
"519 284 OFFCURVE",
"519 214 CURVE SMOOTH",
"519 104 OFFCURVE",
"460 45 OFFCURVE",
"351 45 CURVE SMOOTH",
"243 45 OFFCURVE",
"184 118 OFFCURVE",
"184 250 CURVE",
"192 544 LINE SMOOTH",
"194 582 OFFCURVE",
"206 594 OFFCURVE",
"256 601 CURVE",
"260 646 LINE",
"260 646 OFFCURVE",
"198 637 OFFCURVE",
"155 637 CURVE SMOOTH",
"117 637 OFFCURVE",
"42 640 OFFCURVE",
"42 640 CURVE",
"35 596 LINE",
"37 592 LINE",
"37 592 OFFCURVE",
"59 594 OFFCURVE",
"71 594 CURVE SMOOTH",
"101 594 OFFCURVE",
"108 583 OFFCURVE",
"108 540 CURVE SMOOTH",
"108 209 LINE SMOOTH",
"108 68 OFFCURVE",
"187 -12 OFFCURVE",
"327 -12 CURVE SMOOTH"
);
}
);
width = 681;
},
{
anchors = (
{
name = bottom;
position = "{314, 0}";
},
{
name = ogonek;
position = "{564, 10}";
},
{
name = top;
position = "{314, 647}";
},
{
name = topright;
position = "{607, 647}";
}
);
layerId = UUID1;
paths = (
{
closed = 1;
nodes = (
"481 -12 OFFCURVE",
"572 72 OFFCURVE",
"572 234 CURVE SMOOTH",
"572 516 LINE SMOOTH",
"572 540 OFFCURVE",
"578 546 OFFCURVE",
"620 560 CURVE",
"628 650 LINE",
"628 650 OFFCURVE",
"545 647 OFFCURVE",
"484 647 CURVE SMOOTH",
"447 647 OFFCURVE",
"364 650 OFFCURVE",
"364 650 CURVE",
"353 561 LINE",
"356 557 LINE",
"356 557 OFFCURVE",
"369 559 OFFCURVE",
"379 559 CURVE SMOOTH",
"399 559 OFFCURVE",
"405 546 OFFCURVE",
"405 505 CURVE SMOOTH",
"405 505 OFFCURVE",
"406 265 OFFCURVE",
"406 203 CURVE SMOOTH",
"406 141 OFFCURVE",
"384 115 OFFCURVE",
"334 115 CURVE SMOOTH",
"284 115 OFFCURVE",
"257 156 OFFCURVE",
"257 220 CURVE",
"263 509 LINE SMOOTH",
"264 540 OFFCURVE",
"276 555 OFFCURVE",
"311 558 CURVE",
"321 651 LINE",
"321 651 OFFCURVE",
"226 647 OFFCURVE",
"187 647 CURVE SMOOTH",
"108 647 OFFCURVE",
"10 650 OFFCURVE",
"10 650 CURVE",
"0 561 LINE",
"2 557 LINE",
"2 557 OFFCURVE",
"21 559 OFFCURVE",
"31 559 CURVE SMOOTH",
"54 559 OFFCURVE",
"59 549 OFFCURVE",
"59 505 CURVE SMOOTH",
"59 199 LINE SMOOTH",
"59 52 OFFCURVE",
"134 -12 OFFCURVE",
"305 -12 CURVE SMOOTH"
);
}
);
width = 627;
}
);
leftKerningGroup = U;
rightKerningGroup = U;
unicode = 0055;
},
{
color = 1;
glyphname = Uhorn;
layers = (
{
anchors = (
{
name = top;
position = "{348, 637}";
}
);
background = {
paths = (
{
closed = 1;
nodes = (
"192 544 LINE SMOOTH",
"194 582 OFFCURVE",
"206 594 OFFCURVE",
"256 601 CURVE",
"260 646 LINE",
"260 646 OFFCURVE",
"198 637 OFFCURVE",
"155 637 CURVE SMOOTH",
"117 637 OFFCURVE",
"42 640 OFFCURVE",
"42 640 CURVE",
"35 596 LINE",
"37 592 LINE",
"37 592 OFFCURVE",
"59 594 OFFCURVE",
"71 594 CURVE SMOOTH",
"101 594 OFFCURVE",
"108 583 OFFCURVE",
"108 540 CURVE SMOOTH",
"108 209 LINE SMOOTH",
"108 68 OFFCURVE",
"187 -12 OFFCURVE",
"327 -12 CURVE SMOOTH",
"484 -12 OFFCURVE",
"575 68 OFFCURVE",
"575 208 CURVE SMOOTH",
"575 544 LINE SMOOTH",
"575 579 OFFCURVE",
"583 588 OFFCURVE",
"614 597 CURVE SMOOTH",
"654 609 OFFCURVE",
"682 650 OFFCURVE",
"682 705 CURVE SMOOTH",
"682 753 OFFCURVE",
"662 783 OFFCURVE",
"631 783 CURVE SMOOTH",
"615 783 OFFCURVE",
"594 774 OFFCURVE",
"573 757 CURVE",
"571 743 LINE",
"591 724 OFFCURVE",
"603 697 OFFCURVE",
"603 673 CURVE SMOOTH",
"603 649 OFFCURVE",
"590 637 OFFCURVE",
"562 637 CURVE SMOOTH",
"511 637 OFFCURVE",
"438 640 OFFCURVE",
"438 640 CURVE",
"431 596 LINE",
"433 592 LINE",
"433 592 OFFCURVE",
"464 594 OFFCURVE",
"476 594 CURVE SMOOTH",
"505 594 OFFCURVE",
"510 587 OFFCURVE",
"513 540 CURVE SMOOTH",
"513 540 OFFCURVE",
"519 284 OFFCURVE",
"519 214 CURVE SMOOTH",
"519 104 OFFCURVE",
"460 45 OFFCURVE",
"351 45 CURVE SMOOTH",
"243 45 OFFCURVE",
"184 118 OFFCURVE",
"184 250 CURVE"
);
}
);
};
layerId = UUID0;
paths = (
{
closed = 1;
nodes = (
"484 -12 OFFCURVE",
"575 68 OFFCURVE",
"575 208 CURVE SMOOTH",
"575 544 LINE SMOOTH",
"575 589 OFFCURVE",
"600 595 OFFCURVE",
"628 609 CURVE SMOOTH",
"653 622 OFFCURVE",
"680 649 OFFCURVE",
"680 705 CURVE SMOOTH",
"680 741 OFFCURVE",
"660 763 OFFCURVE",
"629 763 CURVE SMOOTH",
"613 763 OFFCURVE",
"594 753 OFFCURVE",
"573 737 CURVE",
"571 723 LINE",
"591 710 OFFCURVE",
"603 690 OFFCURVE",
"603 673 CURVE SMOOTH",
"603 649 OFFCURVE",
"590 637 OFFCURVE",
"562 637 CURVE SMOOTH",
"511 637 OFFCURVE",
"438 640 OFFCURVE",
"438 640 CURVE",
"431 596 LINE",
"433 592 LINE",
"433 592 OFFCURVE",
"464 594 OFFCURVE",
"476 594 CURVE SMOOTH",
"505 594 OFFCURVE",
"510 587 OFFCURVE",
"513 540 CURVE",
"513 540 OFFCURVE",
"519 284 OFFCURVE",
"519 214 CURVE SMOOTH",
"519 104 OFFCURVE",
"460 45 OFFCURVE",
"351 45 CURVE SMOOTH",
"243 45 OFFCURVE",
"184 118 OFFCURVE",
"184 250 CURVE",
"192 544 LINE",
"194 582 OFFCURVE",
"206 594 OFFCURVE",
"256 601 CURVE",
"260 646 LINE",
"260 646 OFFCURVE",
"198 637 OFFCURVE",
"155 637 CURVE SMOOTH",
"117 637 OFFCURVE",
"42 640 OFFCURVE",
"42 640 CURVE",
"35 596 LINE",
"37 592 LINE",
"37 592 OFFCURVE",
"59 594 OFFCURVE",
"71 594 CURVE SMOOTH",
"101 594 OFFCURVE",
"108 583 OFFCURVE",
"108 540 CURVE SMOOTH",
"108 209 LINE SMOOTH",
"108 68 OFFCURVE",
"187 -12 OFFCURVE",
"327 -12 CURVE SMOOTH"
);
}
);
width = 691;
},
{
anchors = (
{
name = top;
position = "{341, 647}";
}
);
background = {
paths = (
{
closed = 1;
nodes = (
"263 509 LINE SMOOTH",
"264 541 OFFCURVE",
"277 554 OFFCURVE",
"311 558 CURVE",
"321 651 LINE",
"321 651 OFFCURVE",
"226 647 OFFCURVE",
"187 647 CURVE SMOOTH",
"108 647 OFFCURVE",
"10 650 OFFCURVE",
"10 650 CURVE",
"0 561 LINE",
"2 557 LINE",
"2 557 OFFCURVE",
"21 559 OFFCURVE",
"31 559 CURVE SMOOTH",
"54 559 OFFCURVE",
"59 549 OFFCURVE",
"59 505 CURVE SMOOTH",
"59 199 LINE SMOOTH",
"59 52 OFFCURVE",
"134 -12 OFFCURVE",
"305 -12 CURVE SMOOTH",
"481 -12 OFFCURVE",
"572 72 OFFCURVE",
"572 234 CURVE SMOOTH",
"572 516 LINE SMOOTH",
"572 546 OFFCURVE",
"581 562 OFFCURVE",
"602 571 CURVE SMOOTH",
"682 595 OFFCURVE",
"738 664 OFFCURVE",
"738 741 CURVE SMOOTH",
"738 802 OFFCURVE",
"704 842 OFFCURVE",
"653 842 CURVE SMOOTH",
"624 842 OFFCURVE",
"585 825 OFFCURVE",
"551 798 CURVE",
"548 784 LINE",
"566 764 OFFCURVE",
"577 734 OFFCURVE",
"577 708 CURVE SMOOTH",
"577 666 OFFCURVE",
"554 647 OFFCURVE",
"500 647 CURVE SMOOTH",
"455 647 OFFCURVE",
"364 650 OFFCURVE",
"364 650 CURVE",
"353 561 LINE",
"356 557 LINE",
"356 557 OFFCURVE",
"369 559 OFFCURVE",
"379 559 CURVE SMOOTH",
"399 559 OFFCURVE",
"405 546 OFFCURVE",
"405 505 CURVE SMOOTH",
"405 505 OFFCURVE",
"406 265 OFFCURVE",
"406 203 CURVE SMOOTH",
"406 141 OFFCURVE",
"384 115 OFFCURVE",
"334 115 CURVE SMOOTH",
"286 115 OFFCURVE",
"257 154 OFFCURVE",
"257 220 CURVE"
);
}
);
};
layerId = UUID1;
paths = (
{
closed = 1;
nodes = (
"481 -12 OFFCURVE",
"572 72 OFFCURVE",
"572 234 CURVE SMOOTH",
"572 516 LINE SMOOTH",
"572 554 OFFCURVE",
"577 568 OFFCURVE",
"637 604 CURVE SMOOTH",
"686 637 OFFCURVE",
"708 669 OFFCURVE",
"708 731 CURVE SMOOTH",
"708 786 OFFCURVE",
"674 822 OFFCURVE",
"623 822 CURVE SMOOTH",
"597 822 OFFCURVE",
"562 805 OFFCURVE",
"531 778 CURVE",
"528 764 LINE",
"546 747 OFFCURVE",
"557 722 OFFCURVE",
"557 698 CURVE SMOOTH",
"557 663 OFFCURVE",
"540 647 OFFCURVE",
"500 647 CURVE SMOOTH",
"455 647 OFFCURVE",
"364 650 OFFCURVE",
"364 650 CURVE",
"353 561 LINE",
"356 557 LINE",
"356 557 OFFCURVE",
"369 559 OFFCURVE",
"379 559 CURVE SMOOTH",
"399 559 OFFCURVE",
"405 546 OFFCURVE",
"405 505 CURVE",
"405 505 OFFCURVE",
"406 265 OFFCURVE",
"406 203 CURVE SMOOTH",
"406 141 OFFCURVE",
"384 115 OFFCURVE",
"334 115 CURVE SMOOTH",
"286 115 OFFCURVE",
"257 154 OFFCURVE",
"257 220 CURVE",
"263 509 LINE",
"264 541 OFFCURVE",
"277 554 OFFCURVE",
"311 558 CURVE",
"321 651 LINE",
"321 651 OFFCURVE",
"226 647 OFFCURVE",
"187 647 CURVE SMOOTH",
"108 647 OFFCURVE",
"10 650 OFFCURVE",
"10 650 CURVE",
"0 561 LINE",
"2 557 LINE",
"2 557 OFFCURVE",
"21 559 OFFCURVE",
"31 559 CURVE SMOOTH",
"54 559 OFFCURVE",
"59 549 OFFCURVE",
"59 505 CURVE SMOOTH",
"59 199 LINE SMOOTH",
"59 52 OFFCURVE",
"134 -12 OFFCURVE",
"305 -12 CURVE SMOOTH"
);
}
);
width = 667;
}
);
leftKerningGroup = U;
rightKerningGroup = U;
unicode = 01AF;
},
{
color = 1;
glyphname = Uogonek;
layers = (
{
background = {
paths = (
{
closed = 1;
nodes = (
"192 544 LINE SMOOTH",
"194 582 OFFCURVE",
"206 594 OFFCURVE",
"256 601 CURVE",
"260 646 LINE",
"260 646 OFFCURVE",
"198 637 OFFCURVE",
"155 637 CURVE SMOOTH",
"117 637 OFFCURVE",
"42 640 OFFCURVE",
"42 640 CURVE",
"35 596 LINE",
"37 592 LINE",
"37 592 OFFCURVE",
"59 594 OFFCURVE",
"71 594 CURVE SMOOTH",
"101 594 OFFCURVE",
"108 583 OFFCURVE",
"108 540 CURVE SMOOTH",
"108 209 LINE SMOOTH",
"108 68 OFFCURVE",
"187 -12 OFFCURVE",
"327 -12 CURVE SMOOTH",
"484 -12 OFFCURVE",
"575 68 OFFCURVE",
"575 208 CURVE SMOOTH",
"575 544 LINE SMOOTH",
"575 585 OFFCURVE",
"586 593 OFFCURVE",
"644 601 CURVE",
"648 646 LINE",
"648 646 OFFCURVE",
"594 637 OFFCURVE",
"551 637 CURVE SMOOTH",
"513 637 OFFCURVE",
"438 640 OFFCURVE",
"438 640 CURVE",
"431 596 LINE",
"433 592 LINE",
"433 592 OFFCURVE",
"464 594 OFFCURVE",
"476 594 CURVE SMOOTH",
"505 594 OFFCURVE",
"510 586 OFFCURVE",
"513 540 CURVE SMOOTH",
"513 540 OFFCURVE",
"519 284 OFFCURVE",
"519 214 CURVE SMOOTH",
"519 104 OFFCURVE",
"460 45 OFFCURVE",
"351 45 CURVE SMOOTH",
"243 45 OFFCURVE",
"184 118 OFFCURVE",
"184 250 CURVE"
);
},
{
closed = 1;
nodes = (
"525 -159 LINE",
"525 -159 OFFCURVE",
"487 -182 OFFCURVE",
"448 -182 CURVE SMOOTH",
"413 -182 OFFCURVE",
"390 -159 OFFCURVE",
"390 -128 CURVE SMOOTH",
"390 -79 OFFCURVE",
"424 -42 OFFCURVE",
"506 42 CURVE",
"464 42 LINE",
"392 -30 OFFCURVE",
"327 -89 OFFCURVE",
"327 -147 CURVE SMOOTH",
"327 -207 OFFCURVE",
"373 -241 OFFCURVE",
"438 -241 CURVE",
"489 -224 OFFCURVE",
"538 -178 OFFCURVE",
"538 -178 CURVE"
);
}
);
};
layerId = UUID0;
paths = (
{
closed = 1;
nodes = (
"489 -224 OFFCURVE",
"538 -178 OFFCURVE",
"538 -178 CURVE",
"525 -159 LINE",
"525 -159 OFFCURVE",
"487 -182 OFFCURVE",
"448 -182 CURVE SMOOTH",
"414 -182 OFFCURVE",
"390 -160 OFFCURVE",
"390 -128 CURVE SMOOTH",
"390 -85 OFFCURVE",
"412 -53 OFFCURVE",
"509 42 CURVE SMOOTH",
"553 86 OFFCURVE",
"575 141 OFFCURVE",
"575 208 CURVE SMOOTH",
"575 544 LINE SMOOTH",
"575 584 OFFCURVE",
"585 592 OFFCURVE",
"644 601 CURVE",
"648 646 LINE",
"648 646 OFFCURVE",
"594 637 OFFCURVE",
"551 637 CURVE SMOOTH",
"513 637 OFFCURVE",
"438 640 OFFCURVE",
"438 640 CURVE",
"431 596 LINE",
"433 592 LINE",
"433 592 OFFCURVE",
"464 594 OFFCURVE",
"476 594 CURVE SMOOTH",
"505 594 OFFCURVE",
"510 587 OFFCURVE",
"513 540 CURVE",
"519 214 LINE",
"519 104 OFFCURVE",
"460 45 OFFCURVE",
"351 45 CURVE SMOOTH",
"243 45 OFFCURVE",
"184 118 OFFCURVE",
"184 250 CURVE",
"192 544 LINE SMOOTH",
"194 582 OFFCURVE",
"206 594 OFFCURVE",
"256 601 CURVE",
"260 646 LINE",
"260 646 OFFCURVE",
"198 637 OFFCURVE",
"155 637 CURVE SMOOTH",
"117 637 OFFCURVE",
"42 640 OFFCURVE",
"42 640 CURVE",
"35 596 LINE",
"37 592 LINE",
"37 592 OFFCURVE",
"59 594 OFFCURVE",
"71 594 CURVE SMOOTH",
"101 594 OFFCURVE",
"108 583 OFFCURVE",
"108 540 CURVE SMOOTH",
"108 209 LINE SMOOTH",
"108 68 OFFCURVE",
"187 -12 OFFCURVE",
"327 -12 CURVE SMOOTH",
"361 -12 OFFCURVE",
"393 -8 OFFCURVE",
"421 0 CURVE",
"352 -70 OFFCURVE",
"327 -110 OFFCURVE",
"327 -147 CURVE SMOOTH",
"327 -205 OFFCURVE",
"370 -241 OFFCURVE",
"438 -241 CURVE"
);
}
);
width = 681;
},
{
background = {
paths = (
{
closed = 1;
nodes = (
"447 647 OFFCURVE",
"364 650 OFFCURVE",
"364 650 CURVE",
"353 561 LINE",
"356 557 LINE",
"356 557 OFFCURVE",
"369 559 OFFCURVE",
"379 559 CURVE SMOOTH",
"399 559 OFFCURVE",
"405 546 OFFCURVE",
"405 505 CURVE SMOOTH",
"406 203 LINE SMOOTH",
"406 141 OFFCURVE",
"384 115 OFFCURVE",
"334 115 CURVE SMOOTH",
"286 115 OFFCURVE",
"257 154 OFFCURVE",
"257 220 CURVE SMOOTH",
"263 509 LINE SMOOTH",
"264 541 OFFCURVE",
"277 555 OFFCURVE",
"311 558 CURVE",
"321 651 LINE",
"321 651 OFFCURVE",
"226 647 OFFCURVE",
"187 647 CURVE SMOOTH",
"108 647 OFFCURVE",
"10 650 OFFCURVE",
"10 650 CURVE",
"0 561 LINE",
"2 557 LINE",
"2 557 OFFCURVE",
"21 559 OFFCURVE",
"31 559 CURVE SMOOTH",
"54 559 OFFCURVE",
"59 549 OFFCURVE",
"59 505 CURVE SMOOTH",
"59 199 LINE SMOOTH",
"59 52 OFFCURVE",
"134 -12 OFFCURVE",
"305 -12 CURVE SMOOTH",
"333.905 -12 OFFCURVE",
"357.594 -10.261 OFFCURVE",
"380.12 -5.973 CURVE",
"316.124 -82.377 OFFCURVE",
"304 -105.909 OFFCURVE",
"304 -138 CURVE SMOOTH",
"304 -199 OFFCURVE",
"356 -242 OFFCURVE",
"429 -242 CURVE",
"458 -238 OFFCURVE",
"494 -214 OFFCURVE",
"542 -167 CURVE",
"509 -115 LINE",
"488 -129 OFFCURVE",
"466 -138 OFFCURVE",
"450 -138 CURVE SMOOTH",
"436 -138 OFFCURVE",
"428 -130 OFFCURVE",
"428 -116 CURVE SMOOTH",
"428 -92 OFFCURVE",
"455 -41 OFFCURVE",
"512 55 CURVE",
"554 108 OFFCURVE",
"572 162 OFFCURVE",
"572 234 CURVE SMOOTH",
"572 516 LINE SMOOTH",
"572 540 OFFCURVE",
"578 546 OFFCURVE",
"620 560 CURVE",
"628 650 LINE",
"628 650 OFFCURVE",
"545 647 OFFCURVE",
"484 647 CURVE SMOOTH"
);
}
);
};
layerId = UUID1;
paths = (
{
closed = 1;
nodes = (
"458 -238 OFFCURVE",
"494 -214 OFFCURVE",
"542 -167 CURVE",
"509 -115 LINE",
"488 -129 OFFCURVE",
"466 -138 OFFCURVE",
"450 -138 CURVE SMOOTH",
"436 -138 OFFCURVE",
"428 -130 OFFCURVE",
"428 -116 CURVE SMOOTH",
"428 -92 OFFCURVE",
"457 -42 OFFCURVE",
"513 54 CURVE SMOOTH",
"547 112 OFFCURVE",
"572 162 OFFCURVE",
"572 234 CURVE SMOOTH",
"572 516 LINE SMOOTH",
"572 540 OFFCURVE",
"578 546 OFFCURVE",
"620 560 CURVE",
"628 650 LINE",
"628 650 OFFCURVE",
"545 647 OFFCURVE",
"484 647 CURVE SMOOTH",
"447 647 OFFCURVE",
"364 650 OFFCURVE",
"364 650 CURVE",
"353 561 LINE",
"356 557 LINE",
"356 557 OFFCURVE",
"369 559 OFFCURVE",
"379 559 CURVE SMOOTH",
"399 559 OFFCURVE",
"405 546 OFFCURVE",
"405 505 CURVE SMOOTH",
"406 203 LINE SMOOTH",
"406 141 OFFCURVE",
"384 115 OFFCURVE",
"334 115 CURVE SMOOTH",
"286 115 OFFCURVE",
"257 154 OFFCURVE",
"257 220 CURVE SMOOTH",
"263 509 LINE SMOOTH",
"264 541 OFFCURVE",
"277 555 OFFCURVE",
"311 558 CURVE",
"321 651 LINE",
"321 651 OFFCURVE",
"226 647 OFFCURVE",
"187 647 CURVE SMOOTH",
"108 647 OFFCURVE",
"10 650 OFFCURVE",
"10 650 CURVE",
"0 561 LINE",
"2 557 LINE",
"2 557 OFFCURVE",
"21 559 OFFCURVE",
"31 559 CURVE SMOOTH",
"54 559 OFFCURVE",
"59 549 OFFCURVE",
"59 505 CURVE SMOOTH",
"59 199 LINE SMOOTH",
"59 52 OFFCURVE",
"134 -12 OFFCURVE",
"305 -12 CURVE SMOOTH",
"333.905 -12 OFFCURVE",
"357.594 -10.261 OFFCURVE",
"380.12 -5.973 CURVE",
"316.124 -82.377 OFFCURVE",
"304 -105.909 OFFCURVE",
"304 -138 CURVE SMOOTH",
"304 -199 OFFCURVE",
"356 -242 OFFCURVE",
"429 -242 CURVE"
);
}
);
width = 627;
}
);
leftKerningGroup = U;
rightKerningGroup = U;
unicode = 0172;
},
{
color = 1;
glyphname = V;
layers = (
{
anchors = (
{
name = bottom;
position = "{312, 0}";
},
{
name = top;
position = "{346, 647}";
}
);
layerId = UUID0;
paths = (
{
closed = 1;
nodes = (
"322 5 LINE",
"537 545 LINE",
"551 583 OFFCURVE",
"562 591 OFFCURVE",
"603 593 CURVE",
"611 640 LINE",
"611 640 OFFCURVE",
"549 637 OFFCURVE",
"501 637 CURVE SMOOTH",
"435 637 OFFCURVE",
"358 644 OFFCURVE",
"358 644 CURVE",
"352 601 LINE",
"354 597 LINE",
"406 597 LINE SMOOTH",
"455 597 OFFCURVE",
"475 585 OFFCURVE",
"475 557 CURVE SMOOTH",
"475 527 OFFCURVE",
"361 231 OFFCURVE",
"309 97 CURVE",
"300 97 LINE",
"300 97 OFFCURVE",
"174 528 OFFCURVE",
"174 560 CURVE SMOOTH",
"174 589 OFFCURVE",
"192 597 OFFCURVE",
"263 602 CURVE",
"267 641 LINE",
"264 648 LINE",
"264 648 OFFCURVE",
"167 637 OFFCURVE",
"114 637 CURVE SMOOTH",
"80 637 OFFCURVE",
"-2 640 OFFCURVE",
"-2 640 CURVE",
"-9 597 LINE",
"-7 593 LINE",
"45 592 OFFCURVE",
"73 574 OFFCURVE",
"85 536 CURVE SMOOTH",
"169 275 OFFCURVE",
"258 -17 OFFCURVE",
"258 -17 CURVE"
);
}
);
width = 610;
},
{
anchors = (
{
name = bottom;
position = "{312, 0}";
},
{
name = top;
position = "{346, 647}";
}
);
layerId = UUID1;
paths = (
{
closed = 1;
nodes = (
"450 4 LINE",
"599 506 LINE",
"611 544 OFFCURVE",
"618 554 OFFCURVE",
"640 561 CURVE",
"647 648 LINE",
"647 648 OFFCURVE",
"581 647 OFFCURVE",
"524 647 CURVE SMOOTH",
"463 647 OFFCURVE",
"370 650 OFFCURVE",
"370 650 CURVE",
"362 567 LINE",
"370 557 LINE",
"396 557 LINE SMOOTH",
"422 557 OFFCURVE",
"427 554 OFFCURVE",
"427 537 CURVE SMOOTH",
"427 504 OFFCURVE",
"345 168 OFFCURVE",
"345 168 CURVE",
"323 168 LINE",
"323 168 OFFCURVE",
"269 485 OFFCURVE",
"269 525 CURVE SMOOTH",
"269 550 OFFCURVE",
"271 551 OFFCURVE",
"333 559 CURVE",
"339 643 LINE",
"331 652 LINE",
"331 652 OFFCURVE",
"235 647 OFFCURVE",
"140 647 CURVE SMOOTH",
"87 647 OFFCURVE",
"3 649 OFFCURVE",
"3 649 CURVE",
"-5 570 LINE",
"2 560 LINE",
"30 556 OFFCURVE",
"45 538 OFFCURVE",
"57 493 CURVE SMOOTH",
"85 385 OFFCURVE",
"175 -13 OFFCURVE",
"175 -13 CURVE"
);
}
);
width = 641;
}
);
leftKerningGroup = V;
rightKerningGroup = V;
unicode = 0056;
},
{
color = 1;
glyphname = W;
layers = (
{
anchors = (
{
name = bottom;
position = "{495, 0}";
},
{
name = top;
position = "{518, 647}";
}
);
layerId = UUID0;
paths = (
{
closed = 1;
nodes = (
"315 5 LINE",
"457 407 LINE",
"463 407 LINE",
"531 188 OFFCURVE",
"588 -17 OFFCURVE",
"588 -17 CURVE",
"650 5 LINE",
"860 545 LINE",
"874 584 OFFCURVE",
"885 591 OFFCURVE",
"924 593 CURVE",
"931 640 LINE",
"931 640 OFFCURVE",
"871 637 OFFCURVE",
"825 637 CURVE SMOOTH",
"761 637 OFFCURVE",
"686 644 OFFCURVE",
"686 644 CURVE",
"679 601 LINE",
"681 597 LINE",
"731 597 LINE SMOOTH",
"779 597 OFFCURVE",
"799 587 OFFCURVE",
"799 562 CURVE SMOOTH",
"799 532 OFFCURVE",
"687 232 OFFCURVE",
"637 97 CURVE",
"631 97 LINE",
"631 97 OFFCURVE",
"507 527 OFFCURVE",
"507 560 CURVE SMOOTH",
"507 589 OFFCURVE",
"525 597 OFFCURVE",
"594 602 CURVE",
"598 641 LINE",
"595 648 LINE",
"595 648 OFFCURVE",
"510 637 OFFCURVE",
"450 637 CURVE SMOOTH",
"417 637 OFFCURVE",
"337 640 OFFCURVE",
"337 640 CURVE",
"330 597 LINE",
"332 593 LINE",
"381 591 OFFCURVE",
"409 576 OFFCURVE",
"422 536 CURVE SMOOTH",
"428 518 OFFCURVE",
"434 499 OFFCURVE",
"440 481 CURVE",
"393 353 OFFCURVE",
"346 225 OFFCURVE",
"299 97 CURVE",
"293 97 LINE",
"293 97 OFFCURVE",
"170 522 OFFCURVE",
"170 561 CURVE SMOOTH",
"170 589 OFFCURVE",
"188 597 OFFCURVE",
"256 602 CURVE",
"260 641 LINE",
"257 648 LINE",
"257 648 OFFCURVE",
"183 637 OFFCURVE",
"112 637 CURVE SMOOTH",
"79 637 OFFCURVE",
"-1 640 OFFCURVE",
"-1 640 CURVE",
"-7 597 LINE",
"-7 596 OFFCURVE",
"-6 594 OFFCURVE",
"-6 593 CURVE",
"44 592 OFFCURVE",
"72 574 OFFCURVE",
"84 536 CURVE SMOOTH",
"168 276 OFFCURVE",
"251 -17 OFFCURVE",
"251 -17 CURVE"
);
}
);
width = 932;
},
{
anchors = (
{
name = bottom;
position = "{495, 0}";
},
{
name = top;
position = "{518, 647}";
}
);
layerId = UUID1;
paths = (
{
closed = 1;
nodes = (
"433 4 LINE",
"496 272 LINE",
"510 272 LINE",
"525 177 OFFCURVE",
"539 82 OFFCURVE",
"554 -13 CURVE",
"819 4 LINE",
"957 506 LINE",
"969 544 OFFCURVE",
"976 554 OFFCURVE",
"997 561 CURVE",
"1004 648 LINE",
"1004 648 OFFCURVE",
"941 647 OFFCURVE",
"886 647 CURVE SMOOTH",
"828 647 OFFCURVE",
"738 650 OFFCURVE",
"738 650 CURVE",
"730 567 LINE",
"737 557 LINE",
"762 557 LINE SMOOTH",
"787 557 OFFCURVE",
"792 554 OFFCURVE",
"792 537 CURVE SMOOTH",
"792 504 OFFCURVE",
"713 168 OFFCURVE",
"713 168 CURVE",
"692 168 LINE",
"692 168 OFFCURVE",
"641 485 OFFCURVE",
"641 525 CURVE SMOOTH",
"641 551 OFFCURVE",
"642 551 OFFCURVE",
"702 559 CURVE",
"709 643 LINE",
"701 652 LINE",
"701 652 OFFCURVE",
"609 647 OFFCURVE",
"518 647 CURVE SMOOTH",
"459 647 OFFCURVE",
"356 649 OFFCURVE",
"356 649 CURVE",
"347 570 LINE",
"354 560 LINE",
"400 560 OFFCURVE",
"410 555 OFFCURVE",
"410 529 CURVE SMOOTH",
"410 524 OFFCURVE",
"409 515 OFFCURVE",
"407 502 CURVE",
"392 414 OFFCURVE",
"331 168 OFFCURVE",
"331 168 CURVE",
"310 168 LINE",
"310 168 OFFCURVE",
"258 485 OFFCURVE",
"258 525 CURVE SMOOTH",
"258 550 OFFCURVE",
"260 551 OFFCURVE",
"320 559 CURVE",
"326 643 LINE",
"319 652 LINE",
"319 652 OFFCURVE",
"226 647 OFFCURVE",
"135 647 CURVE SMOOTH",
"84 647 OFFCURVE",
"4 649 OFFCURVE",
"4 649 CURVE",
"-5 570 LINE",
"-3 567 OFFCURVE",
"0 563 OFFCURVE",
"2 560 CURVE",
"29 556 OFFCURVE",
"43 538 OFFCURVE",
"55 493 CURVE SMOOTH",
"81 385 OFFCURVE",
"168 -13 OFFCURVE",
"168 -13 CURVE"
);
}
);
width = 998;
}
);
leftKerningGroup = V;
rightKerningGroup = V;
unicode = 0057;
},
{
color = 1;
glyphname = X;
layers = (
{
anchors = (
{
name = bottom;
position = "{271, 0}";
},
{
name = top;
position = "{390, 647}";
}
);
background = {
paths = (
{
closed = 1;
nodes = (
"221 346 LINE",
"139 467 LINE SMOOTH",
"96 530 OFFCURVE",
"69 539 OFFCURVE",
"20 551 CURVE",
"15 557 LINE",
"24 648 LINE",
"24 648 OFFCURVE",
"94 647 OFFCURVE",
"200 647 CURVE SMOOTH",
"244 647 OFFCURVE",
"373 653 OFFCURVE",
"373 653 CURVE",
"379 642 LINE",
"372 560 LINE",
"345 560 OFFCURVE",
"333 552 OFFCURVE",
"333 536 CURVE SMOOTH",
"333 510 OFFCURVE",
"360 475 OFFCURVE",
"396 424 CURVE",
"421 468 OFFCURVE",
"457 524 OFFCURVE",
"457 541 CURVE SMOOTH",
"457 556 OFFCURVE",
"448 561 OFFCURVE",
"419 561 CURVE",
"417 567 LINE",
"423 647 LINE",
"475 647 OFFCURVE",
"526 647 OFFCURVE",
"578 647 CURVE SMOOTH",
"636 647 OFFCURVE",
"707 650 OFFCURVE",
"707 650 CURVE",
"711 642 LINE",
"706 555 LINE",
"642 524 OFFCURVE",
"612 499 OFFCURVE",
"578 446 CURVE SMOOTH",
"484 301 LINE",
"571 179 LINE SMOOTH",
"613 120 OFFCURVE",
"648 94 OFFCURVE",
"696 93 CURVE",
"700 89 LINE",
"691 -1 LINE",
"691 -1 OFFCURVE",
"594 2 OFFCURVE",
"556 2 CURVE SMOOTH",
"509 2 OFFCURVE",
"349 -5 OFFCURVE",
"349 -5 CURVE",
"342 2 LINE",
"349 86 LINE",
"368 87 OFFCURVE",
"378 93 OFFCURVE",
"378 106 CURVE SMOOTH",
"378 114 OFFCURVE",
"375 122 OFFCURVE",
"367 133 CURVE SMOOTH",
"306 221 LINE",
"268 158 LINE SMOOTH",
"258 142 OFFCURVE",
"251 127 OFFCURVE",
"251 118 CURVE SMOOTH",
"251 97 OFFCURVE",
"263 88 OFFCURVE",
"290 88 CURVE",
"296 77 LINE",
"291 -4 LINE",
"291 -4 OFFCURVE",
"172 2 OFFCURVE",
"140 2 CURVE SMOOTH",
"100 2 OFFCURVE",
"6 -4 OFFCURVE",
"6 -4 CURVE",
"1 10 LINE",
"7 90 LINE",
"36 104 OFFCURVE",
"96 166 OFFCURVE",
"133 219 CURVE SMOOTH",
"221 346 LINE"
);
}
);
};
layerId = UUID0;
paths = (
{
closed = 1;
nodes = (
"365 -8 OFFCURVE",
"464 0 OFFCURVE",
"520 0 CURVE SMOOTH",
"566 0 OFFCURVE",
"644 -3 OFFCURVE",
"644 -3 CURVE",
"651 40 LINE",
"649 44 LINE",
"586 50 OFFCURVE",
"548 75 OFFCURVE",
"512 127 CURVE SMOOTH",
"366 340 LINE",
"487 493 LINE SMOOTH",
"542 562 OFFCURVE",
"563 585 OFFCURVE",
"623 597 CURVE",
"629 634 LINE",
"625 641 LINE",
"625 641 OFFCURVE",
"567 637 OFFCURVE",
"528 637 CURVE SMOOTH",
"491 637 OFFCURVE",
"418 644 OFFCURVE",
"418 644 CURVE",
"412 605 LINE",
"414 601 LINE",
"455 597 OFFCURVE",
"472 589 OFFCURVE",
"472 571 CURVE SMOOTH",
"472 543 OFFCURVE",
"386 439 OFFCURVE",
"341 377 CURVE",
"274 479 OFFCURVE",
"228 551 OFFCURVE",
"228 567 CURVE SMOOTH",
"228 589 OFFCURVE",
"251 599 OFFCURVE",
"306 603 CURVE",
"309 638 LINE",
"306 645 LINE",
"306 645 OFFCURVE",
"250 637 OFFCURVE",
"171 637 CURVE SMOOTH",
"125 637 OFFCURVE",
"27 640 OFFCURVE",
"27 640 CURVE",
"21 601 LINE",
"23 597 LINE",
"84 589 OFFCURVE",
"127 563 OFFCURVE",
"160 514 CURVE SMOOTH",
"291 318 LINE",
"181 182 LINE SMOOTH",
"121 108 OFFCURVE",
"78 61 OFFCURVE",
"19 44 CURVE",
"12 3 LINE",
"16 -4 LINE",
"16 -4 OFFCURVE",
"76 0 OFFCURVE",
"115 0 CURVE SMOOTH",
"152 0 OFFCURVE",
"225 -7 OFFCURVE",
"225 -7 CURVE",
"232 36 LINE",
"230 40 LINE",
"190 43 OFFCURVE",
"172 52 OFFCURVE",
"172 70 CURVE SMOOTH",
"172 89 OFFCURVE",
"184 107 OFFCURVE",
"223 159 CURVE SMOOTH",
"315 281 LINE",
"424 117 LINE SMOOTH",
"437 98 OFFCURVE",
"444 85 OFFCURVE",
"444 73 CURVE SMOOTH",
"444 50 OFFCURVE",
"419 41 OFFCURVE",
"366 38 CURVE",
"362 -1 LINE",
"365 -8 LINE"
);
}
);
width = 656;
},
{
anchors = (
{
name = bottom;
position = "{271, 0}";
},
{
name = top;
position = "{390, 647}";
}
);
background = {
paths = (
{
closed = 1;
nodes = (
"221 346 LINE",
"139 467 LINE SMOOTH",
"96 530 OFFCURVE",
"69 539 OFFCURVE",
"20 551 CURVE",
"15 557 LINE",
"24 648 LINE",
"24 648 OFFCURVE",
"94 647 OFFCURVE",
"200 647 CURVE SMOOTH",
"244 647 OFFCURVE",
"373 653 OFFCURVE",
"373 653 CURVE",
"379 642 LINE",
"372 560 LINE",
"345 560 OFFCURVE",
"333 552 OFFCURVE",
"333 536 CURVE SMOOTH",
"333 510 OFFCURVE",
"360 475 OFFCURVE",
"396 424 CURVE",
"421 468 OFFCURVE",
"457 524 OFFCURVE",
"457 541 CURVE SMOOTH",
"457 556 OFFCURVE",
"448 561 OFFCURVE",
"419 561 CURVE",
"417 567 LINE",
"423 647 LINE",
"475 647 OFFCURVE",
"526 647 OFFCURVE",
"578 647 CURVE SMOOTH",
"636 647 OFFCURVE",
"707 650 OFFCURVE",
"707 650 CURVE",
"711 642 LINE",
"706 555 LINE",
"642 524 OFFCURVE",
"612 499 OFFCURVE",
"578 446 CURVE SMOOTH",
"484 301 LINE",
"571 179 LINE SMOOTH",
"613 120 OFFCURVE",
"648 94 OFFCURVE",
"696 93 CURVE",
"700 89 LINE",
"691 -1 LINE",
"691 -1 OFFCURVE",
"594 2 OFFCURVE",
"556 2 CURVE SMOOTH",
"509 2 OFFCURVE",
"349 -5 OFFCURVE",
"349 -5 CURVE",
"342 2 LINE",
"349 86 LINE",
"368 87 OFFCURVE",
"378 93 OFFCURVE",
"378 106 CURVE SMOOTH",
"378 114 OFFCURVE",
"375 122 OFFCURVE",
"367 133 CURVE SMOOTH",
"306 221 LINE",
"268 158 LINE SMOOTH",
"258 142 OFFCURVE",
"251 127 OFFCURVE",
"251 118 CURVE SMOOTH",
"251 97 OFFCURVE",
"263 88 OFFCURVE",
"290 88 CURVE",
"296 77 LINE",
"291 -4 LINE",
"291 -4 OFFCURVE",
"172 2 OFFCURVE",
"140 2 CURVE SMOOTH",
"100 2 OFFCURVE",
"6 -4 OFFCURVE",
"6 -4 CURVE",
"1 10 LINE",
"7 90 LINE",
"36 104 OFFCURVE",
"96 166 OFFCURVE",
"133 219 CURVE SMOOTH",
"221 346 LINE"
);
}
);
};
layerId = UUID1;
paths = (
{
closed = 1;
nodes = (
"349 -5 OFFCURVE",
"509 2 OFFCURVE",
"556 2 CURVE SMOOTH",
"594 2 OFFCURVE",
"691 -1 OFFCURVE",
"691 -1 CURVE",
"700 89 LINE",
"696 93 LINE",
"648 94 OFFCURVE",
"613 120 OFFCURVE",
"571 179 CURVE SMOOTH",
"484 301 LINE",
"578 446 LINE SMOOTH",
"612 499 OFFCURVE",
"642 524 OFFCURVE",
"706 555 CURVE",
"711 642 LINE",
"707 650 LINE",
"707 650 OFFCURVE",
"636 647 OFFCURVE",
"578 647 CURVE SMOOTH",
"526 647 OFFCURVE",
"475 647 OFFCURVE",
"423 647 CURVE",
"417 567 LINE",
"419 561 LINE",
"448 561 OFFCURVE",
"457 556 OFFCURVE",
"457 541 CURVE SMOOTH",
"457 524 OFFCURVE",
"421 468 OFFCURVE",
"396 424 CURVE",
"360 475 OFFCURVE",
"333 510 OFFCURVE",
"333 536 CURVE SMOOTH",
"333 552 OFFCURVE",
"345 560 OFFCURVE",
"372 560 CURVE",
"379 642 LINE",
"373 653 LINE",
"373 653 OFFCURVE",
"244 647 OFFCURVE",
"200 647 CURVE SMOOTH",
"94 647 OFFCURVE",
"24 648 OFFCURVE",
"24 648 CURVE",
"15 557 LINE",
"20 551 LINE",
"69 539 OFFCURVE",
"96 530 OFFCURVE",
"139 467 CURVE SMOOTH",
"221 346 LINE",
"133 219 LINE SMOOTH",
"96 166 OFFCURVE",
"36 104 OFFCURVE",
"7 90 CURVE",
"1 10 LINE",
"6 -4 LINE",
"6 -4 OFFCURVE",
"100 2 OFFCURVE",
"140 2 CURVE SMOOTH",
"172 2 OFFCURVE",
"291 -4 OFFCURVE",
"291 -4 CURVE",
"296 77 LINE",
"290 88 LINE",
"263 88 OFFCURVE",
"251 97 OFFCURVE",
"251 118 CURVE SMOOTH",
"251 127 OFFCURVE",
"258 142 OFFCURVE",
"268 158 CURVE SMOOTH",
"306 221 LINE",
"367 133 LINE SMOOTH",
"375 122 OFFCURVE",
"378 114 OFFCURVE",
"378 106 CURVE SMOOTH",
"378 93 OFFCURVE",
"368 87 OFFCURVE",
"349 86 CURVE",
"342 2 LINE",
"349 -5 LINE"
);
}
);
width = 711;
}
);
leftKerningGroup = X;
rightKerningGroup = X;
unicode = 0058;
},
{
color = 1;
glyphname = Y;
layers = (
{
anchors = (
{
name = bottom;
position = "{269, 0}";
},
{
name = center;
position = "{267, 181}";
},
{
name = top;
position = "{279, 637}";
},
{
name = topleft;
position = "{20, 637}";
}
);
layerId = UUID0;
paths = (
{
closed = 1;
nodes = (
"144 -12 OFFCURVE",
"208 0 OFFCURVE",
"258 0 CURVE SMOOTH",
"302 0 OFFCURVE",
"385 -3 OFFCURVE",
"385 -3 CURVE",
"394 43 LINE",
"392 47 LINE",
"392 47 OFFCURVE",
"363 44 OFFCURVE",
"343 44 CURVE SMOOTH",
"308 44 OFFCURVE",
"298 61 OFFCURVE",
"299 112 CURVE SMOOTH",
"301 221 OFFCURVE",
"300 255 OFFCURVE",
"321 291 CURVE SMOOTH",
"421 467 LINE SMOOTH",
"475 562 OFFCURVE",
"483 584 OFFCURVE",
"552 597 CURVE",
"558 634 LINE",
"554 641 LINE",
"554 641 OFFCURVE",
"501 637 OFFCURVE",
"462 637 CURVE SMOOTH",
"425 637 OFFCURVE",
"351 644 OFFCURVE",
"351 644 CURVE",
"345 605 LINE",
"347 601 LINE",
"390 598 OFFCURVE",
"410 588 OFFCURVE",
"410 571 CURVE SMOOTH",
"410 557 OFFCURVE",
"404 539 OFFCURVE",
"394 521 CURVE SMOOTH",
"280 309 LINE",
"275 309 LINE",
"274 309 OFFCURVE",
"163 538 OFFCURVE",
"163 567 CURVE SMOOTH",
"163 590 OFFCURVE",
"179 598 OFFCURVE",
"239 603 CURVE",
"242 638 LINE",
"239 645 LINE",
"239 645 OFFCURVE",
"153 637 OFFCURVE",
"97 637 CURVE SMOOTH",
"51 637 OFFCURVE",
"-13 640 OFFCURVE",
"-13 640 CURVE",
"-19 601 LINE",
"-17 597 LINE",
"61 590 OFFCURVE",
"69 564 OFFCURVE",
"109 482 CURVE SMOOTH",
"199 299 LINE SMOOTH",
"223 251 OFFCURVE",
"228 225 OFFCURVE",
"228 186 CURVE SMOOTH",
"228 142 LINE SMOOTH",
"228 68 OFFCURVE",
"222 48 OFFCURVE",
"150 34 CURVE",
"144 -12 LINE"
);
}
);
width = 538;
},
{
anchors = (
{
name = bottom;
position = "{332, 0}";
},
{
name = center;
position = "{336, 201}";
},
{
name = top;
position = "{352, 647}";
},
{
name = topleft;
position = "{20, 647}";
}
);
layerId = UUID1;
paths = (
{
closed = 1;
nodes = (
"127 -9 OFFCURVE",
"264 0 OFFCURVE",
"328 0 CURVE SMOOTH",
"386 0 OFFCURVE",
"535 -6 OFFCURVE",
"535 -6 CURVE",
"544 88 LINE",
"539 94 LINE",
"539 94 OFFCURVE",
"513 91 OFFCURVE",
"488 91 CURVE SMOOTH",
"450 91 OFFCURVE",
"438 107 OFFCURVE",
"438 154 CURVE SMOOTH",
"438 188 OFFCURVE",
"438 212 OFFCURVE",
"453 247 CURVE SMOOTH",
"544 429 LINE SMOOTH",
"572 485 OFFCURVE",
"613 531 OFFCURVE",
"655 555 CURVE",
"663 642 LINE",
"659 650 LINE",
"659 650 OFFCURVE",
"598 646 OFFCURVE",
"546 646 CURVE SMOOTH",
"493 646 OFFCURVE",
"441 646 OFFCURVE",
"388 646 CURVE",
"380 567 LINE",
"383 561 LINE",
"411 561 OFFCURVE",
"421 557 OFFCURVE",
"421 545 CURVE SMOOTH",
"421 535 OFFCURVE",
"416 519 OFFCURVE",
"408 501 CURVE SMOOTH",
"367 387 LINE",
"353 387 LINE",
"333 437 OFFCURVE",
"297 519 OFFCURVE",
"297 535 CURVE SMOOTH",
"297 552 OFFCURVE",
"310 560 OFFCURVE",
"338 560 CURVE",
"347 642 LINE",
"340 653 LINE",
"340 653 OFFCURVE",
"206 646 OFFCURVE",
"160 646 CURVE SMOOTH",
"127 646 OFFCURVE",
"10 648 OFFCURVE",
"10 648 CURVE",
"0 557 LINE",
"4 551 LINE",
"49 532 OFFCURVE",
"83 504 OFFCURVE",
"103 467 CURVE SMOOTH",
"210 268 LINE SMOOTH",
"231 229 OFFCURVE",
"238 207 OFFCURVE",
"238 178 CURVE SMOOTH",
"238 162 LINE SMOOTH",
"238 103 OFFCURVE",
"220 89 OFFCURVE",
"135 83 CURVE",
"127 -9 LINE"
);
}
);
width = 663;
}
);
leftKerningGroup = Y;
rightKerningGroup = Y;
unicode = 0059;
},
{
color = 1;
glyphname = Z;
layers = (
{
anchors = (
{
name = bottom;
position = "{313, 0}";
},
{
name = top;
position = "{331, 647}";
}
);
layerId = UUID0;
paths = (
{
closed = 1;
nodes = (
"118 3 LINE",
"480 -3 LINE",
"495 13 LINE",
"500 109 OFFCURVE",
"520 218 OFFCURVE",
"520 218 CURVE",
"473 213 LINE",
"451 99 OFFCURVE",
"410 48 OFFCURVE",
"341 47 CURVE",
"138 40 LINE",
"181 108 OFFCURVE",
"335 351 OFFCURVE",
"524 602 CURVE",
"513 631 LINE",
"255 638 LINE",
"80 649 LINE",
"70 640 LINE",
"68 548 OFFCURVE",
"52 445 OFFCURVE",
"52 445 CURVE",
"99 449 LINE",
"110 550 OFFCURVE",
"142 583 OFFCURVE",
"234 587 CURVE",
"407 593 LINE",
"34 29 LINE",
"48 -3 LINE"
);
}
);
width = 568;
},
{
anchors = (
{
name = bottom;
position = "{313, 0}";
},
{
name = top;
position = "{331, 647}";
}
);
layerId = UUID1;
paths = (
{
closed = 1;
nodes = (
"121 3 LINE",
"550 -3 LINE",
"571 19 LINE",
"573 119 OFFCURVE",
"594 275 OFFCURVE",
"594 275 CURVE",
"468 266 LINE",
"459 173 OFFCURVE",
"433 136 OFFCURVE",
"369 124 CURVE",
"264 109 LINE",
"319 194 OFFCURVE",
"448 396 OFFCURVE",
"597 595 CURVE",
"572 649 LINE",
"241 649 LINE",
"60 660 LINE",
"49 649 LINE",
"46 556 OFFCURVE",
"34 409 OFFCURVE",
"34 409 CURVE",
"160 418 LINE",
"163 503 OFFCURVE",
"175 517 OFFCURVE",
"252 532 CURVE",
"329 542 LINE",
"3 51 LINE",
"39 -7 LINE"
);
}
);
width = 594;
}
);
leftKerningGroup = Z;
rightKerningGroup = Z;
unicode = 005A;
},
{
color = 1;
glyphname = C.ss01;
layers = (
{
anchors = (
{
name = bottom;
position = "{314, 0}";
},
{
name = top;
position = "{335, 647}";
}
);
background = {
paths = (
{
closed = 1;
nodes = (
"553 35 LINE",
"-20 35 LINE"
);
}
);
};
layerId = UUID0;
paths = (
{
closed = 1;
nodes = (
"457 22 LINE",
"463 30 LINE",
"468 89 OFFCURVE",
"484 163 OFFCURVE",
"484 163 CURVE",
"434 159 LINE",
"415 77 OFFCURVE",
"374 45 OFFCURVE",
"304 45 CURVE SMOOTH",
"197 45 OFFCURVE",
"129 125 OFFCURVE",
"129 259 CURVE SMOOTH",
"129 380 OFFCURVE",
"193 452 OFFCURVE",
"297 452 CURVE SMOOTH",
"372 452 OFFCURVE",
"409 429 OFFCURVE",
"409 382 CURVE SMOOTH",
"409 363 OFFCURVE",
"407 343 OFFCURVE",
"407 343 CURVE",
"457 346 LINE",
"462 422 OFFCURVE",
"478 482 OFFCURVE",
"478 482 CURVE",
"474 488 LINE",
"202 483 LINE",
"104 442 OFFCURVE",
"41 350 OFFCURVE",
"41 233 CURVE SMOOTH",
"41 134 OFFCURVE",
"83 60 OFFCURVE",
"155 21 CURVE"
);
},
{
closed = 1;
nodes = (
"-20 0 LINE",
"553 0 LINE",
"553 35 LINE",
"-20 35 LINE"
);
},
{
closed = 1;
nodes = (
"-20 462 LINE",
"553 462 LINE",
"553 497 LINE",
"-20 497 LINE"
);
}
);
width = 533;
},
{
anchors = (
{
name = bottom;
position = "{314, 0}";
},
{
name = top;
position = "{335, 647}";
}
);
background = {
paths = (
{
closed = 1;
nodes = (
"532 75 LINE",
"-23 75 LINE"
);
}
);
};
layerId = UUID1;
paths = (
{
closed = 1;
nodes = (
"461 21 LINE",
"473 34 LINE",
"472 112 OFFCURVE",
"481 207 OFFCURVE",
"481 207 CURVE",
"343 198 LINE",
"339 135 OFFCURVE",
"325 114 OFFCURVE",
"287 114 CURVE SMOOTH",
"239 114 OFFCURVE",
"221 160 OFFCURVE",
"221 272 CURVE SMOOTH",
"221 371 OFFCURVE",
"232 395 OFFCURVE",
"283 395 CURVE SMOOTH",
"320 395 OFFCURVE",
"332 381 OFFCURVE",
"332 340 CURVE SMOOTH",
"332 315 OFFCURVE",
"331 295 OFFCURVE",
"331 295 CURVE",
"470 303 LINE",
"476 402 OFFCURVE",
"494 475 OFFCURVE",
"494 475 CURVE",
"487 493 LINE",
"172 492 LINE",
"70 456 OFFCURVE",
"17 372 OFFCURVE",
"17 244 CURVE SMOOTH",
"17 138 OFFCURVE",
"56 61 OFFCURVE",
"128 22 CURVE"
);
},
{
closed = 1;
nodes = (
"-23 0 LINE",
"532 0 LINE",
"532 65 LINE",
"-23 65 LINE"
);
},
{
closed = 1;
nodes = (
"-23 438 LINE",
"532 438 LINE",
"532 503 LINE",
"-23 503 LINE"
);
}
);
width = 512;
}
);
},
{
color = 1;
glyphname = D.ss01;
layers = (
{
anchors = (
{
name = bottom;
position = "{318, 0}";
},
{
name = center;
position = "{341, 324}";
},
{
name = top;
position = "{347, 647}";
}
);
background = {
paths = (
{
closed = 1;
nodes = (
"412 25 LINE",
"501 72 OFFCURVE",
"555 163 OFFCURVE",
"555 268 CURVE SMOOTH",
"555 352 OFFCURVE",
"514 424 OFFCURVE",
"445 465 CURVE",
"94 462 LINE",
"117 462 OFFCURVE",
"123 453 OFFCURVE",
"123 420 CURVE SMOOTH",
"122 101 LINE SMOOTH",
"122 57 OFFCURVE",
"107 35 OFFCURVE",
"60 35 CURVE"
);
},
{
closed = 1;
nodes = (
"386 452 OFFCURVE",
"467 382 OFFCURVE",
"467 248 CURVE SMOOTH",
"467 117 OFFCURVE",
"406 45 OFFCURVE",
"293 45 CURVE SMOOTH",
"215 45 OFFCURVE",
"193 60 OFFCURVE",
"193 112 CURVE SMOOTH",
"193 147 OFFCURVE",
"195 190 OFFCURVE",
"205 434 CURVE SMOOTH",
"206 448 OFFCURVE",
"211 452 OFFCURVE",
"233 452 CURVE SMOOTH"
);
},
{
closed = 1;
nodes = (
"-20 462 LINE",
"616 462 LINE",
"616 497 LINE",
"-20 497 LINE"
);
},
{
closed = 1;
nodes = (
"-20 0 LINE",
"616 0 LINE",
"616 35 LINE",
"-20 35 LINE"
);
}
);
};
layerId = UUID0;
paths = (
{
closed = 1;
nodes = (
"501 72 OFFCURVE",
"555 163 OFFCURVE",
"555 268 CURVE SMOOTH",
"555 352 OFFCURVE",
"514 424 OFFCURVE",
"445 465 CURVE",
"94 462 LINE",
"117 462 OFFCURVE",
"123 453 OFFCURVE",
"123 420 CURVE SMOOTH",
"122 101 LINE SMOOTH",
"122 57 OFFCURVE",
"107 35 OFFCURVE",
"60 35 CURVE",
"412 25 LINE"
);
},
{
closed = 1;
nodes = (
"616 0 LINE",
"616 35 LINE",
"-20 35 LINE",
"-20 0 LINE"
);
},
{
closed = 1;
nodes = (
"215 45 OFFCURVE",
"193 60 OFFCURVE",
"193 112 CURVE SMOOTH",
"193 147 OFFCURVE",
"195 190 OFFCURVE",
"205 434 CURVE SMOOTH",
"206 448 OFFCURVE",
"211 452 OFFCURVE",
"233 452 CURVE SMOOTH",
"386 452 OFFCURVE",
"467 382 OFFCURVE",
"467 248 CURVE SMOOTH",
"467 117 OFFCURVE",
"406 45 OFFCURVE",
"293 45 CURVE SMOOTH"
);
},
{
closed = 1;
nodes = (
"616 462 LINE",
"616 497 LINE",
"-20 497 LINE",
"-20 462 LINE"
);
}
);
width = 596;
},
{
anchors = (
{
name = bottom;
position = "{318, 0}";
},
{
name = center;
position = "{341, 324}";
},
{
name = top;
position = "{347, 647}";
}
);
background = {
paths = (
{
closed = 1;
nodes = (
"423 23 LINE",
"511 67 OFFCURVE",
"561 154 OFFCURVE",
"561 275 CURVE SMOOTH",
"561 371 OFFCURVE",
"529 437 OFFCURVE",
"464 474 CURVE",
"56 428 LINE",
"71 428 OFFCURVE",
"76 418 OFFCURVE",
"76 386 CURVE SMOOTH",
"76 137 LINE SMOOTH",
"76 94 OFFCURVE",
"64 75 OFFCURVE",
"23 75 CURVE"
);
},
{
closed = 1;
nodes = (
"341 399 OFFCURVE",
"356 368 OFFCURVE",
"356 243 CURVE SMOOTH",
"356 134 OFFCURVE",
"334 98 OFFCURVE",
"269 98 CURVE SMOOTH",
"254 98 OFFCURVE",
"249 105 OFFCURVE",
"249 130 CURVE SMOOTH",
"249 249 OFFCURVE",
"252 319 OFFCURVE",
"257 378 CURVE SMOOTH",
"258 393 OFFCURVE",
"262 399 OFFCURVE",
"273 399 CURVE SMOOTH"
);
},
{
closed = 1;
nodes = (
"-23 428 LINE",
"598 428 LINE",
"598 503 LINE",
"-23 503 LINE"
);
},
{
closed = 1;
nodes = (
"-23 0 LINE",
"598 0 LINE",
"598 75 LINE",
"-23 75 LINE"
);
}
);
};
layerId = UUID1;
paths = (
{
closed = 1;
nodes = (
"511 67 OFFCURVE",
"561 154 OFFCURVE",
"561 275 CURVE SMOOTH",
"561 371 OFFCURVE",
"529 437 OFFCURVE",
"464 474 CURVE",
"56 438 LINE",
"71 438 OFFCURVE",
"76 428 OFFCURVE",
"76 396 CURVE SMOOTH",
"76 127 LINE SMOOTH",
"76 84 OFFCURVE",
"64 65 OFFCURVE",
"23 65 CURVE",
"423 23 LINE"
);
},
{
closed = 1;
nodes = (
"598 0 LINE",
"598 65 LINE",
"-23 65 LINE",
"-23 0 LINE"
);
},
{
closed = 1;
nodes = (
"254 98 OFFCURVE",
"249 105 OFFCURVE",
"249 130 CURVE SMOOTH",
"249 249 OFFCURVE",
"252 319 OFFCURVE",
"257 378 CURVE SMOOTH",
"258 393 OFFCURVE",
"262 399 OFFCURVE",
"273 399 CURVE SMOOTH",
"341 399 OFFCURVE",
"356 368 OFFCURVE",
"356 243 CURVE SMOOTH",
"356 134 OFFCURVE",
"334 98 OFFCURVE",
"269 98 CURVE SMOOTH"
);
},
{
closed = 1;
nodes = (
"598 438 LINE",
"598 503 LINE",
"-23 503 LINE",
"-23 438 LINE"
);
}
);
width = 578;
}
);
},
{
color = 1;
glyphname = I.ss01;
layers = (
{
anchors = (
{
name = bottom;
position = "{139, 0}";
},
{
name = ogonek;
position = "{292, 40}";
},
{
name = top;
position = "{187, 647}";
}
);
background = {
paths = (
{
closed = 1;
nodes = (
"122 95 LINE",
"122 51 OFFCURVE",
"111 35 OFFCURVE",
"58 35 CURVE SMOOTH",
"228 35 LINE SMOOTH",
"200 35 OFFCURVE",
"193 46 OFFCURVE",
"193 89 CURVE"
);
},
{
closed = 1;
nodes = (
"339 35 LINE",
"-20 35 LINE"
);
}
);
};
layerId = UUID0;
paths = (
{
closed = 1;
nodes = (
"228 35 LINE",
"200 35 OFFCURVE",
"193 46 OFFCURVE",
"193 89 CURVE SMOOTH",
"193 159 OFFCURVE",
"198 323 OFFCURVE",
"204 430 CURVE SMOOTH",
"206 460 OFFCURVE",
"215 462 OFFCURVE",
"259 462 CURVE",
"93 462 LINE",
"117 462 OFFCURVE",
"123 460 OFFCURVE",
"123 427 CURVE SMOOTH",
"122 95 LINE SMOOTH",
"122 51 OFFCURVE",
"111 35 OFFCURVE",
"58 35 CURVE"
);
},
{
closed = 1;
nodes = (
"339 0 LINE",
"339 35 LINE",
"-20 35 LINE",
"-20 0 LINE"
);
},
{
closed = 1;
nodes = (
"339 462 LINE",
"339 497 LINE",
"-20 497 LINE",
"-20 462 LINE"
);
}
);
width = 319;
},
{
anchors = (
{
name = bottom;
position = "{139, 0}";
},
{
name = ogonek;
position = "{292, 40}";
},
{
name = top;
position = "{187, 647}";
}
);
background = {
paths = (
{
closed = 1;
nodes = (
"74 132 LINE",
"74 97 OFFCURVE",
"69 75 OFFCURVE",
"27 75 CURVE SMOOTH",
"277 75 LINE SMOOTH",
"256 75 OFFCURVE",
"251 84 OFFCURVE",
"251 127 CURVE"
);
},
{
closed = 1;
nodes = (
"342 75 LINE",
"-23 75 LINE"
);
}
);
};
layerId = UUID1;
paths = (
{
closed = 1;
nodes = (
"277 65 LINE",
"256 65 OFFCURVE",
"251 74 OFFCURVE",
"251 117 CURVE SMOOTH",
"251 225 OFFCURVE",
"254 336 OFFCURVE",
"259 401 CURVE SMOOTH",
"262 430 OFFCURVE",
"268 438 OFFCURVE",
"305 438 CURVE",
"46 438 LINE",
"69 438 OFFCURVE",
"74 432 OFFCURVE",
"74 400 CURVE SMOOTH",
"74 122 LINE SMOOTH",
"74 87 OFFCURVE",
"69 65 OFFCURVE",
"27 65 CURVE"
);
},
{
closed = 1;
nodes = (
"342 0 LINE",
"342 65 LINE",
"-23 65 LINE",
"-23 0 LINE"
);
},
{
closed = 1;
nodes = (
"342 438 LINE",
"342 503 LINE",
"-23 503 LINE",
"-23 438 LINE"
);
}
);
width = 322;
}
);
},
{
color = 1;
glyphname = L.ss01;
layers = (
{
anchors = (
{
name = bottom;
position = "{287, 0}";
},
{
name = top;
position = "{190, 647}";
}
);
background = {
paths = (
{
closed = 1;
nodes = (
"258 35 LINE",
"202 35 OFFCURVE",
"193 43 OFFCURVE",
"193 91 CURVE"
);
},
{
closed = 1;
nodes = (
"122 90 LINE",
"122 45 OFFCURVE",
"111 35 OFFCURVE",
"69 35 CURVE"
);
},
{
closed = 1;
nodes = (
"462 35 LINE",
"-20 35 LINE"
);
}
);
};
layerId = UUID0;
paths = (
{
closed = 1;
nodes = (
"419 98 OFFCURVE",
"430 156 OFFCURVE",
"430 156 CURVE",
"427 162 LINE",
"383 157 LINE",
"366 59 OFFCURVE",
"349 35 OFFCURVE",
"258 35 CURVE SMOOTH",
"202 35 OFFCURVE",
"193 43 OFFCURVE",
"193 91 CURVE SMOOTH",
"193 170 OFFCURVE",
"196 305 OFFCURVE",
"203 399 CURVE SMOOTH",
"207 447 OFFCURVE",
"212 462 OFFCURVE",
"258 462 CURVE",
"93 462 LINE",
"117 462 OFFCURVE",
"123 454 OFFCURVE",
"123 420 CURVE SMOOTH",
"122 90 LINE SMOOTH",
"122 45 OFFCURVE",
"111 35 OFFCURVE",
"69 35 CURVE",
"410 16 LINE"
);
},
{
closed = 1;
nodes = (
"462 0 LINE",
"462 35 LINE",
"-20 35 LINE",
"-20 0 LINE"
);
},
{
closed = 1;
nodes = (
"462 462 LINE",
"462 497 LINE",
"-20 497 LINE",
"-20 462 LINE"
);
}
);
width = 442;
},
{
anchors = (
{
name = bottom;
position = "{287, 0}";
},
{
name = top;
position = "{190, 647}";
}
);
background = {
paths = (
{
closed = 1;
nodes = (
"276 99 LINE",
"259 99 OFFCURVE",
"250 109 OFFCURVE",
"250 128 CURVE"
);
},
{
closed = 1;
nodes = (
"73 144 LINE",
"73 97 OFFCURVE",
"63 75 OFFCURVE",
"20 75 CURVE"
);
},
{
closed = 1;
nodes = (
"502 75 LINE",
"-23 75 LINE"
);
}
);
};
layerId = UUID1;
paths = (
{
closed = 1;
nodes = (
"463 122 OFFCURVE",
"475 227 OFFCURVE",
"475 227 CURVE",
"464 240 LINE",
"349 229 LINE",
"344 123 OFFCURVE",
"330 99 OFFCURVE",
"276 99 CURVE SMOOTH",
"259 99 OFFCURVE",
"250 109 OFFCURVE",
"250 128 CURVE SMOOTH",
"250 255 OFFCURVE",
"254 334 OFFCURVE",
"259 399 CURVE SMOOTH",
"260 422 OFFCURVE",
"266 439 OFFCURVE",
"324 439 CURVE",
"44 439 LINE",
"67 439 OFFCURVE",
"73 432 OFFCURVE",
"73 400 CURVE SMOOTH",
"73 134 LINE SMOOTH",
"73 87 OFFCURVE",
"63 65 OFFCURVE",
"20 65 CURVE",
"456 9 LINE"
);
},
{
closed = 1;
nodes = (
"502 0 LINE",
"502 65 LINE",
"-23 65 LINE",
"-23 0 LINE"
);
},
{
closed = 1;
nodes = (
"502 439 LINE",
"502 503 LINE",
"-23 503 LINE",
"-23 439 LINE"
);
}
);
width = 482;
}
);
},
{
color = 1;
glyphname = M.ss01;
layers = (
{
anchors = (
{
name = bottom;
position = "{402, 0}";
},
{
name = top;
position = "{418, 647}";
}
);
background = {
paths = (
{
closed = 1;
nodes = (
"99 84 LINE",
"94 43 OFFCURVE",
"87 35 OFFCURVE",
"50 35 CURVE SMOOTH",
"174 35 LINE SMOOTH",
"156 35 OFFCURVE",
"148 42 OFFCURVE",
"148 59 CURVE"
);
},
{
closed = 1;
nodes = (
"368 11 LINE",
"420 151 OFFCURVE",
"464 270 OFFCURVE",
"510 387 CURVE",
"515 387 LINE",
"515 387 OFFCURVE",
"540 97 OFFCURVE",
"540 69 CURVE SMOOTH",
"540 45 OFFCURVE",
"533 35 OFFCURVE",
"498 35 CURVE SMOOTH",
"644 35 LINE SMOOTH",
"618 35 OFFCURVE",
"610 49 OFFCURVE",
"604 108 CURVE SMOOTH",
"593 211 OFFCURVE",
"583 406 OFFCURVE",
"583 432 CURVE SMOOTH",
"583 459 OFFCURVE",
"591 462 OFFCURVE",
"634 462 CURVE",
"490 484 LINE",
"418 277 OFFCURVE",
"363 136 OFFCURVE",
"363 136 CURVE",
"358 136 LINE",
"358 136 OFFCURVE",
"303 272 OFFCURVE",
"236 482 CURVE",
"78 462 LINE",
"127 462 OFFCURVE",
"136 460 OFFCURVE",
"136 433 CURVE SMOOTH",
"136 410 OFFCURVE",
"105 132 OFFCURVE",
"99 84 CURVE SMOOTH",
"94 43 OFFCURVE",
"87 35 OFFCURVE",
"50 35 CURVE SMOOTH",
"174 35 LINE SMOOTH",
"156 35 OFFCURVE",
"148 42 OFFCURVE",
"148 59 CURVE SMOOTH",
"148 79 OFFCURVE",
"175 387 OFFCURVE",
"175 387 CURVE",
"180 387 LINE",
"227 268 OFFCURVE",
"271 151 OFFCURVE",
"324 7 CURVE"
);
},
{
closed = 1;
nodes = (
"-20 462 LINE",
"520 462 LINE",
"735 462 LINE",
"735 497 LINE",
"-20 497 LINE"
);
},
{
closed = 1;
nodes = (
"-20 0 LINE",
"735 0 LINE",
"735 35 LINE",
"-20 35 LINE"
);
}
);
};
layerId = UUID0;
paths = (
{
closed = 1;
nodes = (
"368 11 LINE",
"420 151 OFFCURVE",
"464 270 OFFCURVE",
"510 387 CURVE",
"515 387 LINE",
"515 387 OFFCURVE",
"540 97 OFFCURVE",
"540 69 CURVE SMOOTH",
"540 45 OFFCURVE",
"533 35 OFFCURVE",
"498 35 CURVE",
"644 35 LINE",
"618 35 OFFCURVE",
"610 49 OFFCURVE",
"604 108 CURVE SMOOTH",
"593 211 OFFCURVE",
"583 406 OFFCURVE",
"583 432 CURVE SMOOTH",
"583 459 OFFCURVE",
"591 462 OFFCURVE",
"634 462 CURVE",
"490 484 LINE",
"418 277 OFFCURVE",
"363 136 OFFCURVE",
"363 136 CURVE",
"358 136 LINE",
"358 136 OFFCURVE",
"303 272 OFFCURVE",
"236 482 CURVE",
"78 462 LINE",
"127 462 OFFCURVE",
"136 460 OFFCURVE",
"136 433 CURVE SMOOTH",
"136 410 OFFCURVE",
"105 132 OFFCURVE",
"99 84 CURVE SMOOTH",
"94 43 OFFCURVE",
"87 35 OFFCURVE",
"50 35 CURVE",
"174 35 LINE",
"156 35 OFFCURVE",
"148 42 OFFCURVE",
"148 59 CURVE SMOOTH",
"148 79 OFFCURVE",
"175 387 OFFCURVE",
"175 387 CURVE",
"180 387 LINE",
"227 268 OFFCURVE",
"271 151 OFFCURVE",
"324 7 CURVE"
);
},
{
closed = 1;
nodes = (
"-20 0 LINE",
"735 0 LINE",
"735 35 LINE",
"-20 35 LINE"
);
},
{
closed = 1;
nodes = (
"-20 462 LINE",
"520 462 LINE",
"735 462 LINE",
"735 497 LINE",
"-20 497 LINE"
);
}
);
width = 715;
},
{
anchors = (
{
name = bottom;
position = "{402, 0}";
},
{
name = top;
position = "{418, 647}";
}
);
background = {
paths = (
{
closed = 1;
nodes = (
"62 120 LINE",
"60 86 OFFCURVE",
"51 75 OFFCURVE",
"20 75 CURVE SMOOTH",
"215 75 LINE SMOOTH",
"196 75 OFFCURVE",
"187 83 OFFCURVE",
"187 101 CURVE"
);
},
{
closed = 1;
nodes = (
"399 9 LINE",
"442 165 OFFCURVE",
"483 285 OFFCURVE",
"476 260 CURVE",
"488 260 LINE",
"488 260 OFFCURVE",
"488 145 OFFCURVE",
"488 109 CURVE SMOOTH",
"488 84 OFFCURVE",
"481 75 OFFCURVE",
"448 75 CURVE SMOOTH",
"674 75 LINE SMOOTH",
"649 75 OFFCURVE",
"640 93 OFFCURVE",
"636 142 CURVE SMOOTH",
"630 208 OFFCURVE",
"618 339 OFFCURVE",
"618 391 CURVE SMOOTH",
"618 423 OFFCURVE",
"626 428 OFFCURVE",
"671 428 CURVE",
"426 494 LINE",
"403 401 OFFCURVE",
"369 285 OFFCURVE",
"369 285 CURVE",
"357 285 LINE",
"357 285 OFFCURVE",
"326 402 OFFCURVE",
"308 497 CURVE",
"41 428 LINE",
"86 428 OFFCURVE",
"90 423 OFFCURVE",
"90 394 CURVE SMOOTH",
"90 374 OFFCURVE",
"61 109 OFFCURVE",
"62 120 CURVE SMOOTH",
"60 86 OFFCURVE",
"51 75 OFFCURVE",
"20 75 CURVE SMOOTH",
"215 75 LINE SMOOTH",
"196 75 OFFCURVE",
"187 83 OFFCURVE",
"187 101 CURVE SMOOTH",
"187 118 OFFCURVE",
"188 260 OFFCURVE",
"188 260 CURVE",
"200 260 LINE",
"193 285 OFFCURVE",
"227 181 OFFCURVE",
"273 12 CURVE"
);
},
{
closed = 1;
nodes = (
"-23 428 LINE",
"515 428 LINE",
"725 428 LINE",
"725 503 LINE",
"-23 503 LINE"
);
},
{
closed = 1;
nodes = (
"-23 0 LINE",
"725 0 LINE",
"725 75 LINE",
"-23 75 LINE"
);
}
);
};
layerId = UUID1;
paths = (
{
closed = 1;
nodes = (
"399 9 LINE",
"442 165 OFFCURVE",
"483 285 OFFCURVE",
"476 260 CURVE",
"488 260 LINE",
"488 260 OFFCURVE",
"488 135 OFFCURVE",
"488 99 CURVE SMOOTH",
"488 74 OFFCURVE",
"481 65 OFFCURVE",
"448 65 CURVE",
"674 65 LINE",
"649 65 OFFCURVE",
"640 93 OFFCURVE",
"636 142 CURVE SMOOTH",
"630 208 OFFCURVE",
"618 349 OFFCURVE",
"618 401 CURVE SMOOTH",
"618 433 OFFCURVE",
"626 438 OFFCURVE",
"671 438 CURVE",
"426 494 LINE",
"403 401 OFFCURVE",
"369 285 OFFCURVE",
"369 285 CURVE",
"357 285 LINE",
"357 285 OFFCURVE",
"326 402 OFFCURVE",
"308 497 CURVE",
"41 438 LINE",
"86 438 OFFCURVE",
"90 433 OFFCURVE",
"90 404 CURVE SMOOTH",
"90 384 OFFCURVE",
"59 99 OFFCURVE",
"60 110 CURVE SMOOTH",
"58 76 OFFCURVE",
"49 65 OFFCURVE",
"18 65 CURVE",
"213 65 LINE",
"194 65 OFFCURVE",
"185 73 OFFCURVE",
"185 91 CURVE SMOOTH",
"185 108 OFFCURVE",
"188 260 OFFCURVE",
"188 260 CURVE",
"200 260 LINE",
"193 285 OFFCURVE",
"227 181 OFFCURVE",
"273 12 CURVE"
);
},
{
closed = 1;
nodes = (
"-23 0 LINE",
"725 0 LINE",
"725 65 LINE",
"-23 65 LINE"
);
},
{
closed = 1;
nodes = (
"-23 438 LINE",
"515 438 LINE",
"725 438 LINE",
"725 503 LINE",
"-23 503 LINE"
);
}
);
width = 705;
}
);
},
{
color = 1;
glyphname = V.ss01;
layers = (
{
anchors = (
{
name = bottom;
position = "{312, 0}";
},
{
name = top;
position = "{346, 647}";
}
);
background = {
paths = (
{
closed = 1;
nodes = (
"454 423 LINE",
"466 453 OFFCURVE",
"473 462 OFFCURVE",
"506 462 CURVE SMOOTH",
"351 462 LINE SMOOTH",
"389 462 OFFCURVE",
"395 458 OFFCURVE",
"395 437 CURVE"
);
},
{
closed = 1;
nodes = (
"163 443 LINE",
"163 460 OFFCURVE",
"172 462 OFFCURVE",
"230 462 CURVE SMOOTH",
"13 462 LINE SMOOTH",
"53 462 OFFCURVE",
"68 453 OFFCURVE",
"78 423 CURVE"
);
},
{
closed = 1;
nodes = (
"-20 462 LINE",
"545 462 LINE"
);
},
{
closed = 1;
nodes = (
"294 20 LINE",
"454 423 LINE SMOOTH",
"466 453 OFFCURVE",
"473 462 OFFCURVE",
"506 462 CURVE SMOOTH",
"351 462 LINE SMOOTH",
"389 462 OFFCURVE",
"395 458 OFFCURVE",
"395 437 CURVE SMOOTH",
"395 413 OFFCURVE",
"305 173 OFFCURVE",
"268 84 CURVE",
"259 84 LINE",
"259 84 OFFCURVE",
"163 417 OFFCURVE",
"163 443 CURVE SMOOTH",
"163 460 OFFCURVE",
"172 462 OFFCURVE",
"230 462 CURVE SMOOTH",
"13 462 LINE SMOOTH",
"53 462 OFFCURVE",
"68 453 OFFCURVE",
"78 423 CURVE SMOOTH",
"128 277 OFFCURVE",
"184 87 OFFCURVE",
"205 17 CURVE"
);
},
{
closed = 1;
nodes = (
"-20 462 LINE",
"545 462 LINE",
"545 497 LINE",
"-20 497 LINE"
);
},
{
closed = 1;
nodes = (
"-20 0 LINE",
"545 0 LINE",
"545 35 LINE",
"-20 35 LINE"
);
}
);
};
layerId = UUID0;
paths = (
{
closed = 1;
nodes = (
"294 20 LINE",
"454 423 LINE SMOOTH",
"466 453 OFFCURVE",
"473 462 OFFCURVE",
"506 462 CURVE",
"351 462 LINE",
"389 462 OFFCURVE",
"395 458 OFFCURVE",
"395 437 CURVE SMOOTH",
"395 413 OFFCURVE",
"305 173 OFFCURVE",
"268 84 CURVE",
"259 84 LINE",
"259 84 OFFCURVE",
"163 417 OFFCURVE",
"163 443 CURVE SMOOTH",
"163 460 OFFCURVE",
"172 462 OFFCURVE",
"230 462 CURVE",
"13 462 LINE",
"53 462 OFFCURVE",
"68 453 OFFCURVE",
"78 423 CURVE SMOOTH",
"128 277 OFFCURVE",
"184 87 OFFCURVE",
"205 17 CURVE"
);
},
{
closed = 1;
nodes = (
"-20 0 LINE",
"545 0 LINE",
"545 35 LINE",
"-20 35 LINE"
);
},
{
closed = 1;
nodes = (
"-20 462 LINE",
"545 462 LINE",
"545 497 LINE",
"-20 497 LINE"
);
}
);
width = 525;
},
{
anchors = (
{
name = bottom;
position = "{312, 0}";
},
{
name = top;
position = "{346, 647}";
}
);
background = {
paths = (
{
closed = 1;
nodes = (
"511 388 LINE",
"521 417 OFFCURVE",
"527 428 OFFCURVE",
"544 428 CURVE SMOOTH",
"335 428 LINE SMOOTH",
"354 428 OFFCURVE",
"356 426 OFFCURVE",
"356 414 CURVE"
);
},
{
closed = 1;
nodes = (
"241 403 LINE",
"241 422 OFFCURVE",
"243 428 OFFCURVE",
"291 428 CURVE SMOOTH",
"11 428 LINE SMOOTH",
"32 428 OFFCURVE",
"41 413 OFFCURVE",
"51 377 CURVE"
);
},
{
closed = 1;
nodes = (
"-23 428 LINE",
"569 428 LINE"
);
},
{
closed = 1;
nodes = (
"399 18 LINE",
"511 388 LINE SMOOTH",
"521 417 OFFCURVE",
"527 428 OFFCURVE",
"544 428 CURVE SMOOTH",
"335 428 LINE SMOOTH",
"354 428 OFFCURVE",
"356 426 OFFCURVE",
"356 414 CURVE SMOOTH",
"356 388 OFFCURVE",
"292 122 OFFCURVE",
"297 141 CURVE",
"278 141 LINE",
"278 141 OFFCURVE",
"241 371 OFFCURVE",
"241 403 CURVE SMOOTH",
"241 422 OFFCURVE",
"243 428 OFFCURVE",
"291 428 CURVE SMOOTH",
"11 428 LINE SMOOTH",
"32 428 OFFCURVE",
"41 413 OFFCURVE",
"51 377 CURVE SMOOTH",
"64 328 OFFCURVE",
"114 116 OFFCURVE",
"134 28 CURVE"
);
},
{
closed = 1;
nodes = (
"-23 428 LINE",
"569 428 LINE",
"569 503 LINE",
"-23 503 LINE"
);
},
{
closed = 1;
nodes = (
"-23 0 LINE",
"569 0 LINE",
"569 75 LINE",
"-23 75 LINE"
);
}
);
};
layerId = UUID1;
paths = (
{
closed = 1;
nodes = (
"399 18 LINE",
"514 398 LINE SMOOTH",
"524 427 OFFCURVE",
"530 438 OFFCURVE",
"547 438 CURVE",
"338 438 LINE",
"357 438 OFFCURVE",
"359 436 OFFCURVE",
"359 424 CURVE SMOOTH",
"359 398 OFFCURVE",
"292 122 OFFCURVE",
"297 141 CURVE",
"278 141 LINE",
"278 141 OFFCURVE",
"237 381 OFFCURVE",
"237 413 CURVE SMOOTH",
"237 432 OFFCURVE",
"239 438 OFFCURVE",
"287 438 CURVE",
"7 438 LINE",
"28 438 OFFCURVE",
"37 423 OFFCURVE",
"47 387 CURVE SMOOTH",
"60 338 OFFCURVE",
"114 116 OFFCURVE",
"134 28 CURVE"
);
},
{
closed = 1;
nodes = (
"-23 0 LINE",
"569 0 LINE",
"569 65 LINE",
"-23 65 LINE"
);
},
{
closed = 1;
nodes = (
"-23 438 LINE",
"569 438 LINE",
"569 503 LINE",
"-23 503 LINE"
);
}
);
width = 549;
}
);
},
{
color = 1;
glyphname = X.ss01;
layers = (
{
anchors = (
{
name = bottom;
position = "{271, 0}";
},
{
name = top;
position = "{390, 647}";
}
);
background = {
paths = (
{
closed = 1;
nodes = (
"155 146 LINE SMOOTH",
"108 91 OFFCURVE",
"60 35 OFFCURVE",
"13 35 CURVE",
"204 35 LINE",
"173 35 OFFCURVE",
"159 44 OFFCURVE",
"159 58 CURVE SMOOTH",
"159 72 OFFCURVE",
"169 88 OFFCURVE",
"198 124 CURVE SMOOTH",
"268 212 LINE",
"346 103 LINE SMOOTH",
"356 89 OFFCURVE",
"362 70 OFFCURVE",
"362 61 CURVE SMOOTH",
"362 44 OFFCURVE",
"348 37 OFFCURVE",
"307 35 CURVE",
"546 35 LINE",
"494 35 OFFCURVE",
"467 64 OFFCURVE",
"437 105 CURVE SMOOTH",
"323 261 LINE",
"426 389 LINE SMOOTH",
"469 441 OFFCURVE",
"487 463 OFFCURVE",
"530 463 CURVE",
"361 462 LINE",
"392 462 OFFCURVE",
"400 457 OFFCURVE",
"400 444 CURVE SMOOTH",
"400 423 OFFCURVE",
"331 346 OFFCURVE",
"296 300 CURVE",
"244 373 OFFCURVE",
"207 423 OFFCURVE",
"207 437 CURVE SMOOTH",
"207 456 OFFCURVE",
"216 462 OFFCURVE",
"250 462 CURVE",
"29 462 LINE",
"77 462 OFFCURVE",
"105 445 OFFCURVE",
"133 405 CURVE SMOOTH",
"243 251 LINE"
);
},
{
closed = 1;
nodes = (
"-20 462 LINE",
"586 462 LINE",
"586 497 LINE",
"-20 497 LINE"
);
},
{
closed = 1;
nodes = (
"-20 0 LINE",
"586 0 LINE",
"586 35 LINE",
"-20 35 LINE"
);
}
);
};
layerId = UUID0;
paths = (
{
closed = 1;
nodes = (
"204 35 LINE",
"173 35 OFFCURVE",
"159 44 OFFCURVE",
"159 58 CURVE SMOOTH",
"159 72 OFFCURVE",
"169 88 OFFCURVE",
"198 124 CURVE SMOOTH",
"268 212 LINE",
"346 103 LINE SMOOTH",
"356 89 OFFCURVE",
"362 70 OFFCURVE",
"362 61 CURVE SMOOTH",
"362 44 OFFCURVE",
"348 37 OFFCURVE",
"307 35 CURVE",
"546 35 LINE",
"494 35 OFFCURVE",
"467 64 OFFCURVE",
"437 105 CURVE SMOOTH",
"323 261 LINE",
"426 389 LINE SMOOTH",
"469 441 OFFCURVE",
"487 463 OFFCURVE",
"530 463 CURVE",
"361 462 LINE",
"392 462 OFFCURVE",
"400 457 OFFCURVE",
"400 444 CURVE SMOOTH",
"400 423 OFFCURVE",
"331 346 OFFCURVE",
"296 300 CURVE",
"244 373 OFFCURVE",
"207 423 OFFCURVE",
"207 437 CURVE SMOOTH",
"207 456 OFFCURVE",
"216 462 OFFCURVE",
"250 462 CURVE",
"29 462 LINE",
"77 462 OFFCURVE",
"105 445 OFFCURVE",
"133 405 CURVE SMOOTH",
"243 251 LINE",
"155 146 LINE SMOOTH",
"108 91 OFFCURVE",
"60 35 OFFCURVE",
"13 35 CURVE"
);
},
{
closed = 1;
nodes = (
"586 0 LINE",
"586 35 LINE",
"-20 35 LINE",
"-20 0 LINE"
);
},
{
closed = 1;
nodes = (
"586 462 LINE",
"586 497 LINE",
"-20 497 LINE",
"-20 462 LINE"
);
}
);
width = 566;
},
{
anchors = (
{
name = bottom;
position = "{271, 0}";
},
{
name = top;
position = "{390, 647}";
}
);
background = {
paths = (
{
closed = 1;
nodes = (
"112 175 LINE SMOOTH",
"84 137 OFFCURVE",
"24 75 OFFCURVE",
"-9 75 CURVE",
"254 75 LINE",
"233 75 OFFCURVE",
"224 82 OFFCURVE",
"224 98 CURVE SMOOTH",
"224 104 OFFCURVE",
"229 115 OFFCURVE",
"234 123 CURVE SMOOTH",
"260 163 LINE",
"305 106 LINE SMOOTH",
"311 98 OFFCURVE",
"313 93 OFFCURVE",
"313 87 CURVE SMOOTH",
"313 78 OFFCURVE",
"307 75 OFFCURVE",
"295 75 CURVE",
"593 75 LINE",
"555 75 OFFCURVE",
"523 100 OFFCURVE",
"487 146 CURVE SMOOTH",
"422 228 LINE",
"497 340 LINE SMOOTH",
"523 379 OFFCURVE",
"565 428 OFFCURVE",
"610 428 CURVE",
"355 428 LINE",
"379 428 OFFCURVE",
"385 425 OFFCURVE",
"385 414 CURVE SMOOTH",
"385 402 OFFCURVE",
"360 368 OFFCURVE",
"342 336 CURVE",
"315 369 OFFCURVE",
"295 389 OFFCURVE",
"295 411 CURVE SMOOTH",
"295 423 OFFCURVE",
"301 428 OFFCURVE",
"323 428 CURVE",
"21 428 LINE",
"63 428 OFFCURVE",
"83 407 OFFCURVE",
"120 356 CURVE SMOOTH",
"183 273 LINE"
);
},
{
closed = 1;
nodes = (
"-23 428 LINE",
"630 428 LINE",
"630 503 LINE",
"-23 503 LINE"
);
},
{
closed = 1;
nodes = (
"-23 0 LINE",
"630 0 LINE",
"630 75 LINE",
"-23 75 LINE"
);
}
);
};
layerId = UUID1;
paths = (
{
closed = 1;
nodes = (
"251 65 LINE",
"230 65 OFFCURVE",
"221 72 OFFCURVE",
"221 88 CURVE SMOOTH",
"221 94 OFFCURVE",
"229 115 OFFCURVE",
"234 123 CURVE SMOOTH",
"260 163 LINE",
"305 106 LINE SMOOTH",
"314 94 OFFCURVE",
"322 83 OFFCURVE",
"322 77 CURVE SMOOTH",
"322 68 OFFCURVE",
"313 65 OFFCURVE",
"301 65 CURVE",
"599 65 LINE",
"561 65 OFFCURVE",
"523 100 OFFCURVE",
"487 146 CURVE SMOOTH",
"422 228 LINE",
"497 340 LINE SMOOTH",
"523 379 OFFCURVE",
"569 438 OFFCURVE",
"614 438 CURVE",
"359 438 LINE",
"383 438 OFFCURVE",
"389 435 OFFCURVE",
"389 424 CURVE SMOOTH",
"389 412 OFFCURVE",
"360 368 OFFCURVE",
"342 336 CURVE",
"315 369 OFFCURVE",
"289 399 OFFCURVE",
"289 421 CURVE SMOOTH",
"289 433 OFFCURVE",
"295 438 OFFCURVE",
"317 438 CURVE",
"15 438 LINE",
"57 438 OFFCURVE",
"83 407 OFFCURVE",
"120 356 CURVE SMOOTH",
"183 273 LINE",
"112 175 LINE SMOOTH",
"84 137 OFFCURVE",
"21 65 OFFCURVE",
"-12 65 CURVE"
);
},
{
closed = 1;
nodes = (
"630 0 LINE",
"630 65 LINE",
"-23 65 LINE",
"-23 0 LINE"
);
},
{
closed = 1;
nodes = (
"630 438 LINE",
"630 503 LINE",
"-23 503 LINE",
"-23 438 LINE"
);
}
);
width = 610;
}
);
},
{
color = 1;
glyphname = a;
layers = (
{
anchors = (
{
name = bottom;
position = "{229, 0}";
},
{
name = ogonek;
position = "{420, 41}";
},
{
name = top;
position = "{217, 452}";
}
);
background = {
paths = (
{
closed = 1;
nodes = (
"284 248 LINE",
"94 196 LINE SMOOTH",
"62 187 OFFCURVE",
"41 155 OFFCURVE",
"41 116 CURVE SMOOTH",
"41 44 OFFCURVE",
"95 -8 OFFCURVE",
"169 -8 CURVE SMOOTH",
"189 -8 OFFCURVE",
"231 22 OFFCURVE",
"279 70 CURVE",
"283 69 LINE",
"288 15 OFFCURVE",
"318 -12 OFFCURVE",
"372 -12 CURVE",
"422 5 OFFCURVE",
"459 68 OFFCURVE",
"459 68 CURVE",
"445 84 LINE",
"445 84 OFFCURVE",
"417 59 OFFCURVE",
"385 59 CURVE SMOOTH",
"359 59 OFFCURVE",
"344 76 OFFCURVE",
"344 105 CURVE SMOOTH",
"344 164 OFFCURVE",
"362 299 OFFCURVE",
"362 335 CURVE SMOOTH",
"362 416 OFFCURVE",
"310 464 OFFCURVE",
"223 464 CURVE SMOOTH",
"180 464 OFFCURVE",
"60 394 OFFCURVE",
"60 394 CURVE",
"72 351 LINE",
"77 348 LINE",
"77 348 OFFCURVE",
"132 398 OFFCURVE",
"197 398 CURVE SMOOTH",
"253 398 OFFCURVE",
"285 359 OFFCURVE",
"285 292 CURVE"
);
},
{
closed = 1;
nodes = (
"277 108 LINE",
"249 80 OFFCURVE",
"211 60 OFFCURVE",
"186 60 CURVE SMOOTH",
"146 60 OFFCURVE",
"117 89 OFFCURVE",
"117 127 CURVE SMOOTH",
"117 148 OFFCURVE",
"127 163 OFFCURVE",
"146 169 CURVE SMOOTH",
"282 210 LINE"
);
}
);
};
layerId = UUID0;
paths = (
{
closed = 1;
nodes = (
"409 0 OFFCURVE",
"443 41 OFFCURVE",
"459 68 CURVE",
"445 84 LINE",
"433 73 OFFCURVE",
"408 59 OFFCURVE",
"385 59 CURVE SMOOTH",
"359 59 OFFCURVE",
"344 76 OFFCURVE",
"344 105 CURVE SMOOTH",
"344 164 OFFCURVE",
"362 299 OFFCURVE",
"362 335 CURVE SMOOTH",
"362 416 OFFCURVE",
"310 464 OFFCURVE",
"223 464 CURVE SMOOTH",
"192 464 OFFCURVE",
"112 424 OFFCURVE",
"60 394 CURVE",
"72 351 LINE",
"77 348 LINE",
"117 380 OFFCURVE",
"160 398 OFFCURVE",
"197 398 CURVE SMOOTH",
"253 398 OFFCURVE",
"285 359 OFFCURVE",
"285 292 CURVE",
"284 248 LINE",
"94 196 LINE SMOOTH",
"62 187 OFFCURVE",
"41 155 OFFCURVE",
"41 116 CURVE SMOOTH",
"41 44 OFFCURVE",
"95 -8 OFFCURVE",
"169 -8 CURVE SMOOTH",
"189 -8 OFFCURVE",
"231 22 OFFCURVE",
"279 70 CURVE",
"283 69 LINE",
"288 15 OFFCURVE",
"318 -12 OFFCURVE",
"372 -12 CURVE"
);
},
{
closed = 1;
nodes = (
"146 60 OFFCURVE",
"117 89 OFFCURVE",
"117 127 CURVE SMOOTH",
"117 148 OFFCURVE",
"127 163 OFFCURVE",
"146 169 CURVE SMOOTH",
"282 210 LINE",
"277 108 LINE",
"249 80 OFFCURVE",
"211 60 OFFCURVE",
"186 60 CURVE SMOOTH"
);
}
);
width = 466;
},
{
anchors = (
{
name = bottom;
position = "{229, 0}";
},
{
name = ogonek;
position = "{420, 41}";
},
{
name = top;
position = "{241, 474}";
}
);
layerId = UUID1;
paths = (
{
closed = 1;
nodes = (
"428 -5 OFFCURVE",
"476 61 OFFCURVE",
"502 109 CURVE",
"485 136 LINE",
"477 133 OFFCURVE",
"463 128 OFFCURVE",
"451 128 CURVE SMOOTH",
"434 128 OFFCURVE",
"422 142 OFFCURVE",
"422 162 CURVE SMOOTH",
"422 190 OFFCURVE",
"444 307 OFFCURVE",
"444 339 CURVE SMOOTH",
"444 412 OFFCURVE",
"397 484 OFFCURVE",
"245 484 CURVE SMOOTH",
"207 484 OFFCURVE",
"104 437 OFFCURVE",
"37 401 CURVE",
"62 321 LINE",
"74 315 LINE",
"101 333 OFFCURVE",
"151 358 OFFCURVE",
"189 358 CURVE SMOOTH",
"240 358 OFFCURVE",
"271 331 OFFCURVE",
"271 286 CURVE",
"271 285 LINE",
"75 249 LINE SMOOTH",
"37 241 OFFCURVE",
"11 206 OFFCURVE",
"11 162 CURVE SMOOTH",
"11 67 OFFCURVE",
"76 -8 OFFCURVE",
"158 -8 CURVE SMOOTH",
"189 -8 OFFCURVE",
"238 34 OFFCURVE",
"269 66 CURVE",
"281 61 LINE",
"287 14 OFFCURVE",
"328 -12 OFFCURVE",
"394 -12 CURVE"
);
},
{
closed = 1;
nodes = (
"194 120 OFFCURVE",
"179 143 OFFCURVE",
"179 174 CURVE SMOOTH",
"179 188 OFFCURVE",
"183 193 OFFCURVE",
"197 196 CURVE SMOOTH",
"269 212 LINE",
"268 126 LINE",
"254 123 OFFCURVE",
"234 120 OFFCURVE",
"219 120 CURVE SMOOTH"
);
}
);
width = 503;
}
);
leftKerningGroup = a;
rightKerningGroup = n;
unicode = 0061;
},
{
color = 1;
glyphname = aogonek;
layers = (
{
background = {
paths = (
{
closed = 1;
nodes = (
"283 248 LINE",
"94 196 LINE SMOOTH",
"62 187 OFFCURVE",
"41 155 OFFCURVE",
"41 116 CURVE SMOOTH",
"41 44 OFFCURVE",
"95 -8 OFFCURVE",
"169 -8 CURVE SMOOTH",
"189 -8 OFFCURVE",
"231 22 OFFCURVE",
"279 70 CURVE",
"283 69 LINE",
"288 15 OFFCURVE",
"318 -12 OFFCURVE",
"372 -12 CURVE",
"422 5 OFFCURVE",
"459 68 OFFCURVE",
"459 68 CURVE",
"445 84 LINE",
"445 84 OFFCURVE",
"417 59 OFFCURVE",
"385 59 CURVE SMOOTH",
"359 59 OFFCURVE",
"344 76 OFFCURVE",
"344 105 CURVE SMOOTH",
"344 164 OFFCURVE",
"362 299 OFFCURVE",
"362 335 CURVE SMOOTH",
"362 416 OFFCURVE",
"310 464 OFFCURVE",
"223 464 CURVE SMOOTH",
"180 464 OFFCURVE",
"60 394 OFFCURVE",
"60 394 CURVE",
"72 351 LINE",
"77 348 LINE",
"77 348 OFFCURVE",
"132 398 OFFCURVE",
"197 398 CURVE SMOOTH",
"253 398 OFFCURVE",
"285 359 OFFCURVE",
"285 292 CURVE"
);
},
{
closed = 1;
nodes = (
"277 108 LINE",
"249 80 OFFCURVE",
"211 60 OFFCURVE",
"186 60 CURVE SMOOTH",
"146 60 OFFCURVE",
"117 89 OFFCURVE",
"117 127 CURVE SMOOTH",
"117 148 OFFCURVE",
"127 163 OFFCURVE",
"146 169 CURVE SMOOTH",
"281 210 LINE"
);
},
{
closed = 1;
nodes = (
"460 -159 LINE",
"460 -159 OFFCURVE",
"422 -182 OFFCURVE",
"383 -182 CURVE SMOOTH",
"348 -182 OFFCURVE",
"325 -159 OFFCURVE",
"325 -128 CURVE SMOOTH",
"325 -79 OFFCURVE",
"359 -42 OFFCURVE",
"441 42 CURVE",
"399 42 LINE",
"327 -30 OFFCURVE",
"262 -89 OFFCURVE",
"262 -147 CURVE SMOOTH",
"262 -207 OFFCURVE",
"308 -241 OFFCURVE",
"373 -241 CURVE",
"424 -224 OFFCURVE",
"473 -178 OFFCURVE",
"473 -178 CURVE"
);
}
);
};
layerId = UUID0;
paths = (
{
closed = 1;
nodes = (
"424 -224 OFFCURVE",
"473 -178 OFFCURVE",
"473 -178 CURVE",
"460 -159 LINE",
"460 -159 OFFCURVE",
"422 -182 OFFCURVE",
"383 -182 CURVE SMOOTH",
"348 -182 OFFCURVE",
"325 -160 OFFCURVE",
"325 -128 CURVE SMOOTH",
"325 -89 OFFCURVE",
"355 -46 OFFCURVE",
"461 65 CURVE",
"445 84 LINE",
"445 84 OFFCURVE",
"417 59 OFFCURVE",
"385 59 CURVE SMOOTH",
"359 59 OFFCURVE",
"344 76 OFFCURVE",
"344 105 CURVE SMOOTH",
"344 144 OFFCURVE",
"362 310 OFFCURVE",
"362 335 CURVE SMOOTH",
"362 430 OFFCURVE",
"294 464 OFFCURVE",
"223 464 CURVE SMOOTH",
"180 464 OFFCURVE",
"60 394 OFFCURVE",
"60 394 CURVE",
"72 351 LINE",
"77 348 LINE",
"77 348 OFFCURVE",
"132 398 OFFCURVE",
"197 398 CURVE SMOOTH",
"253 398 OFFCURVE",
"285 359 OFFCURVE",
"285 292 CURVE",
"283 248 LINE",
"94 196 LINE SMOOTH",
"62 187 OFFCURVE",
"41 155 OFFCURVE",
"41 116 CURVE SMOOTH",
"41 44 OFFCURVE",
"95 -8 OFFCURVE",
"169 -8 CURVE SMOOTH",
"189 -8 OFFCURVE",
"231 22 OFFCURVE",
"279 70 CURVE",
"283 69 LINE",
"286 25 OFFCURVE",
"308 -3 OFFCURVE",
"347 -9 CURVE",
"285 -73 OFFCURVE",
"262 -111 OFFCURVE",
"262 -147 CURVE SMOOTH",
"262 -205 OFFCURVE",
"305 -241 OFFCURVE",
"373 -241 CURVE"
);
},
{
closed = 1;
nodes = (
"146 60 OFFCURVE",
"117 89 OFFCURVE",
"117 127 CURVE SMOOTH",
"117 148 OFFCURVE",
"127 162 OFFCURVE",
"146 169 CURVE SMOOTH",
"281 210 LINE",
"277 108 LINE",
"249 80 OFFCURVE",
"211 60 OFFCURVE",
"186 60 CURVE SMOOTH"
);
}
);
width = 466;
},
{
background = {
paths = (
{
closed = 1;
nodes = (
"271 285 LINE",
"75 249 LINE SMOOTH",
"37 241 OFFCURVE",
"11 206 OFFCURVE",
"11 162 CURVE SMOOTH",
"11 67 OFFCURVE",
"76 -8 OFFCURVE",
"158 -8 CURVE SMOOTH",
"189 -8 OFFCURVE",
"238 34 OFFCURVE",
"269 66 CURVE",
"281 61 LINE",
"287 14 OFFCURVE",
"328 -12 OFFCURVE",
"394 -12 CURVE",
"441 -2 OFFCURVE",
"502 109 OFFCURVE",
"502 109 CURVE",
"485 136 LINE",
"485 136 OFFCURVE",
"467 128 OFFCURVE",
"451 128 CURVE SMOOTH",
"434 128 OFFCURVE",
"422 142 OFFCURVE",
"422 162 CURVE SMOOTH",
"422 190 OFFCURVE",
"444 307 OFFCURVE",
"444 339 CURVE SMOOTH",
"444 412 OFFCURVE",
"397 484 OFFCURVE",
"245 484 CURVE SMOOTH",
"193 484 OFFCURVE",
"37 401 OFFCURVE",
"37 401 CURVE",
"62 321 LINE",
"74 315 LINE",
"74 315 OFFCURVE",
"137 358 OFFCURVE",
"189 358 CURVE SMOOTH",
"240 358 OFFCURVE",
"271 331 OFFCURVE",
"271 286 CURVE"
);
},
{
closed = 1;
nodes = (
"268 126 LINE",
"254 123 OFFCURVE",
"234 120 OFFCURVE",
"219 120 CURVE SMOOTH",
"194 120 OFFCURVE",
"179 143 OFFCURVE",
"179 174 CURVE SMOOTH",
"179 188 OFFCURVE",
"183 193 OFFCURVE",
"197 196 CURVE SMOOTH",
"269 212 LINE"
);
},
{
closed = 1;
nodes = (
"376 42 LINE",
"276 -74 OFFCURVE",
"259 -100 OFFCURVE",
"259 -138 CURVE SMOOTH",
"259 -199 OFFCURVE",
"311 -242 OFFCURVE",
"384 -242 CURVE",
"413 -238 OFFCURVE",
"449 -214 OFFCURVE",
"497 -167 CURVE",
"464 -115 LINE",
"443 -129 OFFCURVE",
"421 -138 OFFCURVE",
"405 -138 CURVE SMOOTH",
"391 -138 OFFCURVE",
"383 -130 OFFCURVE",
"383 -116 CURVE SMOOTH",
"383 -92 OFFCURVE",
"401 -54 OFFCURVE",
"458 42 CURVE"
);
}
);
};
layerId = UUID1;
paths = (
{
closed = 1;
nodes = (
"413 -238 OFFCURVE",
"449 -214 OFFCURVE",
"497 -167 CURVE",
"464 -115 LINE",
"443 -129 OFFCURVE",
"421 -138 OFFCURVE",
"405 -138 CURVE SMOOTH",
"391 -138 OFFCURVE",
"383 -130 OFFCURVE",
"383 -116 CURVE SMOOTH",
"383 -64 OFFCURVE",
"476 60 OFFCURVE",
"502 109 CURVE",
"485 136 LINE",
"477 133 OFFCURVE",
"463 128 OFFCURVE",
"451 128 CURVE SMOOTH",
"434 128 OFFCURVE",
"422 142 OFFCURVE",
"422 162 CURVE SMOOTH",
"422 190 OFFCURVE",
"444 307 OFFCURVE",
"444 339 CURVE SMOOTH",
"444 412 OFFCURVE",
"397 484 OFFCURVE",
"245 484 CURVE SMOOTH",
"207 484 OFFCURVE",
"104 437 OFFCURVE",
"37 401 CURVE",
"62 321 LINE",
"74 315 LINE",
"101 333 OFFCURVE",
"151 358 OFFCURVE",
"189 358 CURVE SMOOTH",
"240 358 OFFCURVE",
"271 331 OFFCURVE",
"271 286 CURVE SMOOTH",
"271 285 LINE",
"75 249 LINE SMOOTH",
"37 241 OFFCURVE",
"11 206 OFFCURVE",
"11 162 CURVE SMOOTH",
"11 67 OFFCURVE",
"76 -8 OFFCURVE",
"158 -8 CURVE SMOOTH",
"189 -8 OFFCURVE",
"238 34 OFFCURVE",
"269 66 CURVE",
"281 61 LINE",
"285.015 29.547 OFFCURVE",
"304.705 7.5 OFFCURVE",
"337.071 -3.645 CURVE",
"271.37 -81.903 OFFCURVE",
"259 -105.586 OFFCURVE",
"259 -138 CURVE SMOOTH",
"259 -199 OFFCURVE",
"311 -242 OFFCURVE",
"384 -242 CURVE"
);
},
{
closed = 1;
nodes = (
"194 120 OFFCURVE",
"179 143 OFFCURVE",
"179 174 CURVE SMOOTH",
"179 188 OFFCURVE",
"183 193 OFFCURVE",
"197 196 CURVE SMOOTH",
"269 212 LINE",
"268 126 LINE",
"254 123 OFFCURVE",
"234 120 OFFCURVE",
"219 120 CURVE SMOOTH"
);
}
);
width = 494;
}
);
leftKerningGroup = a;
rightKerningGroup = n;
unicode = 0105;
},
{
color = 1;
glyphname = ae;
layers = (
{
anchors = (
{
name = top;
position = "{350, 472}";
}
);
layerId = UUID0;
paths = (
{
closed = 1;
nodes = (
"541 -12 OFFCURVE",
"633 56 OFFCURVE",
"633 56 CURVE",
"622 85 LINE",
"616 87 LINE",
"616 87 OFFCURVE",
"553 52 OFFCURVE",
"493 52 CURVE SMOOTH",
"411 52 OFFCURVE",
"351 122 OFFCURVE",
"344 225 CURVE",
"614 289 LINE",
"623 303 LINE",
"623 303 OFFCURVE",
"625 313 OFFCURVE",
"625 322 CURVE SMOOTH",
"625 411 OFFCURVE",
"573 464 OFFCURVE",
"488 464 CURVE SMOOTH",
"431 464 OFFCURVE",
"375 435 OFFCURVE",
"336 384 CURVE",
"319 437 OFFCURVE",
"277 464 OFFCURVE",
"212 464 CURVE SMOOTH",
"170 464 OFFCURVE",
"49 394 OFFCURVE",
"49 394 CURVE",
"61 351 LINE",
"66 348 LINE",
"66 348 OFFCURVE",
"124 401 OFFCURVE",
"189 401 CURVE SMOOTH",
"245 401 OFFCURVE",
"275 364 OFFCURVE",
"275 297 CURVE SMOOTH",
"274 247 LINE",
"83 195 LINE SMOOTH",
"51 186 OFFCURVE",
"30 155 OFFCURVE",
"30 116 CURVE SMOOTH",
"30 44 OFFCURVE",
"84 -8 OFFCURVE",
"158 -8 CURVE SMOOTH",
"193 1 OFFCURVE",
"245 40 OFFCURVE",
"297 95 CURVE",
"329 27 OFFCURVE",
"396 -12 OFFCURVE",
"480 -12 CURVE SMOOTH"
);
},
{
closed = 1;
nodes = (
"134 57 OFFCURVE",
"103 90 OFFCURVE",
"103 127 CURVE SMOOTH",
"103 146 OFFCURVE",
"113 163 OFFCURVE",
"135 169 CURVE SMOOTH",
"273 210 LINE",
"273 178 OFFCURVE",
"277 150 OFFCURVE",
"285 125 CURVE",
"238 81 OFFCURVE",
"198 57 OFFCURVE",
"170 57 CURVE SMOOTH"
);
},
{
closed = 1;
nodes = (
"343 269 LINE SMOOTH",
"343 352 OFFCURVE",
"392 408 OFFCURVE",
"465 408 CURVE SMOOTH",
"507 408 OFFCURVE",
"538 374 OFFCURVE",
"538 330 CURVE SMOOTH",
"538 321 OFFCURVE",
"531 316 OFFCURVE",
"518 312 CURVE SMOOTH",
"343 262 LINE"
);
}
);
width = 653;
},
{
anchors = (
{
name = top;
position = "{350, 472}";
}
);
layerId = UUID1;
paths = (
{
closed = 1;
nodes = (
"573 -12 OFFCURVE",
"675 69 OFFCURVE",
"675 69 CURVE",
"653 143 LINE",
"644 148 LINE",
"644 148 OFFCURVE",
"590 119 OFFCURVE",
"526 119 CURVE SMOOTH",
"459 119 OFFCURVE",
"431 145 OFFCURVE",
"420 216 CURVE",
"659 238 LINE",
"671 248 LINE",
"671 248 OFFCURVE",
"673 265 OFFCURVE",
"673 288 CURVE SMOOTH",
"673 411 OFFCURVE",
"609 484 OFFCURVE",
"500 484 CURVE SMOOTH",
"438 484 OFFCURVE",
"389 468 OFFCURVE",
"352 436 CURVE",
"316 467 OFFCURVE",
"273 484 OFFCURVE",
"228 484 CURVE SMOOTH",
"176 484 OFFCURVE",
"20 401 OFFCURVE",
"20 401 CURVE",
"45 321 LINE",
"57 315 LINE",
"57 315 OFFCURVE",
"120 358 OFFCURVE",
"172 358 CURVE SMOOTH",
"223 358 OFFCURVE",
"254 331 OFFCURVE",
"254 286 CURVE SMOOTH",
"254 277 LINE",
"83 254 LINE SMOOTH",
"36 247 OFFCURVE",
"6 208 OFFCURVE",
"6 157 CURVE SMOOTH",
"6 65 OFFCURVE",
"71 -8 OFFCURVE",
"153 -8 CURVE SMOOTH",
"181 -8 OFFCURVE",
"233 23 OFFCURVE",
"294 77 CURVE",
"333 19 OFFCURVE",
"402 -12 OFFCURVE",
"494 -12 CURVE SMOOTH"
);
},
{
closed = 1;
nodes = (
"189 120 OFFCURVE",
"174 138 OFFCURVE",
"174 168 CURVE SMOOTH",
"174 187 OFFCURVE",
"180 194 OFFCURVE",
"199 197 CURVE SMOOTH",
"254 205 LINE",
"255 179 OFFCURVE",
"260 153 OFFCURVE",
"268 131 CURVE",
"252 124 OFFCURVE",
"230 120 OFFCURVE",
"214 120 CURVE SMOOTH"
);
},
{
closed = 1;
nodes = (
"414 317 LINE SMOOTH",
"415 352 OFFCURVE",
"431 370 OFFCURVE",
"464 370 CURVE SMOOTH",
"490 370 OFFCURVE",
"505 348 OFFCURVE",
"505 312 CURVE SMOOTH",
"505 305 OFFCURVE",
"500 301 OFFCURVE",
"490 300 CURVE SMOOTH",
"414 288 LINE"
);
}
);
width = 689;
}
);
leftKerningGroup = a;
rightKerningGroup = e;
unicode = 00E6;
},
{
color = 1;
glyphname = b;
layers = (
{
anchors = (
{
name = bottom;
position = "{252, 0}";
},
{
name = top;
position = "{215, 463}";
}
);
layerId = UUID0;
paths = (
{
closed = 1;
nodes = (
"361 -12 OFFCURVE",
"472 104 OFFCURVE",
"472 250 CURVE SMOOTH",
"472 377 OFFCURVE",
"393 464 OFFCURVE",
"279 464 CURVE SMOOTH",
"265 464 OFFCURVE",
"219 438 OFFCURVE",
"158 394 CURVE SMOOTH",
"163 582 OFFCURVE",
"172 715 OFFCURVE",
"181 729 CURVE SMOOTH",
"175 742 LINE SMOOTH",
"175 742 OFFCURVE",
"96 722 OFFCURVE",
"27 713 CURVE SMOOTH",
"23 680 LINE",
"26 677 LINE",
"26 677 OFFCURVE",
"37 680 OFFCURVE",
"48 680 CURVE SMOOTH",
"73 680 OFFCURVE",
"85 663 OFFCURVE",
"85 626 CURVE",
"85 8 LINE",
"94 0 LINE SMOOTH",
"94 0 OFFCURVE",
"156 -12 OFFCURVE",
"223 -12 CURVE SMOOTH"
);
},
{
closed = 1;
nodes = (
"219 43 OFFCURVE",
"177 52 OFFCURVE",
"153 64 CURVE SMOOTH",
"156 342 LINE SMOOTH",
"190 373 OFFCURVE",
"236 396 OFFCURVE",
"263 396 CURVE SMOOTH",
"337 396 OFFCURVE",
"395 315 OFFCURVE",
"395 213 CURVE SMOOTH",
"395 108 OFFCURVE",
"340 43 OFFCURVE",
"251 43 CURVE SMOOTH"
);
}
);
width = 508;
},
{
anchors = (
{
name = bottom;
position = "{252, 0}";
},
{
name = top;
position = "{215, 463}";
}
);
layerId = UUID1;
paths = (
{
closed = 1;
nodes = (
"408 -7 OFFCURVE",
"506 92 OFFCURVE",
"506 251 CURVE SMOOTH",
"506 396 OFFCURVE",
"438 479 OFFCURVE",
"319 479 CURVE SMOOTH",
"308 479 OFFCURVE",
"269 452 OFFCURVE",
"224 420 CURVE SMOOTH",
"229 599 OFFCURVE",
"239 701 OFFCURVE",
"255 716 CURVE SMOOTH",
"246 742 LINE SMOOTH",
"246 742 OFFCURVE",
"96 721 OFFCURVE",
"-22 706 CURVE SMOOTH",
"-30 631 LINE",
"-25 624 LINE",
"-17 624 OFFCURVE",
"-8 624 OFFCURVE",
"0 624 CURVE SMOOTH",
"39 624 OFFCURVE",
"48 613 OFFCURVE",
"48 565 CURVE",
"48 25 LINE",
"58 12 LINE SMOOTH",
"58 12 OFFCURVE",
"156 -7 OFFCURVE",
"250 -7 CURVE SMOOTH"
);
},
{
closed = 1;
nodes = (
"241 106 OFFCURVE",
"220 115 OFFCURVE",
"220 115 CURVE SMOOTH",
"222 344 LINE SMOOTH",
"226 347 OFFCURVE",
"238 353 OFFCURVE",
"258 353 CURVE SMOOTH",
"299 353 OFFCURVE",
"318 308 OFFCURVE",
"318 210 CURVE SMOOTH",
"318 139 OFFCURVE",
"301 106 OFFCURVE",
"266 106 CURVE SMOOTH"
);
}
);
width = 520;
}
);
leftKerningGroup = h;
rightKerningGroup = o;
unicode = 0062;
},
{
color = 1;
glyphname = c;
layers = (
{
anchors = (
{
name = bottom;
position = "{248, 0}";
},
{
name = bottomright;
position = "{307, 105}";
},
{
name = top;
position = "{260, 452}";
}
);
layerId = UUID0;
paths = (
{
closed = 1;
nodes = (
"294 -12 OFFCURVE",
"382 55 OFFCURVE",
"382 55 CURVE",
"371 86 LINE",
"365 88 LINE",
"365 88 OFFCURVE",
"308 55 OFFCURVE",
"252 55 CURVE SMOOTH",
"168 55 OFFCURVE",
"116 127 OFFCURVE",
"116 243 CURVE SMOOTH",
"116 350 OFFCURVE",
"161 410 OFFCURVE",
"243 410 CURVE SMOOTH",
"292 410 OFFCURVE",
"325 377 OFFCURVE",
"325 328 CURVE SMOOTH",
"325 297 LINE",
"366 300 LINE",
"369 378 OFFCURVE",
"387 438 OFFCURVE",
"387 438 CURVE",
"384 445 LINE",
"384 445 OFFCURVE",
"331 464 OFFCURVE",
"267 464 CURVE SMOOTH",
"136 464 OFFCURVE",
"36 353 OFFCURVE",
"36 209 CURVE SMOOTH",
"36 75 OFFCURVE",
"118 -12 OFFCURVE",
"245 -12 CURVE SMOOTH"
);
}
);
width = 424;
},
{
anchors = (
{
name = bottom;
position = "{248, 0}";
},
{
name = bottomright;
position = "{355, 130}";
},
{
name = top;
position = "{260, 472}";
}
);
layerId = UUID1;
paths = (
{
closed = 1;
nodes = (
"320 -12 OFFCURVE",
"414 71 OFFCURVE",
"414 71 CURVE",
"392 146 LINE",
"382 151 LINE",
"382 151 OFFCURVE",
"338 125 OFFCURVE",
"284 125 CURVE SMOOTH",
"228 125 OFFCURVE",
"203 171 OFFCURVE",
"203 273 CURVE SMOOTH",
"203 335 OFFCURVE",
"222 366 OFFCURVE",
"260 366 CURVE SMOOTH",
"289 366 OFFCURVE",
"300 350 OFFCURVE",
"300 308 CURVE SMOOTH",
"300 272 LINE",
"392 277 LINE",
"399 367 OFFCURVE",
"415 451 OFFCURVE",
"415 451 CURVE",
"410 462 LINE",
"410 462 OFFCURVE",
"359 484 OFFCURVE",
"272 484 CURVE SMOOTH",
"115 484 OFFCURVE",
"14 384 OFFCURVE",
"14 230 CURVE SMOOTH",
"14 78 OFFCURVE",
"100 -12 OFFCURVE",
"247 -12 CURVE SMOOTH"
);
}
);
width = 440;
}
);
leftKerningGroup = o;
rightKerningGroup = c;
unicode = 0063;
},
{
color = 1;
glyphname = d;
layers = (
{
anchors = (
{
name = bottom;
position = "{264, 0}";
},
{
name = center;
position = "{376, 236}";
},
{
name = top;
position = "{390, 730}";
}
);
layerId = UUID0;
paths = (
{
closed = 1;
nodes = (
"497 2 OFFCURVE",
"537 68 OFFCURVE",
"537 68 CURVE",
"523 84 LINE",
"523 84 OFFCURVE",
"495 59 OFFCURVE",
"463 59 CURVE SMOOTH",
"437 59 OFFCURVE",
"422 76 OFFCURVE",
"422 105 CURVE SMOOTH",
"422 398 OFFCURVE",
"436 706 OFFCURVE",
"450 729 CURVE",
"444 742 LINE",
"444 742 OFFCURVE",
"365 722 OFFCURVE",
"296 713 CURVE",
"292 676 LINE",
"292 676 OFFCURVE",
"306 680 OFFCURVE",
"317 680 CURVE SMOOTH",
"342 680 OFFCURVE",
"354 663 OFFCURVE",
"354 626 CURVE SMOOTH",
"354 460 LINE",
"326 463 OFFCURVE",
"303 464 OFFCURVE",
"285 464 CURVE SMOOTH",
"148 464 OFFCURVE",
"36 346 OFFCURVE",
"36 202 CURVE SMOOTH",
"36 76 OFFCURVE",
"114 -9 OFFCURVE",
"229 -9 CURVE SMOOTH",
"243 -9 OFFCURVE",
"285 15 OFFCURVE",
"354 62 CURVE",
"361 59 LINE",
"368 12 OFFCURVE",
"397 -12 OFFCURVE",
"450 -12 CURVE"
);
},
{
closed = 1;
nodes = (
"171 56 OFFCURVE",
"113 135 OFFCURVE",
"113 236 CURVE SMOOTH",
"113 341 OFFCURVE",
"168 406 OFFCURVE",
"257 406 CURVE SMOOTH",
"317 406 OFFCURVE",
"354 383 OFFCURVE",
"354 383 CURVE",
"354 109 LINE",
"354 109 OFFCURVE",
"293 56 OFFCURVE",
"245 56 CURVE SMOOTH"
);
}
);
width = 537;
},
{
anchors = (
{
name = bottom;
position = "{264, 0}";
},
{
name = center;
position = "{376, 236}";
},
{
name = top;
position = "{390, 730}";
}
);
layerId = UUID1;
paths = (
{
closed = 1;
nodes = (
"491 12 OFFCURVE",
"541 109 OFFCURVE",
"541 109 CURVE",
"524 136 LINE",
"524 136 OFFCURVE",
"509 128 OFFCURVE",
"494 128 CURVE SMOOTH",
"481 128 OFFCURVE",
"472 142 OFFCURVE",
"472 163 CURVE SMOOTH",
"472 465 OFFCURVE",
"486 691 OFFCURVE",
"507 720 CURVE",
"495 742 LINE",
"495 742 OFFCURVE",
"362 719 OFFCURVE",
"238 705 CURVE",
"229 618 LINE",
"229 618 OFFCURVE",
"245 620 OFFCURVE",
"252 620 CURVE SMOOTH",
"291 620 OFFCURVE",
"300 609 OFFCURVE",
"300 561 CURVE SMOOTH",
"300 478 LINE",
"293 479 OFFCURVE",
"284 479 OFFCURVE",
"270 479 CURVE SMOOTH",
"112 479 OFFCURVE",
"14 380 OFFCURVE",
"14 221 CURVE SMOOTH",
"14 76 OFFCURVE",
"82 -7 OFFCURVE",
"201 -7 CURVE SMOOTH",
"211 -7 OFFCURVE",
"249 18 OFFCURVE",
"307 63 CURVE",
"313 61 LINE",
"320 13 OFFCURVE",
"359 -12 OFFCURVE",
"426 -12 CURVE"
);
},
{
closed = 1;
nodes = (
"221 119 OFFCURVE",
"202 164 OFFCURVE",
"202 262 CURVE SMOOTH",
"202 332 OFFCURVE",
"219 366 OFFCURVE",
"254 366 CURVE SMOOTH",
"279 366 OFFCURVE",
"300 356 OFFCURVE",
"300 356 CURVE",
"300 129 LINE",
"300 129 OFFCURVE",
"287 119 OFFCURVE",
"262 119 CURVE SMOOTH"
);
}
);
width = 536;
}
);
leftKerningGroup = o;
unicode = 0064;
},
{
color = 1;
glyphname = eth;
layers = (
{
layerId = UUID0;
paths = (
{
closed = 1;
nodes = (
"368 -12 OFFCURVE",
"465 99 OFFCURVE",
"465 242 CURVE SMOOTH",
"465 376 OFFCURVE",
"407 500 OFFCURVE",
"301 599 CURVE",
"422 658 LINE",
"418 687 LINE",
"410 692 LINE",
"272 625 LINE",
"217 670 OFFCURVE",
"152 709 OFFCURVE",
"78 741 CURVE",
"68 737 LINE",
"53 704 LINE",
"118 674 OFFCURVE",
"173 639 OFFCURVE",
"219 599 CURVE",
"101 541 LINE",
"105 511 LINE",
"114 508 LINE",
"247 572 LINE",
"288 530 OFFCURVE",
"319 482 OFFCURVE",
"342 429 CURVE",
"340 427 LINE",
"340 427 OFFCURVE",
"297 453 OFFCURVE",
"266 453 CURVE SMOOTH",
"144 453 OFFCURVE",
"43 342 OFFCURVE",
"43 206 CURVE SMOOTH",
"43 77 OFFCURVE",
"125 -12 OFFCURVE",
"243 -12 CURVE SMOOTH"
);
},
{
closed = 1;
nodes = (
"184 37 OFFCURVE",
"123 118 OFFCURVE",
"123 235 CURVE SMOOTH",
"123 338 OFFCURVE",
"171 399 OFFCURVE",
"250 399 CURVE SMOOTH",
"313 399 OFFCURVE",
"349 373 OFFCURVE",
"365 358 CURVE",
"377 311 OFFCURVE",
"383 261 OFFCURVE",
"383 206 CURVE SMOOTH",
"383 102 OFFCURVE",
"340 37 OFFCURVE",
"271 37 CURVE SMOOTH"
);
}
);
width = 508;
},
{
layerId = UUID1;
paths = (
{
closed = 1;
nodes = (
"402 -12 OFFCURVE",
"495 89 OFFCURVE",
"495 258 CURVE SMOOTH",
"495 382 OFFCURVE",
"433 501 OFFCURVE",
"322 599 CURVE",
"413 645 LINE",
"382 738 LINE",
"373 742 LINE",
"229 668 LINE",
"186 695 OFFCURVE",
"138 720 OFFCURVE",
"86 742 CURVE",
"70 734 LINE",
"19 653 LINE",
"47 634 OFFCURVE",
"73 617 OFFCURVE",
"96 600 CURVE",
"17 559 LINE",
"48 465 LINE",
"58 463 LINE",
"183 527 LINE",
"206 505 OFFCURVE",
"225 483 OFFCURVE",
"240 460 CURVE",
"236 451 LINE",
"223 455 OFFCURVE",
"209 459 OFFCURVE",
"196 463 CURVE SMOOTH",
"78 463 OFFCURVE",
"13 360 OFFCURVE",
"13 234 CURVE SMOOTH",
"13 70 OFFCURVE",
"97 -12 OFFCURVE",
"245 -12 CURVE SMOOTH"
);
},
{
closed = 1;
nodes = (
"217 95 OFFCURVE",
"204 126 OFFCURVE",
"204 230 CURVE SMOOTH",
"204 335 OFFCURVE",
"210 349 OFFCURVE",
"253 349 CURVE SMOOTH",
"269 349 OFFCURVE",
"280 345 OFFCURVE",
"289 339 CURVE",
"297 299 OFFCURVE",
"301 254 OFFCURVE",
"301 202 CURVE SMOOTH",
"301 122 OFFCURVE",
"291 95 OFFCURVE",
"261 95 CURVE SMOOTH"
);
}
);
width = 508;
}
);
leftKerningGroup = o;
unicode = 00F0;
},
{
color = 0;
glyphname = dcaron;
layers = (
{
components = (
{
alignment = -1;
name = d;
}
);
layerId = UUID0;
paths = (
{
closed = 1;
nodes = (
"536 489 LINE",
"557 591 OFFCURVE",
"571 701 OFFCURVE",
"571 701 CURVE",
"564 709 LINE",
"494 695 LINE",
"494 695 OFFCURVE",
"504 587 OFFCURVE",
"500 477 CURVE",
"511 475 LINE"
);
}
);
width = 571;
},
{
components = (
{
alignment = -1;
name = d;
}
);
layerId = UUID1;
paths = (
{
closed = 1;
nodes = (
"631 460 LINE",
"657 572 OFFCURVE",
"673 681 OFFCURVE",
"673 681 CURVE",
"664 693 LINE",
"530 679 LINE",
"530 679 OFFCURVE",
"541 561 OFFCURVE",
"539 441 CURVE",
"558 435 LINE"
);
}
);
width = 663;
}
);
leftKerningGroup = o;
unicode = 010F;
},
{
color = 0;
glyphname = dcroat;
layers = (
{
background = {
paths = (
{
closed = 1;
nodes = (
"526 621 LINE",
"526 621 OFFCURVE",
"447 615 OFFCURVE",
"397 615 CURVE SMOOTH",
"338 615 OFFCURVE",
"243 616 OFFCURVE",
"243 616 CURVE",
"233 571 LINE",
"239 562 LINE",
"239 562 OFFCURVE",
"324 563 OFFCURVE",
"383 563 CURVE SMOOTH",
"525 564 LINE",
"532 611 LINE"
);
}
);
};
components = (
{
alignment = -1;
name = d;
}
);
layerId = UUID0;
paths = (
{
closed = 1;
nodes = (
"383 536 LINE",
"522 537 LINE",
"526 574 LINE",
"513 587 LINE",
"405 582 LINE",
"238 583 LINE",
"231 544 LINE",
"240 535 LINE"
);
}
);
width = 537;
},
{
background = {
paths = (
{
closed = 1;
nodes = (
"538 951 LINE",
"538 951 OFFCURVE",
"464 945 OFFCURVE",
"414 945 CURVE SMOOTH",
"355 945 OFFCURVE",
"260 946 OFFCURVE",
"260 946 CURVE",
"241 837 LINE",
"257 822 LINE",
"257 822 OFFCURVE",
"332 823 OFFCURVE",
"391 823 CURVE SMOOTH",
"531 824 LINE",
"549 933 LINE"
);
}
);
};
components = (
{
alignment = -1;
name = d;
}
);
layerId = UUID1;
paths = (
{
closed = 1;
nodes = (
"375 509 LINE",
"552 510 LINE",
"557 565 LINE",
"542 580 LINE",
"401 575 LINE",
"202 576 LINE",
"194 518 LINE",
"205 508 LINE"
);
}
);
width = 536;
}
);
leftKerningGroup = o;
unicode = 0111;
},
{
color = 1;
glyphname = e;
layers = (
{
anchors = (
{
name = bottom;
position = "{261, 0}";
},
{
name = ogonek;
position = "{392, 41}";
},
{
name = top;
position = "{255, 452}";
}
);
background = {
paths = (
{
closed = 1;
nodes = (
"387 258 LINE",
"400 270 LINE",
"400 270 OFFCURVE",
"406 294 OFFCURVE",
"406 319 CURVE SMOOTH",
"406 414 OFFCURVE",
"355 464 OFFCURVE",
"257 464 CURVE SMOOTH",
"138 464 OFFCURVE",
"36 346 OFFCURVE",
"36 209 CURVE SMOOTH",
"36 77 OFFCURVE",
"120 -12 OFFCURVE",
"246 -12 CURVE SMOOTH",
"306 -12 OFFCURVE",
"399 56 OFFCURVE",
"399 56 CURVE",
"388 85 LINE",
"382 87 LINE",
"382 87 OFFCURVE",
"321 56 OFFCURVE",
"259 56 CURVE SMOOTH",
"170 56 OFFCURVE",
"111 130 OFFCURVE",
"111 242 CURVE SMOOTH",
"111 258 LINE"
);
},
{
closed = 1;
nodes = (
"115 295 LINE",
"127 368 OFFCURVE",
"176 413 OFFCURVE",
"238 413 CURVE SMOOTH",
"291 413 OFFCURVE",
"321 384 OFFCURVE",
"321 331 CURVE SMOOTH",
"321 311 OFFCURVE",
"316 306 OFFCURVE",
"296 304 CURVE SMOOTH"
);
}
);
};
layerId = UUID0;
paths = (
{
closed = 1;
nodes = (
"290 -12 OFFCURVE",
"359 27 OFFCURVE",
"399 56 CURVE",
"388 85 LINE",
"382 87 LINE",
"216 11 OFFCURVE",
"109 79 OFFCURVE",
"111 258 CURVE",
"387 258 LINE",
"400 270 LINE",
"403 280 OFFCURVE",
"406 301 OFFCURVE",
"406 319 CURVE SMOOTH",
"406 414 OFFCURVE",
"355 464 OFFCURVE",
"257 464 CURVE SMOOTH",
"138 464 OFFCURVE",
"36 346 OFFCURVE",
"36 209 CURVE SMOOTH",
"36 77 OFFCURVE",
"120 -12 OFFCURVE",
"246 -12 CURVE SMOOTH"
);
},
{
closed = 1;
nodes = (
"127 368 OFFCURVE",
"176 413 OFFCURVE",
"238 413 CURVE SMOOTH",
"291 413 OFFCURVE",
"321 384 OFFCURVE",
"321 331 CURVE SMOOTH",
"321 311 OFFCURVE",
"316 306 OFFCURVE",
"296 304 CURVE SMOOTH",
"115 295 LINE"
);
}
);
width = 448;
},
{
anchors = (
{
name = bottom;
position = "{261, 0}";
},
{
name = ogonek;
position = "{392, 41}";
},
{
name = top;
position = "{255, 472}";
}
);
background = {
paths = (
{
closed = 1;
nodes = (
"440 208 LINE",
"451 218 LINE",
"451 218 OFFCURVE",
"459 251 OFFCURVE",
"459 284 CURVE SMOOTH",
"459 418 OFFCURVE",
"396 484 OFFCURVE",
"269 484 CURVE SMOOTH",
"114 484 OFFCURVE",
"14 384 OFFCURVE",
"14 230 CURVE SMOOTH",
"14 75 OFFCURVE",
"102 -12 OFFCURVE",
"259 -12 CURVE SMOOTH",
"346 -12 OFFCURVE",
"451 69 OFFCURVE",
"451 69 CURVE",
"429 143 LINE",
"420 148 LINE",
"420 148 OFFCURVE",
"366 119 OFFCURVE",
"302 119 CURVE SMOOTH",
"244 119 OFFCURVE",
"212 143 OFFCURVE",
"203 206 CURVE SMOOTH",
"203 208 LINE"
);
},
{
closed = 1;
nodes = (
"198 284 LINE",
"198 348 OFFCURVE",
"213 373 OFFCURVE",
"253 373 CURVE SMOOTH",
"280 373 OFFCURVE",
"293 352 OFFCURVE",
"293 308 CURVE SMOOTH",
"293 294 OFFCURVE",
"291 291 OFFCURVE",
"281 290 CURVE SMOOTH"
);
}
);
};
layerId = UUID1;
paths = (
{
closed = 1;
nodes = (
"323 -12 OFFCURVE",
"406 34 OFFCURVE",
"451 69 CURVE",
"429 143 LINE",
"420 148 LINE",
"293 93 OFFCURVE",
"211 115 OFFCURVE",
"203 208 CURVE",
"440 208 LINE",
"451 218 LINE",
"454 232 OFFCURVE",
"459 260 OFFCURVE",
"459 284 CURVE SMOOTH",
"459 418 OFFCURVE",
"396 484 OFFCURVE",
"269 484 CURVE SMOOTH",
"114 484 OFFCURVE",
"14 384 OFFCURVE",
"14 230 CURVE SMOOTH",
"14 75 OFFCURVE",
"102 -12 OFFCURVE",
"259 -12 CURVE SMOOTH"
);
},
{
closed = 1;
nodes = (
"198 348 OFFCURVE",
"213 373 OFFCURVE",
"253 373 CURVE SMOOTH",
"280 373 OFFCURVE",
"293 352 OFFCURVE",
"293 308 CURVE SMOOTH",
"293 294 OFFCURVE",
"291 291 OFFCURVE",
"281 290 CURVE SMOOTH",
"198 284 LINE"
);
}
);
width = 479;
}
);
leftKerningGroup = o;
rightKerningGroup = e;
unicode = 0065;
},
{
color = 1;
glyphname = eogonek;
layers = (
{
background = {
paths = (
{
closed = 1;
nodes = (
"115 295 LINE",
"127 368 OFFCURVE",
"176 413 OFFCURVE",
"238 413 CURVE SMOOTH",
"291 413 OFFCURVE",
"321 384 OFFCURVE",
"321 331 CURVE SMOOTH",
"321 311 OFFCURVE",
"316 306 OFFCURVE",
"296 304 CURVE SMOOTH"
);
},
{
closed = 1;
nodes = (
"387 258 LINE",
"400 270 LINE",
"400 270 OFFCURVE",
"406 294 OFFCURVE",
"406 319 CURVE SMOOTH",
"406 414 OFFCURVE",
"355 464 OFFCURVE",
"257 464 CURVE SMOOTH",
"138 464 OFFCURVE",
"36 346 OFFCURVE",
"36 209 CURVE SMOOTH",
"36 77 OFFCURVE",
"120 -12 OFFCURVE",
"246 -12 CURVE SMOOTH",
"306 -12 OFFCURVE",
"399 56 OFFCURVE",
"399 56 CURVE",
"388 85 LINE",
"382 87 LINE",
"382 87 OFFCURVE",
"321 56 OFFCURVE",
"259 56 CURVE SMOOTH",
"170 56 OFFCURVE",
"111 130 OFFCURVE",
"111 242 CURVE SMOOTH",
"111 258 LINE"
);
},
{
closed = 1;
nodes = (
"402 -159 LINE",
"402 -159 OFFCURVE",
"364 -182 OFFCURVE",
"325 -182 CURVE SMOOTH",
"290 -182 OFFCURVE",
"267 -159 OFFCURVE",
"267 -128 CURVE SMOOTH",
"267 -79 OFFCURVE",
"301 -42 OFFCURVE",
"383 42 CURVE",
"341 42 LINE",
"269 -30 OFFCURVE",
"204 -89 OFFCURVE",
"204 -147 CURVE SMOOTH",
"204 -207 OFFCURVE",
"250 -241 OFFCURVE",
"315 -241 CURVE",
"366 -224 OFFCURVE",
"415 -178 OFFCURVE",
"415 -178 CURVE"
);
}
);
};
layerId = UUID0;
paths = (
{
closed = 1;
nodes = (
"306 -12 OFFCURVE",
"399 56 OFFCURVE",
"399 56 CURVE",
"388 85 LINE",
"382 87 LINE",
"382 87 OFFCURVE",
"321 56 OFFCURVE",
"259 56 CURVE SMOOTH",
"170 56 OFFCURVE",
"111 130 OFFCURVE",
"111 242 CURVE SMOOTH",
"111 258 LINE",
"387 258 LINE",
"400 270 LINE",
"400 270 OFFCURVE",
"406 294 OFFCURVE",
"406 319 CURVE SMOOTH",
"406 414 OFFCURVE",
"355 464 OFFCURVE",
"257 464 CURVE SMOOTH",
"138 464 OFFCURVE",
"36 346 OFFCURVE",
"36 209 CURVE SMOOTH",
"36 77 OFFCURVE",
"120 -12 OFFCURVE",
"246 -12 CURVE SMOOTH"
);
},
{
closed = 1;
nodes = (
"366 -224 OFFCURVE",
"415 -178 OFFCURVE",
"415 -178 CURVE",
"402 -159 LINE",
"402 -159 OFFCURVE",
"364 -182 OFFCURVE",
"325 -182 CURVE SMOOTH",
"290 -182 OFFCURVE",
"267 -159 OFFCURVE",
"267 -128 CURVE SMOOTH",
"267 -75 OFFCURVE",
"307 -35 OFFCURVE",
"399 56 CURVE",
"357 56 LINE",
"278 -22 OFFCURVE",
"204 -85 OFFCURVE",
"204 -147 CURVE SMOOTH",
"204 -207 OFFCURVE",
"250 -241 OFFCURVE",
"315 -241 CURVE"
);
},
{
closed = 1;
nodes = (
"127 368 OFFCURVE",
"176 413 OFFCURVE",
"238 413 CURVE SMOOTH",
"291 413 OFFCURVE",
"321 384 OFFCURVE",
"321 331 CURVE SMOOTH",
"321 311 OFFCURVE",
"316 306 OFFCURVE",
"296 304 CURVE SMOOTH",
"115 295 LINE"
);
}
);
width = 448;
},
{
background = {
paths = (
{
closed = 1;
nodes = (
"198 284 LINE",
"198 348 OFFCURVE",
"213 373 OFFCURVE",
"253 373 CURVE SMOOTH",
"280 373 OFFCURVE",
"293 352 OFFCURVE",
"293 308 CURVE SMOOTH",
"293 294 OFFCURVE",
"291 291 OFFCURVE",
"281 290 CURVE SMOOTH"
);
},
{
closed = 1;
nodes = (
"440 208 LINE",
"451 218 LINE",
"451 218 OFFCURVE",
"459 251 OFFCURVE",
"459 284 CURVE SMOOTH",
"459 418 OFFCURVE",
"396 484 OFFCURVE",
"269 484 CURVE SMOOTH",
"114 484 OFFCURVE",
"14 384 OFFCURVE",
"14 230 CURVE SMOOTH",
"14 75 OFFCURVE",
"102 -12 OFFCURVE",
"259 -12 CURVE SMOOTH",
"346 -12 OFFCURVE",
"451 69 OFFCURVE",
"451 69 CURVE",
"429 143 LINE",
"420 148 LINE",
"420 148 OFFCURVE",
"366 119 OFFCURVE",
"302 119 CURVE SMOOTH",
"244 119 OFFCURVE",
"212 143 OFFCURVE",
"203 206 CURVE SMOOTH",
"203 208 LINE"
);
},
{
closed = 1;
nodes = (
"348 42 LINE",
"248 -74 OFFCURVE",
"231 -100 OFFCURVE",
"231 -138 CURVE SMOOTH",
"231 -199 OFFCURVE",
"283 -242 OFFCURVE",
"356 -242 CURVE",
"385 -238 OFFCURVE",
"421 -214 OFFCURVE",
"469 -167 CURVE",
"436 -115 LINE",
"415 -129 OFFCURVE",
"393 -138 OFFCURVE",
"377 -138 CURVE SMOOTH",
"363 -138 OFFCURVE",
"355 -130 OFFCURVE",
"355 -116 CURVE SMOOTH",
"355 -92 OFFCURVE",
"373 -54 OFFCURVE",
"430 42 CURVE"
);
}
);
};
layerId = UUID1;
paths = (
{
closed = 1;
nodes = (
"346 -12 OFFCURVE",
"451 72 OFFCURVE",
"451 72 CURVE",
"429 143 LINE",
"420 148 LINE",
"420 148 OFFCURVE",
"366 119 OFFCURVE",
"302 119 CURVE SMOOTH",
"244 119 OFFCURVE",
"212 143 OFFCURVE",
"203 206 CURVE SMOOTH",
"203 208 LINE",
"440 208 LINE",
"451 218 LINE",
"451 218 OFFCURVE",
"459 251 OFFCURVE",
"459 284 CURVE SMOOTH",
"459 418 OFFCURVE",
"396 484 OFFCURVE",
"269 484 CURVE SMOOTH",
"114 484 OFFCURVE",
"14 384 OFFCURVE",
"14 230 CURVE SMOOTH",
"14 75 OFFCURVE",
"102 -12 OFFCURVE",
"259 -12 CURVE SMOOTH"
);
},
{
closed = 1;
nodes = (
"385 -238 OFFCURVE",
"421 -214 OFFCURVE",
"469 -167 CURVE",
"436 -115 LINE",
"415 -129 OFFCURVE",
"393 -138 OFFCURVE",
"377 -138 CURVE SMOOTH",
"363 -138 OFFCURVE",
"355 -130 OFFCURVE",
"355 -116 CURVE SMOOTH",
"355 -88 OFFCURVE",
"378 -40 OFFCURVE",
"451 72 CURVE",
"348 42 LINE",
"248 -74 OFFCURVE",
"231 -100 OFFCURVE",
"231 -138 CURVE SMOOTH",
"231 -199 OFFCURVE",
"283 -242 OFFCURVE",
"356 -242 CURVE"
);
},
{
closed = 1;
nodes = (
"198 348 OFFCURVE",
"213 373 OFFCURVE",
"253 373 CURVE SMOOTH",
"280 373 OFFCURVE",
"293 352 OFFCURVE",
"293 308 CURVE SMOOTH",
"293 294 OFFCURVE",
"291 291 OFFCURVE",
"281 290 CURVE SMOOTH",
"198 284 LINE"
);
}
);
width = 479;
}
);
leftKerningGroup = o;
rightKerningGroup = e;
unicode = 0119;
},
